<svg width="46" height="48" viewBox="0 0 46 48" fill="none" xmlns="http://www.w3.org/2000/svg">
<path d="M40.6333 44.8V0H5.36667V44.8H0V48H46V44.8H40.6333ZM37.5667 44.8H24.5333V38.4H21.4667V44.8H8.43333V3.2H37.5667V44.8Z" fill="#0057A8"/>
<path d="M16.8665 28.8008H13.7998V32.0008H16.8665V28.8008Z" fill="#0057A8"/>
<path d="M24.5335 28.8008H21.4668V32.0008H24.5335V28.8008Z" fill="#0057A8"/>
<path d="M32.2005 28.8008H29.1338V32.0008H32.2005V28.8008Z" fill="#0057A8"/>
<path d="M16.8665 19.1992H13.7998V22.3992H16.8665V19.1992Z" fill="#0057A8"/>
<path d="M24.5335 19.1992H21.4668V22.3992H24.5335V19.1992Z" fill="#0057A8"/>
<path d="M32.2005 19.1992H29.1338V22.3992H32.2005V19.1992Z" fill="#0057A8"/>
<path d="M16.8665 9.59961H13.7998V12.7996H16.8665V9.59961Z" fill="#0057A8"/>
<path d="M24.5335 9.59961H21.4668V12.7996H24.5335V9.59961Z" fill="#0057A8"/>
<path d="M32.2005 9.59961H29.1338V12.7996H32.2005V9.59961Z" fill="#0057A8"/>
</svg>
