<svg width="48" height="49" viewBox="0 0 48 49" fill="none" xmlns="http://www.w3.org/2000/svg">
<g clip-path="url(#clip0_1391_11730)">
<path d="M46.9063 41.8327L38.2225 33.1489C38.4614 32.7859 38.4216 32.2929 38.1019 31.9733C37.7822 31.6536 37.2892 31.6138 36.9262 31.8526L34.6089 29.5353C36.3408 26.9639 37.4309 23.9861 37.7471 20.8796C38.1792 16.6255 37.1499 12.3128 34.8501 8.73672C34.5703 8.30113 33.9906 8.17583 33.5562 8.45569C33.1218 8.73555 32.9953 9.31518 33.2752 9.7496C37.5761 16.437 36.6101 25.3784 30.9789 31.0107C24.3326 37.6571 13.5187 37.6571 6.8712 31.0107C0.223662 24.3644 0.223663 13.5505 6.87003 6.90417C12.507 1.266 21.1639 0.267168 27.9216 4.47443C28.3607 4.74726 28.938 4.61377 29.212 4.17466C29.486 3.73555 29.3513 3.15827 28.9122 2.88426C25.3454 0.664124 21.0691 -0.306602 16.8689 0.148901C12.6054 0.612601 8.58315 2.54117 5.54451 5.57981C-1.83254 12.9569 -1.83254 24.9592 5.54451 32.3363C9.23303 36.0248 14.0785 37.869 18.9227 37.869C22.6136 37.869 26.3045 36.7976 29.4848 34.6571L31.7904 36.9627C31.4438 37.3292 31.4497 37.9077 31.8091 38.2672C31.9918 38.4498 32.2319 38.5412 32.4719 38.5412C32.712 38.5412 32.9344 38.4545 33.1136 38.2847L41.7846 46.9557C42.4824 47.6536 43.3993 48.0025 44.3197 48.0025C45.2401 48.0025 46.1792 47.6466 46.8888 46.9381C48.3009 45.5259 48.3091 43.2367 46.9063 41.8339V41.8327ZM31.418 33.9393L33.8911 31.4662L35.5878 33.1629L33.1148 35.636L31.418 33.9393ZM45.5644 45.6114C44.8829 46.2941 43.781 46.3011 43.1101 45.6302L34.4403 36.9604L36.9134 34.4873L45.5831 43.1571C46.2541 43.8292 46.2471 44.9299 45.5644 45.6114Z" fill="black"/>
<path d="M32.3237 5.60095L32.3038 5.58104C31.9385 5.21453 31.346 5.21219 30.9795 5.57636C30.613 5.94053 30.6106 6.5342 30.9748 6.90071L30.9994 6.9253C31.1821 7.10797 31.4221 7.19931 31.6621 7.19931C31.9022 7.19931 32.1411 7.10797 32.3249 6.9253C32.6903 6.55996 32.6903 5.96629 32.3249 5.60095H32.3237Z" fill="black"/>
<path d="M18.9239 4.53516C10.9707 4.53516 4.5 11.0059 4.5 18.959C4.5 26.9122 10.9707 33.3829 18.9239 33.3829C26.877 33.3829 33.3478 26.9122 33.3478 18.959C33.3478 11.0059 26.877 4.53516 18.9239 4.53516ZM18.9239 31.5094C12.0035 31.5094 6.37354 25.8794 6.37354 18.959C6.37354 12.0387 12.0035 6.40869 18.9239 6.40869C25.8443 6.40869 31.4742 12.0387 31.4742 18.959C31.4742 25.8794 25.8443 31.5094 18.9239 31.5094Z" fill="black"/>
<path d="M22.4876 17.7403C23.0719 16.9815 23.4197 16.033 23.4197 15.0049V13.7777C23.4197 11.2988 21.4033 9.28125 18.9244 9.28125C16.4455 9.28125 14.4291 11.2988 14.4291 13.7777V15.0049C14.4291 16.033 14.7768 16.9827 15.3611 17.7403C12.3822 18.3023 10.1211 20.9218 10.1211 24.0611V24.5447C10.1211 25.0623 10.5403 25.4815 11.0579 25.4815H26.7932C27.3108 25.4815 27.73 25.0623 27.73 24.5447V24.0611C27.73 20.9218 25.4689 18.3012 22.4899 17.7403H22.4876ZM16.3014 13.7777C16.3014 12.3316 17.4782 11.156 18.9232 11.156C20.3682 11.156 21.5462 12.3328 21.5462 13.7777V15.0049C21.5462 16.451 20.3693 17.6279 18.9232 17.6279C17.4771 17.6279 16.3014 16.451 16.3014 15.0049V13.7777ZM12.0145 23.6091C12.2429 21.3058 14.1914 19.5002 16.5532 19.5002H21.2921C23.6551 19.5002 25.6035 21.3058 25.8307 23.6091H12.0134H12.0145Z" fill="black"/>
</g>
<defs>
<clipPath id="clip0_1391_11730">
<rect width="48" height="48.1124" fill="white"/>
</clipPath>
</defs>
</svg>
