<svg width="48" height="48" viewBox="0 0 48 48" fill="none" xmlns="http://www.w3.org/2000/svg">
<path d="M46.9519 41.8255L38.2574 33.1351C38.4966 32.7718 38.4567 32.2784 38.1367 31.9585C37.8166 31.6386 37.323 31.5988 36.9596 31.8378L34.6394 29.5187C36.3734 26.9453 37.4649 23.9653 37.7814 20.8564C38.214 16.5991 37.1835 12.2831 34.8809 8.70429C34.6007 8.26836 34.0204 8.14297 33.5854 8.42304C33.1505 8.70311 33.0239 9.28318 33.3041 9.71794C37.6103 16.4104 36.643 25.3586 31.005 30.9953C24.3505 37.6467 13.5235 37.6467 6.86786 30.9953C0.212202 24.3438 0.212203 13.5218 6.86669 6.87034C12.5106 1.22787 21.178 0.228279 27.9439 4.43874C28.3836 4.71179 28.9615 4.57819 29.2359 4.13875C29.5102 3.69931 29.3754 3.12158 28.9357 2.84737C25.3646 0.625538 21.0831 -0.345928 16.8777 0.109922C12.6091 0.573976 8.58189 2.50402 5.53954 5.54497C-1.84651 12.9276 -1.84651 24.9391 5.53954 32.3218C9.23257 36.0131 14.0839 37.8588 18.9341 37.8588C22.6295 37.8588 26.3248 36.7865 29.509 34.6444L31.8175 36.9518C31.4705 37.3186 31.4763 37.8975 31.8362 38.2572C32.0191 38.44 32.2595 38.5314 32.4998 38.5314C32.7402 38.5314 32.9629 38.4447 33.1423 38.2748L41.8238 46.9524C42.5226 47.6508 43.4406 48 44.3621 48C45.2836 48 46.2238 47.6438 46.9343 46.9348C48.3482 45.5215 48.3564 43.2306 46.9519 41.8267V41.8255ZM31.4447 33.9261L33.9207 31.4511L35.6195 33.1491L33.1435 35.6241L31.4447 33.9261ZM45.6083 45.6071C44.926 46.2903 43.8228 46.2973 43.151 45.6258L34.4706 36.9494L36.9467 34.4745L45.6271 43.1509C46.2988 43.8235 46.2918 44.9251 45.6083 45.6071Z" fill="#184168"/>
<path d="M32.3492 5.56602L32.3292 5.54609C31.9634 5.17931 31.3702 5.17696 31.0033 5.54141C30.6363 5.90585 30.634 6.49998 30.9986 6.86677L31.0232 6.89138C31.2061 7.07419 31.4464 7.16559 31.6868 7.16559C31.9271 7.16559 32.1663 7.07419 32.3503 6.89138C32.7161 6.52576 32.7161 5.93163 32.3503 5.56602H32.3492Z" fill="#184168"/>
<path d="M18.9376 4.5C10.9747 4.5 4.49609 10.9757 4.49609 18.9349C4.49609 26.8941 10.9747 33.3698 18.9376 33.3698C26.9005 33.3698 33.3791 26.8941 33.3791 18.9349C33.3791 10.9757 26.9005 4.5 18.9376 4.5ZM18.9376 31.4948C12.0088 31.4948 6.37192 25.8605 6.37192 18.9349C6.37192 12.0092 12.0088 6.37496 18.9376 6.37496C25.8664 6.37496 31.5033 12.0092 31.5033 18.9349C31.5033 25.8605 25.8664 31.4948 18.9376 31.4948Z" fill="#184168"/>
<path d="M22.5027 17.7116C23.0877 16.9522 23.4359 16.003 23.4359 14.9741V13.746C23.4359 11.2652 21.4171 9.24609 18.9351 9.24609C16.4532 9.24609 14.4343 11.2652 14.4343 13.746V14.9741C14.4343 16.003 14.7825 16.9534 15.3675 17.7116C12.385 18.274 10.1211 20.8955 10.1211 24.0372V24.5212C10.1211 25.0391 10.5408 25.4587 11.059 25.4587H26.8136C27.3318 25.4587 27.7515 25.0391 27.7515 24.5212V24.0372C27.7515 20.8955 25.4876 18.2729 22.505 17.7116H22.5027ZM16.309 13.746C16.309 12.2988 17.4872 11.1222 18.9339 11.1222C20.3807 11.1222 21.5601 12.2999 21.5601 13.746V14.9741C21.5601 16.4213 20.3818 17.5991 18.9339 17.5991C17.486 17.5991 16.309 16.4213 16.309 14.9741V13.746ZM12.0168 23.5849C12.2455 21.2798 14.1963 19.4728 16.561 19.4728H21.3057C23.6716 19.4728 25.6224 21.2798 25.8499 23.5849H12.0157H12.0168Z" fill="#184168"/>
</svg>
