<svg width="180" height="54" viewBox="0 0 180 54" fill="none" xmlns="http://www.w3.org/2000/svg">
<path d="M75.5425 4.78293C75.5425 3.98002 74.8971 3.32812 74.1022 3.32812H73.2891V13.1876H75.5425V9.0037H77.7047V6.8307H75.5425V4.78661V4.78293Z" fill="white"/>
<path d="M74.7906 14.3931C74.426 14.0763 73.9848 13.8259 73.478 13.6565C72.9784 13.4871 72.4205 13.4023 71.8298 13.4023H66.8417C66.2473 13.4023 65.6931 13.4871 65.1936 13.6565C64.6904 13.8259 64.2492 14.0727 63.8809 14.3931C63.5163 14.7172 63.2245 15.1076 63.0167 15.5532C62.8089 16.0026 62.7031 16.5145 62.7031 17.0707C62.7031 17.6268 62.8089 18.1387 63.0167 18.5881C63.2209 19.0374 63.5126 19.4278 63.8809 19.7482C64.2492 20.0687 64.6904 20.3154 65.1936 20.4848C65.6931 20.6506 66.2473 20.739 66.8417 20.739H71.8298C72.4242 20.739 72.9784 20.6543 73.478 20.4848C73.9812 20.3154 74.4224 20.0687 74.7906 19.7482C75.1589 19.4278 75.4506 19.0374 75.6548 18.5881C75.8627 18.1387 75.9648 17.6268 75.9648 17.0707C75.9648 16.5145 75.8627 16.0026 75.6548 15.5532C75.4506 15.1039 75.1589 14.7135 74.7906 14.3894V14.3931ZM73.7113 17.0743C73.7113 17.5789 73.54 17.9509 73.1826 18.2087C72.8143 18.4739 72.3184 18.6065 71.7168 18.6065H66.9511C66.3494 18.6065 65.8572 18.4702 65.4853 18.2087C65.1279 17.9546 64.9529 17.5826 64.9529 17.0743C64.9529 16.5661 65.1316 16.1904 65.4853 15.94C65.8535 15.6748 66.3458 15.5422 66.9511 15.5422H71.7168C72.3184 15.5422 72.8107 15.6748 73.1826 15.94C73.5327 16.1904 73.7113 16.5734 73.7113 17.0743Z" fill="white"/>
<path d="M69.0328 10.2818C69.3391 10.1456 69.598 9.99455 69.8058 9.82881C70.0173 9.66308 70.1923 9.47156 70.3236 9.25794C70.4549 9.04801 70.5533 8.79756 70.6117 8.51765C70.67 8.2451 70.6992 7.92836 70.6992 7.58216V3.78125H61.835V5.91374H68.4494V7.25068C68.4494 7.62267 68.402 7.89522 68.3072 8.05359C68.2124 8.21196 68.0374 8.35928 67.7821 8.48819C67.3118 8.7239 66.8086 8.9633 66.2835 9.19901C65.7694 9.43105 65.2115 9.67413 64.6244 9.92089C64.052 10.164 63.4722 10.4034 62.8888 10.6465L62.5023 10.8048C62.0501 10.9927 61.6016 11.1768 61.1604 11.361L61 11.4273L61.8788 13.2909L62.021 13.2356C63.1878 12.7826 64.3874 12.2928 65.5907 11.7882C66.7976 11.2763 67.9572 10.7717 69.0292 10.2818H69.0328Z" fill="white"/>
<path d="M82.9873 15.8288H85.2407V12.8161H90.1887V10.6836H78.5898V12.8161H82.9873V15.8288Z" fill="white"/>
<path d="M87.0898 15.7326H91.1518V17.1211H93.4053V4.7903C93.4053 3.98371 92.7562 3.32812 91.9577 3.32812H91.1518V13.6738H87.0898V15.7289V15.7326Z" fill="white"/>
<path d="M80.6215 9.27346C81.0554 9.57547 81.5951 9.81487 82.2259 9.98429C82.8531 10.15 83.5969 10.2347 84.4465 10.2347C85.2961 10.2347 86.0254 10.15 86.6562 9.98429C87.2943 9.81855 87.8376 9.57915 88.2715 9.27346C88.7127 8.96776 89.0409 8.59946 89.2487 8.18696C89.4675 7.75973 89.5805 7.29198 89.5805 6.79845C89.5805 6.30492 89.4711 5.84086 89.2596 5.42099C89.0445 5.00112 88.7127 4.63282 88.2715 4.32344C87.8412 4.02143 87.2979 3.77835 86.6598 3.60525C86.0254 3.43214 85.2815 3.34375 84.4465 3.34375C83.6115 3.34375 82.8531 3.43214 82.2259 3.60525C81.5914 3.77835 81.0518 4.02143 80.6215 4.32344C80.1803 4.62913 79.8485 5.00112 79.637 5.42099C79.4219 5.84086 79.3125 6.30492 79.3125 6.79845C79.3125 7.29198 79.4219 7.75604 79.637 8.17591C79.8522 8.59578 80.184 8.96776 80.6215 9.27346ZM81.5659 6.79845C81.5659 6.44488 81.792 6.12813 82.2405 5.85559C82.7182 5.56463 83.4584 5.42099 84.4465 5.42099C85.4347 5.42099 86.1749 5.56831 86.6525 5.85559C87.1047 6.12813 87.3307 6.44488 87.3307 6.79845C87.3307 7.15202 87.1047 7.46508 86.6562 7.73026C86.1785 8.01386 85.4383 8.15749 84.4501 8.15749C83.462 8.15749 82.7218 8.01386 82.2441 7.73026C81.7956 7.46508 81.5696 7.15202 81.5696 6.79845H81.5659Z" fill="white"/>
<path d="M82.6909 18.5804V15.3945H80.4375V20.6171H93.7903V18.5804H82.6909Z" fill="white"/>
<path d="M71.2237 34.2075C70.4871 33.2094 69.8198 32.226 69.2364 31.2869C69.0723 31.018 68.9593 30.6939 68.8864 30.3182C68.8135 29.9315 68.777 29.5411 68.777 29.1654V26.8083H72.5473V24.6758H62.5199V26.8083H66.4907V29.2243C66.4907 29.6037 66.4506 29.9941 66.3741 30.3845C66.2975 30.7675 66.1772 31.099 66.0167 31.3679C65.7287 31.8393 65.4078 32.3365 65.0614 32.8485C64.7223 33.3457 64.3577 33.8613 63.9748 34.3769C63.5737 34.9147 63.1799 35.4266 62.8043 35.898C62.4361 36.3584 62.0532 36.8335 61.6302 37.3528L61.5391 37.4633L62.9465 38.9992L63.0231 39.0802L63.1434 38.9329C64.0477 37.8206 64.8536 36.8225 65.6083 35.8796C66.3668 34.9404 67.0523 34.0049 67.6539 33.1026C68.2519 33.9939 68.901 34.8778 69.5828 35.7323C70.3157 36.6531 71.0997 37.6401 71.9383 38.6935L72.0587 38.8445L73.5391 37.2276L73.4479 37.1134C72.7114 36.1927 71.9602 35.213 71.2164 34.2038L71.2237 34.2075Z" fill="white"/>
<path d="M75.3173 23.8164H74.5078V41.263H76.7612V25.2786C76.7612 24.472 76.1122 23.8201 75.3136 23.8201L75.3173 23.8164Z" fill="white"/>
<path d="M80.7344 36.6676H91.3743V41.3046H93.6277V34.5352H80.7344V36.6676Z" fill="white"/>
<path d="M92.1785 23.8989H91.3727V25.5194H88.0144C87.5769 24.9817 87.0263 24.5582 86.3773 24.2525C85.7063 23.9357 84.9443 23.7773 84.1092 23.7773C83.3909 23.7773 82.7164 23.8989 82.1074 24.142C81.4985 24.385 80.9661 24.7313 80.5286 25.1659C80.091 25.6041 79.741 26.1271 79.493 26.7164C79.2451 27.3094 79.1211 27.9539 79.1211 28.639C79.1211 29.324 79.2451 29.9685 79.493 30.5615C79.741 31.1545 80.091 31.6775 80.5286 32.1121C80.9698 32.5504 81.4985 32.8966 82.1074 33.136C82.7164 33.3791 83.3873 33.5006 84.1092 33.5006C84.8932 33.5006 85.6152 33.357 86.2533 33.077C86.8695 32.8082 87.4055 32.4288 87.8394 31.9574H91.369V33.9094H93.6188V25.3611C93.6188 24.5545 92.9698 23.9026 92.1712 23.9026L92.1785 23.8989ZM89.0974 28.639C89.0974 28.3038 89.0609 27.965 88.9917 27.6335H91.3727V29.8433H88.9625C88.9989 29.685 89.0318 29.5266 89.0536 29.3682C89.0828 29.1399 89.101 28.8968 89.101 28.6426L89.0974 28.639ZM86.844 28.639C86.844 29.0478 86.782 29.4271 86.6507 29.7623C86.5231 30.0975 86.3408 30.3921 86.0928 30.6352C85.8668 30.8783 85.5824 31.0661 85.2469 31.2024C84.9114 31.3386 84.5249 31.4049 84.1092 31.4049C83.6936 31.4049 83.3071 31.3386 82.9716 31.2024C82.6398 31.0698 82.3481 30.8783 82.1147 30.6352C81.8777 30.3921 81.699 30.0975 81.5714 29.7623C81.4438 29.4271 81.3782 29.0478 81.3782 28.639C81.3782 28.2301 81.4438 27.8508 81.5714 27.5156C81.6954 27.1805 81.8777 26.8895 82.1147 26.6428C82.3517 26.3997 82.6398 26.2082 82.9716 26.0756C83.3107 25.943 83.6936 25.873 84.1092 25.873C84.5249 25.873 84.9114 25.943 85.2469 26.0756C85.5787 26.2082 85.8704 26.3997 86.1038 26.6428C86.3408 26.8858 86.5195 27.1805 86.6471 27.5156C86.7747 27.8508 86.8403 28.2301 86.8403 28.639H86.844Z" fill="white"/>
<path d="M97.7461 37.3531H108.368V41.3014H110.618V35.3164H97.7461V37.3531Z" fill="white"/>
<path d="M102.565 34.4635C103.645 34.4635 104.527 34.1799 105.176 33.6201C105.832 33.0566 106.164 32.2279 106.164 31.1672C106.164 30.1065 105.832 29.2778 105.176 28.7106C104.523 28.1508 103.645 27.8672 102.565 27.8672H100.071C98.992 27.8672 98.1132 28.1508 97.4605 28.7106C96.8042 29.2741 96.4688 30.1028 96.4688 31.1635C96.4688 32.2242 96.8042 33.0529 97.4605 33.6164C98.1096 34.1762 98.9884 34.4598 100.071 34.4598H102.565V34.4635ZM103.801 30.5742C103.874 30.7326 103.915 30.9315 103.915 31.1672C103.915 31.4029 103.874 31.6018 103.801 31.7602C103.725 31.9185 103.626 32.0401 103.495 32.1358C103.36 32.2353 103.2 32.3016 103.021 32.3421C102.832 32.3863 102.624 32.4084 102.401 32.4084H100.243C100.02 32.4084 99.8124 32.3863 99.6228 32.3421C99.4441 32.3016 99.2837 32.2353 99.1451 32.1358C99.0139 32.0438 98.9118 31.9185 98.8389 31.7602C98.7623 31.6018 98.7295 31.4029 98.7295 31.1672C98.7295 30.7105 98.868 30.3864 99.1379 30.2133C99.4368 30.0218 99.8051 29.926 100.243 29.926H102.401C102.624 29.926 102.832 29.9481 103.021 29.9886C103.2 30.0291 103.36 30.0991 103.495 30.1986C103.623 30.2906 103.729 30.4195 103.801 30.5742Z" fill="white"/>
<path d="M106.663 25.1493H102.488V24.9468C102.488 24.1402 101.839 23.4883 101.044 23.4883H100.235V25.1493H96.0234V27.2818H106.663V25.1493Z" fill="white"/>
<path d="M109.174 23.8164H108.368V27.7278H106.578V29.8014H108.368V31.1309H106.578V33.2045H108.368V34.7845H110.618V25.2749C110.618 24.4683 109.969 23.8164 109.174 23.8164Z" fill="white"/>
<path d="M127.613 25.2358C127.613 24.4329 126.967 23.7773 126.169 23.7773H125.359V36.587H127.613V25.2358Z" fill="white"/>
<path d="M116.374 32.2648C116.801 31.8817 117.217 31.5024 117.603 31.1377C117.942 30.821 118.252 30.5116 118.529 30.228C118.81 30.5116 119.124 30.8063 119.459 31.112C119.853 31.4729 120.258 31.8302 120.663 32.18C121.085 32.552 121.498 32.9019 121.88 33.226C122.281 33.5649 122.657 33.8743 123.003 34.1505L123.135 34.2536L124.422 32.5226L124.294 32.4194C123.554 31.8302 122.803 31.1893 122.059 30.519C121.319 29.8524 120.648 29.2005 120.065 28.5817C119.908 28.4197 119.806 28.2466 119.751 28.0698C119.693 27.8856 119.667 27.6683 119.667 27.4252V24.1289H117.377V27.4252C117.377 27.6683 117.348 27.8819 117.293 28.0587C117.239 28.2281 117.133 28.4049 116.976 28.5817C116.703 28.8874 116.385 29.2226 116.032 29.5725C115.693 29.915 115.324 30.2685 114.938 30.6221C114.588 30.9462 114.201 31.2961 113.786 31.6681C113.403 32.0106 113.02 32.3421 112.652 32.6552L112.531 32.7583L113.76 34.3678L113.822 34.4488L113.953 34.3383C114.3 34.051 114.686 33.7269 115.102 33.3697C115.514 33.0198 115.941 32.6441 116.371 32.2648H116.374Z" fill="white"/>
<path d="M117.156 34.9102H114.906V41.0719H128V38.9394H117.156V34.9102Z" fill="white"/>
<path d="M144.702 29.2288C144.702 28.4259 144.053 27.7703 143.255 27.7703H142.223V25.7778H144.33V25.1811C144.33 24.3746 143.681 23.7227 142.886 23.7227H131.145V25.7778H133.213V27.7703H130.773V29.8255H144.702V29.2288ZM139.973 25.7778V27.7703H135.466V25.7778H139.973Z" fill="white"/>
<path d="M145.865 30.6797H129.609V32.698H145.865V30.6797Z" fill="white"/>
<path d="M133.432 38.4287H144.294V33.5781H131.164V35.5964H142.041V36.4546H131.182V41.3052H144.663V39.2905H133.432V38.4287Z" fill="white"/>
<path d="M158.333 29.8976H160.123V35.2748H162.377V25.2827C162.377 24.4761 161.728 23.8242 160.933 23.8242H160.127V27.7651H158.337V25.4816C158.337 24.6787 157.688 24.0231 156.889 24.0231H156.102V33.9489H158.337V29.9012L158.333 29.8976Z" fill="white"/>
<path d="M162.028 38.9289C161.583 38.7374 161.127 38.5312 160.664 38.3249C160.223 38.126 159.771 37.9161 159.319 37.6988C158.878 37.4888 158.495 37.2973 158.148 37.1132C157.93 37.0027 157.751 36.8848 157.623 36.767C157.496 36.6491 157.394 36.5239 157.324 36.3987C157.255 36.2734 157.208 36.1372 157.186 35.9935C157.164 35.8462 157.153 35.6657 157.153 35.4632V34.7266H154.827V35.4632C154.827 35.8499 154.761 36.1703 154.641 36.4134C154.52 36.6491 154.247 36.8848 153.824 37.1132C153.474 37.2936 153.087 37.4852 152.646 37.6988C152.194 37.9161 151.745 38.126 151.312 38.3212C150.83 38.5385 150.371 38.7411 149.937 38.9252C149.485 39.1204 149.062 39.2972 148.683 39.4519L148.504 39.5256L149.62 41.3781L149.751 41.3266C150.549 41.0062 151.432 40.6342 152.369 40.218C153.295 39.8092 154.178 39.3967 154.991 38.9915C155.206 38.8847 155.403 38.7669 155.578 38.6453C155.709 38.5532 155.848 38.4501 155.99 38.347C156.125 38.4501 156.263 38.5496 156.402 38.6453C156.577 38.7669 156.774 38.8847 156.989 38.9915C157.806 39.3967 158.688 39.8092 159.607 40.218C160.526 40.6268 161.408 40.9988 162.229 41.3266L162.356 41.3781L163.476 39.5219L163.293 39.4482C162.878 39.2825 162.455 39.1057 162.032 38.9216L162.028 38.9289Z" fill="white"/>
<path d="M147.323 28.0048V33.9308H155.323V31.8352H149.558V30.06H154.656V24.1523H147.305V26.248H152.42V28.0048H147.323Z" fill="white"/>
<path d="M172.87 32.0921V30.9209H178.686V30.2874C178.686 29.4845 178.037 28.8289 177.242 28.8289H176.211V25.9746H178.318V25.3411C178.318 24.5345 177.669 23.8789 176.874 23.8789H165.129V25.9746H167.2V28.8289H164.765V30.9246H170.581V32.0958H163.602V34.2283H179.857V32.0958H172.874L172.87 32.0921ZM169.454 28.8252V25.9709H173.961V28.8252H169.454Z" fill="white"/>
<path d="M165.168 41.1023H178.28V35.0547H165.168V41.1023ZM176.03 37.1503V38.9661H167.421V37.1503H176.03Z" fill="white"/>
<path d="M65.7393 48.9978C65.5643 49.2261 65.3236 49.3992 65.0173 49.5171C64.7074 49.6349 64.3573 49.6939 63.9672 49.6939C63.577 49.6939 63.2088 49.6018 62.8988 49.4176C62.5889 49.2335 62.3482 48.9683 62.1805 48.6258C62.0128 48.2833 61.9253 47.8818 61.918 47.4251V47.0458C61.918 46.3128 62.093 45.7383 62.4394 45.3258C62.7858 44.9133 63.2744 44.707 63.8943 44.707C64.4303 44.707 64.8532 44.8396 65.1705 45.1085C65.4841 45.3773 65.6737 45.7604 65.7393 46.265H64.9189C64.8277 45.6794 64.4923 45.3884 63.9125 45.3884C63.5369 45.3884 63.2525 45.5247 63.0593 45.7972C62.866 46.0698 62.7639 46.4675 62.7566 46.9942V47.3662C62.7566 47.8892 62.866 48.298 63.0848 48.589C63.3036 48.8799 63.6099 49.0236 63.9964 49.0236C64.423 49.0236 64.7256 48.9278 64.9079 48.7289V47.7787H63.9161V47.1378H65.7393V48.9978Z" fill="white"/>
<path d="M68.7149 49.6327C68.6784 49.5627 68.6492 49.4522 68.6237 49.2939C68.3685 49.5627 68.0549 49.699 67.6866 49.699C67.3183 49.699 67.0339 49.5959 66.8079 49.3896C66.5818 49.1834 66.4688 48.9256 66.4688 48.6236C66.4688 48.2405 66.611 47.9422 66.8917 47.7396C67.1761 47.5334 67.5809 47.4303 68.1059 47.4303H68.5982V47.1945C68.5982 47.0067 68.5471 46.8594 68.4414 46.7452C68.3393 46.6347 68.1789 46.5758 67.971 46.5758C67.7887 46.5758 67.6392 46.62 67.5225 46.7157C67.4059 46.8078 67.3475 46.9257 67.3475 47.0656H66.5453C66.5453 46.8667 66.611 46.6826 66.7386 46.5095C66.8698 46.3364 67.0449 46.2001 67.2673 46.1044C67.4897 46.0086 67.7413 45.957 68.0148 45.957C68.4341 45.957 68.7659 46.0638 69.0139 46.2775C69.2618 46.4911 69.3894 46.7894 69.3967 47.1724V48.8003C69.3967 49.1245 69.4405 49.386 69.5317 49.5775V49.6327H68.7112H68.7149ZM67.8325 49.0508C67.9893 49.0508 68.1388 49.0103 68.281 48.9329C68.4195 48.8556 68.5253 48.7488 68.5945 48.6199V47.9385H68.1606C67.8616 47.9385 67.6392 47.9901 67.4897 48.0932C67.3402 48.1963 67.2636 48.3473 67.2636 48.5352C67.2636 48.6899 67.3147 48.8151 67.4168 48.9072C67.5189 48.9992 67.6574 49.0471 67.8288 49.0471L67.8325 49.0508Z" fill="white"/>
<path d="M70.9814 46.0233L71.0032 46.4395C71.2658 46.1154 71.6158 45.957 72.0424 45.957C72.7863 45.957 73.1655 46.3879 73.1801 47.2498V49.6364H72.3779V47.2977C72.3779 47.0693 72.3305 46.8999 72.232 46.7894C72.1336 46.6789 71.9731 46.6237 71.7507 46.6237C71.4262 46.6237 71.1855 46.771 71.0288 47.0656V49.6327H70.2266V46.0233H70.9814Z" fill="white"/>
<path d="M73.8591 47.8022C73.8591 47.2424 73.9904 46.7931 74.2493 46.4579C74.5118 46.1228 74.8546 45.957 75.2885 45.957C75.6969 45.957 76.0177 46.1007 76.2511 46.3879L76.2876 46.0233H77.0095V49.5222C77.0095 49.9973 76.8637 50.3693 76.572 50.6419C76.2803 50.9144 75.8865 51.0507 75.3906 51.0507C75.128 51.0507 74.8728 50.9954 74.6212 50.8849C74.3732 50.7745 74.18 50.6308 74.0524 50.454L74.4316 49.9679C74.6795 50.2625 74.9822 50.4098 75.3432 50.4098C75.6093 50.4098 75.8208 50.3362 75.974 50.1925C76.1271 50.0489 76.2037 49.8316 76.2037 49.5517V49.3086C75.974 49.5701 75.664 49.699 75.2775 49.699C74.8582 49.699 74.5191 49.5296 74.2529 49.1944C73.9867 48.8593 73.8555 48.3952 73.8555 47.7986L73.8591 47.8022ZM74.6577 47.8722C74.6577 48.2332 74.7306 48.5204 74.8764 48.7267C75.0223 48.9329 75.2265 49.0397 75.4854 49.0397C75.8099 49.0397 76.0505 48.8998 76.2037 48.6199V47.0325C76.0505 46.7599 75.8135 46.6237 75.489 46.6237C75.2228 46.6237 75.0186 46.7305 74.8728 46.9404C74.7269 47.1503 74.654 47.4634 74.654 47.8759L74.6577 47.8722Z" fill="white"/>
<path d="M80.9739 48.513L81.5427 46.0195H82.3267L81.3531 49.6289H80.6931L79.9274 47.1502L79.1763 49.6289H78.5163L77.5391 46.0195H78.323L78.8991 48.4835L79.632 46.0195H80.2373L80.9812 48.513H80.9739Z" fill="white"/>
<path d="M82.7068 47.7949C82.7068 47.4413 82.7761 47.1246 82.9146 46.841C83.0532 46.5574 83.2501 46.3401 83.498 46.1854C83.7496 46.0344 84.0377 45.957 84.3622 45.957C84.8435 45.957 85.2373 46.1154 85.5363 46.4285C85.8353 46.7415 85.9994 47.1577 86.0213 47.677V47.8685C86.0213 48.2258 85.9556 48.5425 85.8207 48.8224C85.6858 49.1024 85.4926 49.3197 85.241 49.4743C84.9894 49.629 84.6977 49.7027 84.3695 49.7027C83.8663 49.7027 83.4616 49.5333 83.1589 49.1944C82.8563 48.8556 82.7031 48.4026 82.7031 47.8391V47.7986L82.7068 47.7949ZM83.509 47.8649C83.509 48.2368 83.5855 48.5278 83.7387 48.7377C83.8882 48.9477 84.0997 49.0508 84.3731 49.0508C84.6466 49.0508 84.8544 48.944 85.0039 48.7304C85.1534 48.5168 85.23 48.2037 85.23 47.7912C85.23 47.4266 85.1534 47.1393 84.9967 46.9257C84.8399 46.7121 84.632 46.6052 84.3658 46.6052C84.0997 46.6052 83.8955 46.7121 83.7423 46.922C83.5892 47.1319 83.5126 47.445 83.5126 47.8649H83.509Z" fill="white"/>
<path d="M87.454 46.0233L87.4759 46.4395C87.7384 46.1154 88.0848 45.957 88.5151 45.957C89.2589 45.957 89.6381 46.3879 89.6527 47.2498V49.6364H88.8505V47.2977C88.8505 47.0693 88.8031 46.8999 88.7047 46.7894C88.6062 46.6789 88.4458 46.6237 88.2234 46.6237C87.8989 46.6237 87.6582 46.771 87.5014 47.0656V49.6327H86.6992V46.0233H87.454Z" fill="white"/>
<path d="M93.9992 47.7602H93.0694V49.6275H92.2344V44.7695H93.9263C94.4805 44.7695 94.9108 44.8948 95.2098 45.1452C95.5124 45.3957 95.6619 45.7603 95.6619 46.2354C95.6619 46.5595 95.5853 46.832 95.4285 47.053C95.2717 47.2703 95.0566 47.4397 94.7795 47.5576L95.8588 49.5796V49.6238H94.9618L93.9992 47.7565V47.7602ZM93.0694 47.0788H93.9263C94.207 47.0788 94.4295 47.0088 94.5862 46.8652C94.7467 46.7215 94.8233 46.5263 94.8233 46.2759C94.8233 46.0255 94.7503 45.8155 94.6045 45.6719C94.4586 45.5282 94.2398 45.4546 93.9481 45.4509H93.0657V47.0788H93.0694Z" fill="white"/>
<path d="M97.9523 49.699C97.4455 49.699 97.0298 49.537 96.7162 49.2128C96.399 48.8887 96.2422 48.4578 96.2422 47.9201V47.8207C96.2422 47.4597 96.3115 47.1393 96.45 46.8557C96.5886 46.5721 96.7818 46.3511 97.0298 46.1927C97.2777 46.0344 97.5549 45.957 97.8611 45.957C98.3461 45.957 98.7253 46.1154 98.9879 46.4285C99.254 46.7415 99.3853 47.1872 99.3853 47.758V48.0858H97.0517C97.0772 48.3842 97.1756 48.6199 97.347 48.793C97.5184 48.9661 97.7372 49.0545 97.9997 49.0545C98.368 49.0545 98.667 48.9035 98.8967 48.6051L99.3306 49.0213C99.1884 49.2386 98.9951 49.4044 98.7581 49.5222C98.5175 49.6401 98.2513 49.699 97.9523 49.699ZM97.8575 46.6052C97.6387 46.6052 97.4601 46.6826 97.3251 46.8373C97.1902 46.992 97.1027 47.2093 97.0662 47.4892H98.594V47.4303C98.5758 47.1577 98.5065 46.9551 98.3789 46.8152C98.2549 46.6752 98.0799 46.6052 97.8575 46.6052Z" fill="white"/>
<path d="M99.863 47.8022C99.863 47.2424 99.9943 46.7931 100.253 46.4579C100.516 46.1228 100.858 45.957 101.292 45.957C101.701 45.957 102.022 46.1007 102.255 46.3879L102.291 46.0233H103.013V49.5222C103.013 49.9973 102.868 50.3693 102.576 50.6419C102.284 50.9144 101.89 51.0507 101.394 51.0507C101.132 51.0507 100.877 50.9954 100.625 50.8849C100.377 50.7745 100.184 50.6308 100.056 50.454L100.435 49.9679C100.683 50.2625 100.986 50.4098 101.347 50.4098C101.613 50.4098 101.825 50.3362 101.978 50.1925C102.131 50.0489 102.208 49.8316 102.208 49.5517V49.3086C101.978 49.5701 101.668 49.699 101.281 49.699C100.862 49.699 100.523 49.5296 100.257 49.1944C99.9906 48.8593 99.8594 48.3952 99.8594 47.7986L99.863 47.8022ZM100.662 47.8722C100.662 48.2332 100.734 48.5204 100.88 48.7267C101.026 48.9329 101.23 49.0397 101.489 49.0397C101.814 49.0397 102.054 48.8998 102.208 48.6199V47.0325C102.054 46.7599 101.817 46.6237 101.493 46.6237C101.23 46.6237 101.023 46.7305 100.877 46.9404C100.731 47.1503 100.658 47.4634 100.658 47.8759L100.662 47.8722Z" fill="white"/>
<path d="M103.84 45.0872C103.84 44.9619 103.88 44.8588 103.957 44.7778C104.033 44.6968 104.146 44.6562 104.292 44.6562C104.438 44.6562 104.551 44.6968 104.627 44.7778C104.708 44.8588 104.748 44.9619 104.748 45.0872C104.748 45.2124 104.708 45.3118 104.627 45.3929C104.547 45.4739 104.438 45.5144 104.292 45.5144C104.146 45.5144 104.033 45.4739 103.957 45.3929C103.88 45.3118 103.84 45.2087 103.84 45.0872ZM104.693 49.632H103.891V46.0227H104.693V49.632Z" fill="white"/>
<path d="M105.414 47.7949C105.414 47.4413 105.483 47.1246 105.622 46.841C105.76 46.5574 105.957 46.3401 106.205 46.1854C106.457 46.0344 106.745 45.957 107.069 45.957C107.551 45.957 107.945 46.1154 108.244 46.4285C108.543 46.7415 108.707 47.1577 108.732 47.677V47.8685C108.732 48.2258 108.667 48.5425 108.532 48.8224C108.397 49.1024 108.203 49.3197 107.952 49.4743C107.7 49.629 107.409 49.7027 107.08 49.7027C106.577 49.7027 106.172 49.5333 105.87 49.1944C105.567 48.8556 105.414 48.4026 105.414 47.8391V47.7986V47.7949ZM106.216 47.8649C106.216 48.2368 106.293 48.5278 106.442 48.7377C106.595 48.9477 106.807 49.0508 107.077 49.0508C107.347 49.0508 107.558 48.944 107.708 48.7304C107.857 48.5168 107.934 48.2037 107.934 47.7912C107.934 47.4266 107.857 47.1393 107.7 46.9257C107.544 46.7121 107.336 46.6052 107.066 46.6052C106.796 46.6052 106.595 46.7121 106.442 46.922C106.289 47.1319 106.213 47.445 106.213 47.8649H106.216Z" fill="white"/>
<path d="M110.161 46.0233L110.183 46.4395C110.445 46.1154 110.792 45.957 111.222 45.957C111.966 45.957 112.345 46.3879 112.36 47.2498V49.6364H111.558V47.2977C111.558 47.0693 111.51 46.8999 111.412 46.7894C111.313 46.6789 111.153 46.6237 110.93 46.6237C110.606 46.6237 110.365 46.771 110.208 47.0656V49.6327H109.406V46.0233H110.161Z" fill="white"/>
<path d="M115.316 49.6327C115.28 49.5627 115.251 49.4522 115.225 49.2939C114.97 49.5627 114.656 49.699 114.288 49.699C113.92 49.699 113.635 49.5959 113.409 49.3896C113.183 49.1834 113.07 48.9256 113.07 48.6236C113.07 48.2405 113.213 47.9422 113.493 47.7396C113.778 47.5334 114.182 47.4303 114.708 47.4303H115.2V47.1945C115.2 47.0067 115.149 46.8594 115.043 46.7452C114.941 46.6347 114.784 46.5758 114.573 46.5758C114.39 46.5758 114.241 46.62 114.124 46.7157C114.007 46.8078 113.949 46.9257 113.949 47.0656H113.147C113.147 46.8667 113.213 46.6826 113.344 46.5095C113.475 46.3364 113.65 46.2001 113.873 46.1044C114.095 46.0086 114.347 45.957 114.62 45.957C115.039 45.957 115.371 46.0638 115.623 46.2775C115.871 46.4911 115.998 46.7894 116.006 47.1724V48.8003C116.006 49.1245 116.049 49.386 116.141 49.5775V49.6327H115.32H115.316ZM114.434 49.0508C114.591 49.0508 114.74 49.0103 114.883 48.9329C115.021 48.8556 115.127 48.7488 115.2 48.6199V47.9385H114.766C114.47 47.9385 114.244 47.9901 114.095 48.0932C113.945 48.1963 113.869 48.3473 113.869 48.5352C113.869 48.6899 113.92 48.8151 114.022 48.9072C114.124 48.9992 114.263 49.0471 114.434 49.0471V49.0508Z" fill="white"/>
<path d="M117.693 49.6231H116.891V44.5H117.693V49.6231Z" fill="white"/>
<path d="M121.206 49.6275H120.375V44.7695H121.206V49.6275Z" fill="white"/>
<path d="M122.903 46.0233L122.925 46.4395C123.188 46.1154 123.534 45.957 123.964 45.957C124.708 45.957 125.087 46.3879 125.102 47.2498V49.6364H124.3V47.2977C124.3 47.0693 124.252 46.8999 124.154 46.7894C124.055 46.6789 123.895 46.6237 123.673 46.6237C123.348 46.6237 123.107 46.771 122.951 47.0656V49.6327H122.148V46.0233H122.903Z" fill="white"/>
<path d="M126.661 46.0233L126.683 46.4395C126.945 46.1154 127.292 45.957 127.722 45.957C128.466 45.957 128.845 46.3879 128.86 47.2498V49.6364H128.058V47.2977C128.058 47.0693 128.01 46.8999 127.912 46.7894C127.813 46.6789 127.653 46.6237 127.43 46.6237C127.106 46.6237 126.865 46.771 126.708 47.0656V49.6327H125.906V46.0233H126.661Z" fill="white"/>
<path d="M129.531 47.7949C129.531 47.4413 129.6 47.1246 129.739 46.841C129.877 46.5574 130.071 46.3401 130.322 46.1854C130.574 46.0344 130.862 45.957 131.186 45.957C131.668 45.957 132.062 46.1154 132.361 46.4285C132.66 46.7415 132.824 47.1577 132.849 47.677V47.8685C132.849 48.2258 132.783 48.5425 132.649 48.8224C132.514 49.1024 132.32 49.3197 132.069 49.4743C131.817 49.629 131.526 49.7027 131.194 49.7027C130.691 49.7027 130.286 49.5333 129.983 49.1944C129.68 48.8556 129.527 48.4026 129.527 47.8391V47.7986L129.531 47.7949ZM130.333 47.8649C130.333 48.2368 130.41 48.5278 130.559 48.7377C130.709 48.9477 130.924 49.0508 131.194 49.0508C131.464 49.0508 131.675 48.944 131.825 48.7304C131.974 48.5168 132.051 48.2037 132.051 47.7912C132.051 47.4266 131.974 47.1393 131.817 46.9257C131.66 46.7121 131.453 46.6052 131.183 46.6052C130.913 46.6052 130.712 46.7121 130.559 46.922C130.406 47.1319 130.33 47.445 130.33 47.8649H130.333Z" fill="white"/>
<path d="M134.742 48.6014L135.5 46.0195H136.328L135.088 49.6289H134.392L133.145 46.0195H133.976L134.742 48.6014Z" fill="white"/>
<path d="M138.91 49.6327C138.874 49.5627 138.845 49.4522 138.819 49.2939C138.564 49.5627 138.25 49.699 137.882 49.699C137.514 49.699 137.229 49.5959 137.003 49.3896C136.777 49.1834 136.664 48.9256 136.664 48.6236C136.664 48.2405 136.806 47.9422 137.087 47.7396C137.371 47.5334 137.776 47.4303 138.301 47.4303H138.794V47.1945C138.794 47.0067 138.742 46.8594 138.637 46.7452C138.535 46.6347 138.378 46.5758 138.166 46.5758C137.984 46.5758 137.835 46.62 137.718 46.7157C137.601 46.8078 137.543 46.9257 137.543 47.0656H136.741C136.741 46.8667 136.806 46.6826 136.938 46.5095C137.069 46.3364 137.244 46.2001 137.466 46.1044C137.689 46.0086 137.94 45.957 138.214 45.957C138.633 45.957 138.965 46.0638 139.216 46.2775C139.464 46.4911 139.592 46.7894 139.599 47.1724V48.8003C139.599 49.1245 139.643 49.386 139.734 49.5775V49.6327H138.914H138.91ZM138.028 49.0508C138.185 49.0508 138.334 49.0103 138.476 48.9329C138.615 48.8556 138.721 48.7488 138.794 48.6199V47.9385H138.36C138.064 47.9385 137.838 47.9901 137.689 48.0932C137.539 48.1963 137.463 48.3473 137.463 48.5352C137.463 48.6899 137.514 48.8151 137.616 48.9072C137.718 48.9992 137.856 49.0471 138.028 49.0471V49.0508Z" fill="white"/>
<path d="M141.44 45.1445V46.0211H142.071V46.6214H141.44V48.6361C141.44 48.776 141.465 48.8718 141.52 48.9344C141.575 48.997 141.669 49.0265 141.808 49.0265C141.899 49.0265 141.994 49.0154 142.089 48.9933V49.6194C141.906 49.671 141.731 49.6968 141.56 49.6968C140.944 49.6968 140.634 49.3543 140.634 48.6655V46.6214H140.047V46.0211H140.634V45.1445H141.436H141.44Z" fill="white"/>
<path d="M142.688 45.0872C142.688 44.9619 142.728 44.8588 142.804 44.7778C142.881 44.6968 142.994 44.6562 143.14 44.6562C143.285 44.6562 143.399 44.6968 143.475 44.7778C143.555 44.8588 143.595 44.9619 143.595 45.0872C143.595 45.2124 143.555 45.3118 143.475 45.3929C143.395 45.4739 143.285 45.5144 143.14 45.5144C142.994 45.5144 142.884 45.4739 142.804 45.3929C142.728 45.3118 142.688 45.2087 142.688 45.0872ZM143.541 49.632H142.739V46.0227H143.541V49.632Z" fill="white"/>
<path d="M144.261 47.7949C144.261 47.4413 144.331 47.1246 144.469 46.841C144.608 46.5574 144.801 46.3401 145.053 46.1854C145.304 46.0344 145.592 45.957 145.917 45.957C146.398 45.957 146.792 46.1154 147.091 46.4285C147.39 46.7415 147.554 47.1577 147.58 47.677V47.8685C147.58 48.2258 147.514 48.5425 147.379 48.8224C147.244 49.1024 147.051 49.3197 146.799 49.4743C146.548 49.629 146.256 49.7027 145.924 49.7027C145.421 49.7027 145.016 49.5333 144.714 49.1944C144.411 48.8556 144.258 48.4026 144.258 47.8391V47.7986L144.261 47.7949ZM145.064 47.8649C145.064 48.2368 145.14 48.5278 145.29 48.7377C145.443 48.9477 145.654 49.0508 145.924 49.0508C146.194 49.0508 146.405 48.944 146.555 48.7304C146.704 48.5168 146.781 48.2037 146.781 47.7912C146.781 47.4266 146.704 47.1393 146.548 46.9257C146.391 46.7121 146.183 46.6052 145.913 46.6052C145.643 46.6052 145.443 46.7121 145.29 46.922C145.137 47.1319 145.06 47.445 145.06 47.8649H145.064Z" fill="white"/>
<path d="M149.005 46.0233L149.027 46.4395C149.289 46.1154 149.636 45.957 150.066 45.957C150.81 45.957 151.189 46.3879 151.204 47.2498V49.6364H150.401V47.2977C150.401 47.0693 150.354 46.8999 150.255 46.7894C150.157 46.6789 149.997 46.6237 149.774 46.6237C149.45 46.6237 149.209 46.771 149.052 47.0656V49.6327H148.25V46.0233H149.005Z" fill="white"/>
<path d="M154.624 47.8265V49.6275H153.789V44.7695H155.627C156.163 44.7695 156.589 44.9095 156.907 45.1931C157.224 45.4767 157.381 45.8487 157.381 46.3164C157.381 46.7842 157.228 47.1635 156.918 47.4287C156.608 47.6939 156.174 47.8265 155.62 47.8265H154.624ZM154.624 47.1451H155.627C155.926 47.1451 156.152 47.0751 156.309 46.9315C156.465 46.7915 156.542 46.5853 156.542 46.3201C156.542 46.0549 156.462 45.8487 156.305 45.6903C156.145 45.5356 155.929 45.4546 155.652 45.4472H154.624V47.1414V47.1451Z" fill="white"/>
<path d="M158.884 49.6231H158.082V44.5H158.884V49.6231Z" fill="white"/>
<path d="M161.895 49.6327C161.858 49.5627 161.829 49.4522 161.803 49.2939C161.548 49.5627 161.235 49.699 160.866 49.699C160.498 49.699 160.214 49.5959 159.988 49.3896C159.761 49.1834 159.648 48.9256 159.648 48.6236C159.648 48.2405 159.791 47.9422 160.071 47.7396C160.356 47.5334 160.761 47.4303 161.286 47.4303H161.778V47.1945C161.778 47.0067 161.727 46.8594 161.621 46.7452C161.519 46.6347 161.359 46.5758 161.151 46.5758C160.968 46.5758 160.819 46.62 160.702 46.7157C160.586 46.8078 160.527 46.9257 160.527 47.0656H159.725C159.725 46.8667 159.791 46.6826 159.922 46.5095C160.053 46.3364 160.228 46.2001 160.451 46.1044C160.673 46.0086 160.925 45.957 161.198 45.957C161.617 45.957 161.949 46.0638 162.201 46.2775C162.449 46.4911 162.576 46.7894 162.584 47.1724V48.8003C162.584 49.1245 162.627 49.386 162.719 49.5775V49.6327H161.898H161.895ZM161.012 49.0508C161.169 49.0508 161.318 49.0103 161.461 48.9329C161.599 48.8556 161.705 48.7488 161.778 48.6199V47.9385H161.344C161.049 47.9385 160.823 47.9901 160.673 48.0932C160.524 48.1963 160.447 48.3473 160.447 48.5352C160.447 48.6899 160.498 48.8151 160.6 48.9072C160.702 48.9992 160.841 49.0471 161.012 49.0471V49.0508Z" fill="white"/>
<path d="M164.424 45.1445V46.0211H165.055V46.6214H164.424V48.6361C164.424 48.776 164.453 48.8718 164.504 48.9344C164.559 48.997 164.654 49.0265 164.792 49.0265C164.884 49.0265 164.978 49.0154 165.073 48.9933V49.6194C164.891 49.671 164.716 49.6968 164.544 49.6968C163.928 49.6968 163.618 49.3543 163.618 48.6655V46.6214H163.031V46.0211H163.618V45.1445H164.42H164.424Z" fill="white"/>
<path d="M165.95 49.6304V46.6213H165.406V46.021H165.95V45.6895C165.95 45.2881 166.059 44.9787 166.281 44.7614C166.5 44.5441 166.81 44.4336 167.208 44.4336C167.35 44.4336 167.499 44.4557 167.656 44.4925L167.638 45.126C167.55 45.1076 167.448 45.1002 167.332 45.1002C166.949 45.1002 166.755 45.2991 166.755 45.6969V46.0173H167.481V46.6176H166.755V49.6267H165.953L165.95 49.6304Z" fill="white"/>
<path d="M167.91 47.7949C167.91 47.4413 167.979 47.1246 168.118 46.841C168.256 46.5574 168.45 46.3401 168.701 46.1854C168.953 46.0344 169.241 45.957 169.565 45.957C170.047 45.957 170.44 46.1154 170.739 46.4285C171.038 46.7415 171.203 47.1577 171.228 47.677V47.8685C171.228 48.2258 171.162 48.5425 171.027 48.8224C170.893 49.1024 170.699 49.3197 170.448 49.4743C170.196 49.629 169.904 49.7027 169.573 49.7027C169.069 49.7027 168.665 49.5333 168.362 49.1944C168.059 48.8556 167.906 48.4026 167.906 47.8391V47.7986L167.91 47.7949ZM168.712 47.8649C168.712 48.2368 168.789 48.5278 168.938 48.7377C169.091 48.9477 169.303 49.0508 169.573 49.0508C169.842 49.0508 170.054 48.944 170.203 48.7304C170.353 48.5168 170.43 48.2037 170.43 47.7912C170.43 47.4266 170.353 47.1393 170.196 46.9257C170.039 46.7121 169.832 46.6052 169.562 46.6052C169.292 46.6052 169.091 46.7121 168.938 46.922C168.785 47.1319 168.708 47.445 168.708 47.8649H168.712Z" fill="white"/>
<path d="M173.78 46.7636C173.675 46.7452 173.565 46.7378 173.452 46.7378C173.084 46.7378 172.836 46.8815 172.708 47.1651V49.6327H171.906V46.0233H172.672L172.69 46.4285C172.883 46.1154 173.153 45.957 173.496 45.957C173.609 45.957 173.704 45.9718 173.78 46.0049V46.7636Z" fill="white"/>
<path d="M175.044 46.0192L175.066 46.3949C175.317 46.1002 175.66 45.9492 176.098 45.9492C176.575 45.9492 176.903 46.1334 177.078 46.5017C177.337 46.1334 177.702 45.9492 178.176 45.9492C178.57 45.9492 178.865 46.0597 179.058 46.2807C179.252 46.5017 179.35 46.8258 179.354 47.253V49.6249H178.552V47.2751C178.552 47.0468 178.501 46.8773 178.402 46.7705C178.304 46.6637 178.14 46.6085 177.91 46.6085C177.728 46.6085 177.578 46.6564 177.461 46.7558C177.345 46.8552 177.264 46.9842 177.217 47.1462V49.6212H176.419V47.2457C176.408 46.8221 176.192 46.6085 175.777 46.6085C175.456 46.6085 175.226 46.7411 175.091 47.0063V49.6212H174.289V46.0118H175.044V46.0192Z" fill="white"/>
<path d="M26.567 47.6476C15.2051 47.6476 5.95807 38.3074 5.95807 26.831C5.95807 15.3546 15.2015 6.0181 26.567 6.0181H43.7849C49.0574 5.49879 49.8706 0.364622 49.9216 0H26.567C11.9161 0 0 12.0362 0 26.8347C0 41.6332 11.9161 53.6694 26.567 53.6694C40.2662 53.6694 51.5734 43.1432 52.9809 29.678H46.9754C45.5971 39.8138 36.9736 47.6513 26.5634 47.6513L26.567 47.6476Z" fill="url(#paint0_linear_1426_14112)"/>
<path d="M26.5691 42.713C17.9019 42.713 10.8499 35.5899 10.8499 26.8353C10.8499 18.0807 17.8982 10.9614 26.5691 10.9614H38.9228C41.5263 10.7294 42.54 8.79576 42.9119 7.63929V7.61719H26.5691C16.0751 7.61719 7.53906 16.2392 7.53906 26.839C7.53906 37.4388 16.0751 46.0608 26.5691 46.0608C36.1079 46.0608 44.024 38.9378 45.3877 29.6823H42.0295C40.6986 37.0853 34.2738 42.7166 26.5691 42.7166V42.713Z" fill="url(#paint1_linear_1426_14112)"/>
<path d="M37.6887 29.6705C36.4307 34.6905 31.9202 38.4177 26.5675 38.4177C20.2411 38.4177 15.0925 33.2173 15.0925 26.8309C15.0925 20.4444 20.2411 15.2403 26.5675 15.2403H35.191C37.0798 14.9236 37.9403 13.5608 38.3159 12.5738V12.5664H26.5675C18.7789 12.5664 12.4453 18.9639 12.4453 26.8309C12.4453 34.6978 18.7789 41.0953 26.5675 41.0953C33.3897 41.0953 39.0998 36.1821 40.4089 29.6742H37.6924L37.6887 29.6705Z" fill="url(#paint2_linear_1426_14112)"/>
<path d="M42.4789 24.1354H29.4214C28.725 23.4061 27.7514 22.9531 26.6685 22.9531C24.5573 22.9531 22.8398 24.6842 22.8398 26.8203C22.8398 28.9565 24.5536 30.6875 26.6685 30.6875C27.6639 30.6875 28.5682 30.3008 29.2501 29.671H52.9839C53.0823 28.7318 53.137 27.7816 53.137 26.813C53.137 25.9106 53.0896 25.0156 53.0058 24.1354H42.4789Z" fill="url(#paint3_linear_1426_14112)"/>
<path d="M26.5703 47.6451V53.6633C40.2658 53.6596 51.5694 43.1334 52.9805 29.6719H46.9751C45.5967 39.8076 36.9769 47.6415 26.5703 47.6451Z" fill="url(#paint4_linear_1426_14112)"/>
<path d="M26.5703 42.7062V46.0504C36.1054 46.0504 44.0215 38.9237 45.3853 29.6719H42.027C40.6961 37.0711 34.275 42.7025 26.5703 42.7062Z" fill="url(#paint5_linear_1426_14112)"/>
<path d="M37.6879 29.6719C36.4299 34.6882 31.9231 38.4154 26.5703 38.4191V41.0967C33.3926 41.0967 39.0954 36.1798 40.4044 29.6756H37.6879V29.6719Z" fill="url(#paint6_linear_1426_14112)"/>
<defs>
<linearGradient id="paint0_linear_1426_14112" x1="31.8104" y1="-3.22635" x2="21.7572" y2="53.2261" gradientUnits="userSpaceOnUse">
<stop offset="0.02" stop-color="#37BEF0"/>
<stop offset="0.2" stop-color="#29ADE5"/>
<stop offset="0.8" stop-color="#007DC6"/>
</linearGradient>
<linearGradient id="paint1_linear_1426_14112" x1="30.3139" y1="5.37421" x2="23.1235" y2="45.7452" gradientUnits="userSpaceOnUse">
<stop stop-color="#89C122"/>
<stop offset="0.8" stop-color="#00AF97"/>
</linearGradient>
<linearGradient id="paint2_linear_1426_14112" x1="29.3314" y1="10.968" x2="24.0074" y2="40.8597" gradientUnits="userSpaceOnUse">
<stop stop-color="#FAC02C"/>
<stop offset="0.8" stop-color="#F18700"/>
</linearGradient>
<linearGradient id="paint3_linear_1426_14112" x1="22.8398" y1="26.8203" x2="53.137" y2="26.8203" gradientUnits="userSpaceOnUse">
<stop offset="0.02" stop-color="#37BEF0"/>
<stop offset="0.17" stop-color="#32B5E9"/>
<stop offset="0.43" stop-color="#259CD9"/>
<stop offset="0.75" stop-color="#0F75BE"/>
<stop offset="0.96" stop-color="#0058AA"/>
</linearGradient>
<linearGradient id="paint4_linear_1426_14112" x1="26.5703" y1="41.6676" x2="53.13" y2="41.6676" gradientUnits="userSpaceOnUse">
<stop offset="0.11" stop-color="#007DC6"/>
<stop offset="1" stop-color="#0057A9"/>
</linearGradient>
<linearGradient id="paint5_linear_1426_14112" x1="26.5703" y1="37.863" x2="45.5931" y2="37.863" gradientUnits="userSpaceOnUse">
<stop offset="0.11" stop-color="#00AF97"/>
<stop offset="1" stop-color="#00A0E9"/>
</linearGradient>
<linearGradient id="paint6_linear_1426_14112" x1="26.5703" y1="35.3843" x2="40.6888" y2="35.3843" gradientUnits="userSpaceOnUse">
<stop offset="0.11" stop-color="#F18700"/>
<stop offset="1" stop-color="#EB5902"/>
</linearGradient>
</defs>
</svg>
