<svg width="41" height="38" viewBox="0 0 41 38" fill="none" xmlns="http://www.w3.org/2000/svg">
<path d="M27.8422 6.59623H30.7614C31.0934 6.59623 31.3614 6.31717 31.3614 5.9739C31.3614 5.63062 31.0923 5.35156 30.7614 5.35156H27.8422C27.5112 5.35156 27.2422 5.63062 27.2422 5.9739C27.2422 6.31717 27.5112 6.59623 27.8422 6.59623Z" fill="white"/>
<path d="M33.6821 6.59623H36.5991C36.9311 6.59623 37.1991 6.31717 37.1991 5.9739C37.1991 5.63062 36.9311 5.35156 36.5991 5.35156H33.6821C33.35 5.35156 33.082 5.63062 33.082 5.9739C33.082 6.31717 33.3511 6.59623 33.6821 6.59623Z" fill="white"/>
<path d="M39.9771 28.4078C40.5409 28.4078 41 27.9313 41 27.3474V17.4626C41 16.9075 40.5644 16.4554 40.0295 16.4554H39.1411V11.9501H39.7454C40.3092 11.9501 40.7683 11.4748 40.7683 10.8909V1.00499C40.7683 0.45097 40.3327 0 39.7978 0H0.988698C0.454844 0 0.0202865 0.45097 0.0202865 1.00499V10.892C0.0202865 11.4759 0.478333 11.9512 1.04102 11.9512H1.64747V16.4565H1.22039C0.686536 16.4565 0.251979 16.9086 0.251979 17.4637V27.3485C0.251979 27.9335 0.710026 28.4089 1.27271 28.4089H14.7205V30.8598C14.2785 31.0338 13.9261 31.3939 13.7499 31.8482H2.10125C0.942786 31.8482 0 32.8266 0 34.0299C0 35.2332 0.942786 36.2094 2.10125 36.2094H13.751C14.0009 36.8554 14.6095 37.313 15.3216 37.313H19.1323C19.4643 37.313 19.7323 37.0338 19.7323 36.6903C19.7323 36.3468 19.4633 36.0676 19.1323 36.0676H15.3216C15.0547 36.0676 14.8305 35.836 14.8305 35.5612V32.4975C14.8305 32.2227 15.0547 31.9911 15.3216 31.9911H25.4478C25.7168 31.9911 25.9368 32.2183 25.9368 32.4975V35.5612C25.9368 35.8404 25.7168 36.0676 25.4478 36.0676H22.0492C21.7172 36.0676 21.4481 36.3468 21.4481 36.6903C21.4481 37.0338 21.7172 37.313 22.0492 37.313H25.4478C26.1589 37.313 26.7664 36.8554 27.0162 36.2094H38.666C39.8255 36.2094 40.7694 35.2321 40.7694 34.0299C40.7694 32.8277 39.8255 31.8482 38.666 31.8482H27.0162C26.8411 31.3939 26.4888 31.0349 26.0478 30.8598V28.4089H39.9771V28.4078ZM13.6282 34.9618H2.10125C1.60477 34.9618 1.20117 34.5429 1.20117 34.0288C1.20117 33.5147 1.60477 33.0936 2.10125 33.0936H13.6282V34.9618ZM27.1369 33.0936H38.6649C39.1625 33.0936 39.5671 33.5136 39.5671 34.0288C39.5671 34.544 39.1625 34.9618 38.6649 34.9618H27.1369V33.0936ZM1.22146 10.7036V1.24654H39.5671V10.7036H21.9905C21.6585 10.7036 21.3905 10.9817 21.3905 11.3263C21.3905 11.6709 21.6595 11.949 21.9905 11.949H37.9399V16.4543H2.84865V11.949H19.1066C19.4376 11.949 19.7067 11.6698 19.7067 11.3263C19.7067 10.9828 19.4376 10.7036 19.1066 10.7036H1.22146ZM24.8466 30.7424H15.9217V28.4078H24.8466V30.7424ZM25.4467 27.1612H1.45315V17.7019H39.7988V27.1612H25.4478H25.4467Z" fill="white"/>
<path d="M30.7614 21.8047H27.8422C27.5112 21.8047 27.2422 22.0837 27.2422 22.427C27.2422 22.7703 27.5112 23.0505 27.8422 23.0505H30.7614C31.0934 23.0505 31.3614 22.7714 31.3614 22.427C31.3614 22.0826 31.0923 21.8047 30.7614 21.8047Z" fill="white"/>
<path d="M36.5991 21.8047H33.6821C33.35 21.8047 33.082 22.0837 33.082 22.427C33.082 22.7703 33.3511 23.0505 33.6821 23.0505H36.5991C36.9311 23.0505 37.1991 22.7714 37.1991 22.427C37.1991 22.0826 36.9301 21.8047 36.5991 21.8047Z" fill="white"/>
<path d="M24.2822 7.25774V4.68377C24.2822 4.06106 23.7943 3.55469 23.1942 3.55469H17.8866C17.2877 3.55469 16.8008 4.06106 16.8008 4.68377V7.25774C16.8008 7.88045 17.2877 8.38793 17.8866 8.38793H23.1942C23.7943 8.38793 24.2822 7.88156 24.2822 7.25774ZM23.081 7.14139H18.002V4.80233H23.081V7.14139Z" fill="white"/>
<path d="M13.5089 3.55469H4.80177C4.20279 3.55469 3.71484 4.06217 3.71484 4.68377V7.25774C3.71484 7.88045 4.20172 8.38793 4.80177 8.38793H13.5089C14.109 8.38793 14.5969 7.88156 14.5969 7.25774V4.68377C14.5969 4.06106 14.109 3.55469 13.5089 3.55469ZM13.3958 7.14028H4.91602V4.80123H13.3958V7.14028Z" fill="white"/>
<path d="M23.1065 20.0156H17.7989C17.1989 20.0156 16.7109 20.522 16.7109 21.1447V23.7187C16.7109 24.3414 17.1989 24.8478 17.7989 24.8478H23.1065C23.7055 24.8478 24.1924 24.3414 24.1924 23.7187V21.1447C24.1924 20.522 23.7055 20.0156 23.1065 20.0156ZM22.9912 23.6012H17.9121V21.2622H22.9912V23.6012Z" fill="white"/>
<path d="M13.4251 20.0156H4.71797C4.11792 20.0156 3.62891 20.522 3.62891 21.1447V23.7187C3.62891 24.3414 4.11685 24.8478 4.71797 24.8478H13.4251C14.0252 24.8478 14.5131 24.3414 14.5131 23.7187V21.1447C14.5131 20.522 14.0252 20.0156 13.4251 20.0156ZM13.312 23.6012H4.83008V21.2622H13.312V23.6012Z" fill="white"/>
</svg>
