<svg width="67" height="67" viewBox="0 0 67 67" fill="none" xmlns="http://www.w3.org/2000/svg">
<path d="M0 0H62.2143V59.3429H0V0Z" fill="#B2F0FB"/>
<path d="M5.74219 5.74219H66.0422V65.085H5.74219V5.74219Z" fill="white"/>
<path d="M64.892 3.62629H61.7068V1.9107C61.7068 1.38466 61.2809 0.957031 60.7532 0.957031C60.2254 0.957031 59.7995 1.38466 59.7995 1.9107V3.62799H53.2596V1.9107C53.2596 1.38466 52.8319 0.957031 52.3059 0.957031C51.7798 0.957031 51.3522 1.38466 51.3522 1.9107V3.62799H44.8123V1.9107C44.8123 1.38466 44.3846 0.957031 43.8586 0.957031C43.3325 0.957031 42.9049 1.38466 42.9049 1.9107V3.62799H36.365V1.9107C36.365 1.38466 35.9373 0.957031 35.4113 0.957031C34.8852 0.957031 34.4576 1.38466 34.4576 1.9107V3.62799H27.9177V1.9107C27.9177 1.38466 27.49 0.957031 26.964 0.957031C26.438 0.957031 26.0103 1.38466 26.0103 1.9107V3.62799H19.4704V1.9107C19.4704 1.38466 19.0445 0.957031 18.5167 0.957031C17.989 0.957031 17.563 1.38466 17.563 1.9107V3.62799H11.0231V1.9107C11.0231 1.38466 10.5955 0.957031 10.0694 0.957031C9.54337 0.957031 9.11574 1.38466 9.11574 1.9107V3.62799H5.93571C4.77331 3.62629 3.82812 4.57148 3.82812 5.73388V8.919C3.82812 9.44505 4.25575 9.87268 4.7818 9.87268C5.30784 9.87268 5.73547 9.44505 5.73547 8.919V5.73388C5.73547 5.62358 5.82541 5.53364 5.93571 5.53364H9.12083V6.35665C9.12083 6.88439 9.54676 7.31032 10.0745 7.31032C10.6023 7.31032 11.0282 6.88269 11.0282 6.35665V5.53364H17.5681V6.35665C17.5681 6.88439 17.9958 7.31032 18.5218 7.31032C19.0478 7.31032 19.4755 6.88269 19.4755 6.35665V5.53364H26.0154V6.35665C26.0154 6.88439 26.443 7.31032 26.9691 7.31032C27.4951 7.31032 27.9228 6.88269 27.9228 6.35665V5.53364H34.4627V6.35665C34.4627 6.88439 34.8903 7.31032 35.4164 7.31032C35.9424 7.31032 36.3701 6.88269 36.3701 6.35665V5.53364H42.91V6.35665C42.91 6.88439 43.3376 7.31032 43.8637 7.31032C44.3897 7.31032 44.8174 6.88269 44.8174 6.35665V5.53364H51.3573V6.35665C51.3573 6.88439 51.7849 7.31032 52.311 7.31032C52.837 7.31032 53.2646 6.88269 53.2646 6.35665V5.53364H59.8046V6.35665C59.8046 6.88439 60.2322 7.31032 60.7583 7.31032C61.2843 7.31032 61.7119 6.88269 61.7119 6.35665V5.53364H64.8971C65.0074 5.53364 65.0973 5.62358 65.0973 5.73388V16.1937H5.73547V13.2546C5.73547 12.7269 5.30784 12.301 4.7818 12.301C4.25575 12.301 3.82812 12.7269 3.82812 13.2546V64.0114C3.82812 65.1738 4.77331 66.1189 5.93571 66.1189H64.892C66.0544 66.1189 66.9996 65.1738 66.9996 64.0114V5.73388C66.9996 4.57148 66.0544 3.62629 64.892 3.62629ZM16.1817 64.2116H5.93571C5.82541 64.2116 5.73547 64.1217 5.73547 64.0114V54.1421H16.1817V64.2116ZM16.1817 52.2364H5.73547V42.1092H16.1817V52.2364ZM16.1817 40.2035H5.73547V30.078H16.1817V40.2035ZM16.1817 28.1706H5.73547V18.1011H16.1817V28.1706ZM28.3674 64.2116H18.0891V54.1421H28.3674V64.2116ZM28.3674 52.2364H18.0891V42.1092H28.3674V52.2364ZM28.3674 40.2035H18.0891V30.078H28.3674V40.2035ZM28.3674 28.1706H18.0891V18.1011H28.3674V28.1706ZM40.553 64.2116H30.273V54.1421H40.553V64.2116ZM40.553 52.2364H30.273V42.1092H40.553V52.2364ZM40.553 40.2035H30.273V30.078H40.553V40.2035ZM40.553 28.1706H30.273V18.1011H40.553V28.1706ZM52.7386 52.2364H49.8284C49.3023 52.2364 48.8747 52.6623 48.8747 53.1901C48.8747 53.7178 49.3023 54.1437 49.8284 54.1437H52.7386V64.2133H42.4603V54.1437H45.4011C45.9271 54.1437 46.3548 53.7161 46.3548 53.1901C46.3548 52.664 45.9271 52.2364 45.4011 52.2364H42.4603V42.1092H52.7386V52.2364ZM52.7386 40.2035H42.4603V30.078H52.7386V40.2035ZM52.7386 28.1706H42.4603V18.1011H52.7386V28.1706ZM65.0922 64.0114C65.0922 64.1217 65.0023 64.2116 64.892 64.2116H54.6459V54.1421H65.0922V64.0114ZM65.0922 52.2364H54.6459V42.1092H65.0922V52.2364ZM65.0922 40.2035H54.6459V30.078H65.0922V40.2035ZM65.0922 28.1706H54.6459V18.1011H65.0922V28.1706Z" fill="#404040"/>
<path d="M20.2475 26.1141C20.4341 26.3007 20.6768 26.3941 20.9211 26.3941C21.1655 26.3941 21.4099 26.3007 21.5965 26.1141L23.229 24.4816L24.8614 26.1141C25.0481 26.3007 25.2907 26.3941 25.5368 26.3941C25.7828 26.3941 26.0255 26.3007 26.2105 26.1141C26.5821 25.7425 26.5821 25.1383 26.2105 24.765L24.578 23.1326L26.2105 21.5001C26.5821 21.1268 26.5821 20.5244 26.2105 20.1511C25.8371 19.7778 25.2347 19.7778 24.8614 20.1511L23.229 21.7835L21.5965 20.1511C21.2232 19.7778 20.6208 19.7778 20.2475 20.1511C19.8758 20.5244 19.8758 21.1268 20.2475 21.5001L21.8799 23.1326L20.2475 24.765C19.8758 25.1383 19.8758 25.7408 20.2475 26.1141Z" fill="#B2F0FB"/>
<path d="M20.2475 38.1245C20.4341 38.3112 20.6768 38.4028 20.9211 38.4028C21.1655 38.4028 21.4099 38.3095 21.5965 38.1245L23.229 36.4921L24.8614 38.1245C25.0481 38.3112 25.2907 38.4028 25.5368 38.4028C25.7828 38.4028 26.0255 38.3095 26.2105 38.1245C26.5821 37.7512 26.5821 37.1488 26.2105 36.7755L24.578 35.143L26.2105 33.5106C26.5821 33.1373 26.5821 32.5349 26.2105 32.1615C25.8371 31.7899 25.2347 31.7899 24.8614 32.1615L23.229 33.794L21.5965 32.1615C21.2232 31.7899 20.6208 31.7899 20.2475 32.1615C19.8758 32.5332 19.8758 33.1373 20.2475 33.5106L21.8799 35.143L20.2475 36.7755C19.8758 37.1471 19.8758 37.7512 20.2475 38.1245Z" fill="#B2F0FB"/>
<path d="M7.89591 38.1245C8.08257 38.3112 8.32693 38.4028 8.56959 38.4028C8.81225 38.4028 9.0583 38.3095 9.24496 38.1245L10.8774 36.4921L12.5098 38.1245C12.6965 38.3112 12.9392 38.4028 13.1835 38.4028C13.4279 38.4028 13.6722 38.3095 13.8572 38.1245C14.2305 37.7512 14.2305 37.1488 13.8572 36.7755L12.2248 35.143L13.8572 33.5106C14.2305 33.1373 14.2305 32.5349 13.8572 32.1615C13.4839 31.7899 12.8815 31.7899 12.5098 32.1615L10.8774 33.794L9.24496 32.1615C8.87164 31.7899 8.26923 31.7899 7.89591 32.1615C7.52428 32.5332 7.52428 33.1373 7.89591 33.5106L9.52835 35.143L7.89591 36.7755C7.52428 37.1471 7.52428 37.7512 7.89591 38.1245Z" fill="#B2F0FB"/>
<path d="M32.4323 26.1141C32.619 26.3007 32.8617 26.3941 33.106 26.3941C33.3504 26.3941 33.5947 26.3007 33.7797 26.1141L35.4121 24.4816L37.0446 26.1141C37.2312 26.3007 37.4756 26.3941 37.7183 26.3941C37.9609 26.3941 38.207 26.3007 38.3919 26.1141C38.7653 25.7425 38.7653 25.1383 38.3919 24.765L36.7595 23.1326L38.3919 21.5001C38.7653 21.1268 38.7653 20.5244 38.3919 20.1511C38.0203 19.7778 37.4162 19.7778 37.0446 20.1511L35.4121 21.7835L33.7797 20.1511C33.4064 19.7778 32.804 19.7778 32.4323 20.1511C32.059 20.5244 32.059 21.1268 32.4323 21.5001L34.0648 23.1326L32.4323 24.765C32.059 25.1383 32.059 25.7408 32.4323 26.1141Z" fill="#B2F0FB"/>
<path d="M44.6176 26.1141C44.8026 26.3007 45.047 26.3941 45.2913 26.3941C45.5357 26.3941 45.7783 26.3007 45.965 26.1141L47.5974 24.4816L49.2299 26.1141C49.4165 26.3007 49.6609 26.3941 49.9035 26.3941C50.1462 26.3941 50.3923 26.3007 50.5772 26.1141C50.9506 25.7425 50.9506 25.1383 50.5772 24.765L48.9448 23.1326L50.5772 21.5001C50.9506 21.1268 50.9506 20.5244 50.5772 20.1511C50.2039 19.7778 49.6015 19.7778 49.2282 20.1511L47.5957 21.7835L45.9633 20.1511C45.59 19.7778 44.9876 19.7778 44.6159 20.1511C44.2426 20.5244 44.2426 21.1268 44.6159 21.5001L46.2484 23.1326L44.6159 24.765C44.2426 25.1383 44.2426 25.7408 44.6159 26.1141H44.6176Z" fill="#B2F0FB"/>
<path d="M56.8894 26.1141C57.076 26.3007 57.3204 26.3941 57.563 26.3941C57.8057 26.3941 58.0501 26.3007 58.2367 26.1141L59.8692 24.4816L61.5016 26.1141C61.6883 26.3007 61.9326 26.3941 62.1753 26.3941C62.4179 26.3941 62.664 26.3007 62.8507 26.1141C63.2223 25.7425 63.2223 25.1383 62.8507 24.765L61.2165 23.1326L62.8507 21.5001C63.2223 21.1268 63.2223 20.5244 62.8507 20.1511C62.4773 19.7778 61.8749 19.7778 61.5016 20.1511L59.8692 21.7835L58.2367 20.1511C57.8651 19.7778 57.261 19.7778 56.8894 20.1511C56.516 20.5244 56.516 21.1268 56.8894 21.5001L58.5218 23.1326L56.8894 24.765C56.516 25.1383 56.516 25.7408 56.8894 26.1141Z" fill="#B2F0FB"/>
<path d="M34.0765 38.2658C34.2581 38.4949 34.5347 38.6306 34.8266 38.6306C34.8367 38.6306 34.8452 38.6306 34.8554 38.6306C35.1592 38.6204 35.4375 38.4694 35.6105 38.22L39.0231 33.2938C39.3234 32.8611 39.2148 32.2671 38.7821 31.9668C38.3494 31.6664 37.7555 31.775 37.4551 32.2077L34.779 36.0716L33.3367 34.2356C33.0108 33.8215 32.4118 33.7503 31.9978 34.0761C31.5837 34.4019 31.5108 35.0009 31.8366 35.4149L34.0765 38.2658Z" fill="#38BEEF"/>
<rect x="3.82812" y="8.21094" width="1.90904" height="5.72712" fill="#404040"/>
<rect x="50.7891" y="52.2461" width="1.90904" height="5.72712" transform="rotate(90 50.7891 52.2461)" fill="#404040"/>
</svg>
