<svg width="42" height="42" viewBox="0 0 42 42" fill="none" xmlns="http://www.w3.org/2000/svg">
<mask id="mask0_1721_15738" style="mask-type:alpha" maskUnits="userSpaceOnUse" x="0" y="0" width="42" height="42">
<rect width="42" height="42" fill="#D9D9D9"/>
</mask>
<g mask="url(#mask0_1721_15738)">
<path d="M15.9767 11.6333H19.689C20.0112 11.6333 20.2712 11.3626 20.2712 11.0295C20.2712 10.6965 20.0101 10.4258 19.689 10.4258H15.9767C15.6556 10.4258 15.3945 10.6965 15.3945 11.0295C15.3945 11.3626 15.6556 11.6333 15.9767 11.6333Z" fill="white"/>
<path d="M19.689 14.5289C20.0112 14.5289 20.2712 14.2582 20.2712 13.9251C20.2712 13.5921 20.0101 13.3203 19.689 13.3203H15.9767C15.6556 13.3203 15.3945 13.591 15.3945 13.9251C15.3945 14.2592 15.6556 14.5289 15.9767 14.5289H19.689Z" fill="white"/>
<path d="M28.8825 16.8047H16.172C15.8509 16.8047 15.5898 17.0754 15.5898 17.4084C15.5898 17.7415 15.8509 18.0122 16.172 18.0122H28.8825C29.2046 18.0122 29.4646 17.7415 29.4646 17.4084C29.4646 17.0754 29.2036 16.8047 28.8825 16.8047Z" fill="white"/>
<path d="M16.172 20.1573C15.8509 20.1573 15.5898 20.428 15.5898 20.7611C15.5898 21.0941 15.8509 21.3648 16.172 21.3648H31.5259L32.7409 20.1562H16.172V20.1573Z" fill="white"/>
<path d="M40.8142 18.7899C40.6712 18.619 40.461 18.5201 40.2393 18.5201H37.5275V8.65325C37.5275 8.63283 37.5275 8.61456 37.5254 8.59521C37.5254 8.58231 37.5275 8.56833 37.5275 8.55544C37.5275 8.36517 37.4426 8.19641 37.311 8.08569C37.2717 8.04054 37.2313 8.00184 37.194 7.96637C37.1702 7.94272 37.1422 7.91585 37.108 7.88145L32.5173 3.33768L32.4468 3.26889C32.3484 3.16999 32.2511 3.0754 32.1319 3.00768C32.1174 2.99908 32.1019 2.99048 32.0864 2.98403C31.989 2.93566 31.8771 2.90556 31.7352 2.90556H17.3664V2.24662C17.3664 1.00829 16.3948 0 15.2015 0C14.0082 0 13.0346 1.00829 13.0346 2.24662V2.90556H11.3576C10.8045 2.90556 10.3549 3.37208 10.3549 3.9461V6.58722H7.52505C6.97193 6.58722 6.52238 7.05375 6.52238 7.62776V21.5557H3.15701C2.51894 21.5557 2 22.0943 2 22.7564V40.4639C2 40.5026 2.00311 40.5402 2.00725 40.5789C1.98343 40.7369 2.01968 40.8993 2.1129 41.0304C2.2227 41.1863 2.39775 41.2776 2.58317 41.2776H19.3872C19.7094 41.2776 19.9694 41.0068 19.9694 40.6735C19.9694 40.3403 19.7083 40.0694 19.3872 40.0694H3.3766L6.88388 28.5041C6.89113 28.4816 6.89942 28.4633 6.90771 28.4504H25.5514C26.0227 28.4504 26.3293 28.4203 26.5934 28.0011C26.6266 27.9484 26.6545 27.9033 26.7281 27.8302L34.8085 19.7681C34.8209 19.7552 34.8323 19.7434 34.8437 19.7316H39.7742L38.5519 29.1308L38.3686 30.5272L37.1277 40.0705H22.1083C21.7862 40.0705 21.5262 40.3414 21.5262 40.6746C21.5262 41.0078 21.7872 41.2787 22.1083 41.2787H37.1743C37.716 41.2787 38.1998 40.8401 38.2775 40.2769L39.5246 30.6873L39.7079 29.291L40.9923 19.4188C41.0234 19.1909 40.9592 18.9608 40.8162 18.7888L40.8142 18.7899ZM6.52445 27.2991C6.17952 27.4206 5.89468 27.7302 5.77141 28.144L3.16944 36.7253L3.1653 36.736V22.7672H6.52445V27.2991ZM32.4282 4.92107L35.4901 7.95132H33.5293C33.2351 7.95132 32.9575 7.83093 32.7483 7.61379C32.5401 7.39773 32.4261 7.11179 32.4261 6.80866V4.92214L32.4282 4.92107ZM14.2019 2.2477C14.2019 1.67583 14.6515 1.21038 15.2036 1.21038C15.7557 1.21038 16.2031 1.67583 16.2031 2.2477V2.90663H14.2019V2.2477ZM36.3633 18.5201H34.6314C34.2564 18.5201 34.0637 18.7996 33.9995 18.892C33.9954 18.8974 33.9912 18.9039 33.9871 18.9103L33.4806 19.4155L34.2699 20.269L28.4683 26.0447L27.6852 25.1976L25.9212 26.9573C25.8093 27.0691 25.7347 27.1648 25.6829 27.24C25.6488 27.24 25.6063 27.2422 25.5514 27.2422H11.5223V20.3529C11.5223 20.0197 11.2612 19.7488 10.9401 19.7488C10.619 19.7488 10.358 20.0197 10.358 20.3529V27.2422H7.69078V7.7976H10.358V17.5204C10.358 17.8547 10.619 18.1245 10.9401 18.1245C11.2612 18.1245 11.5223 17.8537 11.5223 17.5204V4.11594H16.2021V6.38943C16.2021 6.9613 15.7536 7.42568 15.2025 7.42568C14.6515 7.42568 14.2009 6.96023 14.2009 6.38943C14.2009 6.05513 13.9399 5.78532 13.6188 5.78532C13.2977 5.78532 13.0366 6.0562 13.0366 6.38943C13.0366 7.62776 14.0082 8.63498 15.2036 8.63498C16.3989 8.63498 17.3684 7.62669 17.3684 6.38943V4.11594H31.2639L31.2619 6.80651C31.2598 7.43212 31.4949 8.02227 31.9237 8.46836C32.3526 8.91554 32.9233 9.1617 33.5293 9.1617H36.3633V18.5212V18.5201Z" fill="white"/>
<path d="M16.172 23.4894C15.8509 23.4894 15.5898 23.7601 15.5898 24.0931C15.5898 24.4261 15.8509 24.6968 16.172 24.6968H28.1709L29.3859 23.4883H16.173L16.172 23.4894Z" fill="white"/>
<path d="M28.1647 24.7031L27.6758 25.1898L27.683 25.1984L28.1813 24.7031H28.1647Z" fill="white"/>
<path d="M31.5332 21.3594H31.5238L29.3828 23.491H29.3963L31.5332 21.3594Z" fill="white"/>
<path d="M32.7344 20.156H32.7396L33.4771 19.4201L33.475 19.418L32.7344 20.156Z" fill="white"/>
<path d="M32.7275 20.1532L31.5125 21.3625H31.5218L29.3849 23.4952H29.3714L28.1574 24.7045H28.173L27.6758 25.2001L28.4589 26.0471L34.2594 20.2715L33.4701 19.418L32.7337 20.1532H32.7275Z" fill="white"/>
</g>
</svg>
