<svg width="70" height="70" viewBox="0 0 70 70" fill="none" xmlns="http://www.w3.org/2000/svg">
<mask id="mask0_1721_15267" style="mask-type:alpha" maskUnits="userSpaceOnUse" x="0" y="0" width="70" height="70">
<rect width="70" height="70" fill="#D9D9D9"/>
</mask>
<g mask="url(#mask0_1721_15267)">
<path d="M1 3H63.2143V61.0599H1V3Z" fill="#FABF2A"/>
<path d="M6.74219 8.61719H67.0422V66.6771H6.74219V8.61719Z" fill="white"/>
<path d="M65.892 6.54515H62.7068V4.86665C62.7068 4.35197 62.2809 3.93359 61.7532 3.93359C61.2254 3.93359 60.7995 4.35197 60.7995 4.86665V6.54681H54.2596V4.86665C54.2596 4.35197 53.8319 3.93359 53.3059 3.93359C52.7798 3.93359 52.3522 4.35197 52.3522 4.86665V6.54681H45.8123V4.86665C45.8123 4.35197 45.3846 3.93359 44.8586 3.93359C44.3325 3.93359 43.9049 4.35197 43.9049 4.86665V6.54681H37.365V4.86665C37.365 4.35197 36.9373 3.93359 36.4113 3.93359C35.8852 3.93359 35.4576 4.35197 35.4576 4.86665V6.54681H28.9177V4.86665C28.9177 4.35197 28.49 3.93359 27.964 3.93359C27.438 3.93359 27.0103 4.35197 27.0103 4.86665V6.54681H20.4704V4.86665C20.4704 4.35197 20.0445 3.93359 19.5167 3.93359C18.989 3.93359 18.563 4.35197 18.563 4.86665V6.54681H12.0231V4.86665C12.0231 4.35197 11.5955 3.93359 11.0694 3.93359C10.5434 3.93359 10.1157 4.35197 10.1157 4.86665V6.54681H6.93571C5.77331 6.54515 4.82812 7.4699 4.82812 8.60716V11.7234C4.82812 12.2381 5.25575 12.6565 5.7818 12.6565C6.30784 12.6565 6.73547 12.2381 6.73547 11.7234V8.60716C6.73547 8.49925 6.82541 8.41125 6.93571 8.41125H10.1208V9.21647C10.1208 9.7328 10.5468 10.1495 11.0745 10.1495C11.6023 10.1495 12.0282 9.73114 12.0282 9.21647V8.41125H18.5681V9.21647C18.5681 9.7328 18.9958 10.1495 19.5218 10.1495C20.0478 10.1495 20.4755 9.73114 20.4755 9.21647V8.41125H27.0154V9.21647C27.0154 9.7328 27.443 10.1495 27.9691 10.1495C28.4951 10.1495 28.9228 9.73114 28.9228 9.21647V8.41125H35.4627V9.21647C35.4627 9.7328 35.8903 10.1495 36.4164 10.1495C36.9424 10.1495 37.3701 9.73114 37.3701 9.21647V8.41125H43.91V9.21647C43.91 9.7328 44.3376 10.1495 44.8637 10.1495C45.3897 10.1495 45.8174 9.73114 45.8174 9.21647V8.41125H52.3573V9.21647C52.3573 9.7328 52.7849 10.1495 53.311 10.1495C53.837 10.1495 54.2646 9.73114 54.2646 9.21647V8.41125H60.8046V9.21647C60.8046 9.7328 61.2322 10.1495 61.7583 10.1495C62.2843 10.1495 62.7119 9.73114 62.7119 9.21647V8.41125H65.8971C66.0074 8.41125 66.0973 8.49925 66.0973 8.60716V18.8409H6.73547V15.9653C6.73547 15.449 6.30784 15.0323 5.7818 15.0323C5.25575 15.0323 4.82812 15.449 4.82812 15.9653V65.6247C4.82812 66.762 5.77331 67.6867 6.93571 67.6867H65.892C67.0544 67.6867 67.9996 66.762 67.9996 65.6247V8.60716C67.9996 7.4699 67.0544 6.54515 65.892 6.54515ZM17.1817 65.8206H6.93571C6.82541 65.8206 6.73547 65.7326 6.73547 65.6247V55.9688H17.1817V65.8206ZM17.1817 54.1043H6.73547V44.196H17.1817V54.1043ZM17.1817 42.3316H6.73547V32.4249H17.1817V42.3316ZM17.1817 30.5588H6.73547V20.707H17.1817V30.5588ZM29.3674 65.8206H19.0891V55.9688H29.3674V65.8206ZM29.3674 54.1043H19.0891V44.196H29.3674V54.1043ZM29.3674 42.3316H19.0891V32.4249H29.3674V42.3316ZM29.3674 30.5588H19.0891V20.707H29.3674V30.5588ZM41.553 65.8206H31.273V55.9688H41.553V65.8206ZM41.553 54.1043H31.273V44.196H41.553V54.1043ZM41.553 42.3316H31.273V32.4249H41.553V42.3316ZM41.553 30.5588H31.273V20.707H41.553V30.5588ZM53.7386 54.1043H50.8284C50.3023 54.1043 49.8747 54.521 49.8747 55.0374C49.8747 55.5537 50.3023 55.9704 50.8284 55.9704H53.7386V65.8223H43.4603V55.9704H46.4011C46.9271 55.9704 47.3548 55.552 47.3548 55.0374C47.3548 54.5227 46.9271 54.1043 46.4011 54.1043H43.4603V44.196H53.7386V54.1043ZM53.7386 42.3316H43.4603V32.4249H53.7386V42.3316ZM53.7386 30.5588H43.4603V20.707H53.7386V30.5588ZM66.0922 65.6247C66.0922 65.7326 66.0023 65.8206 65.892 65.8206H55.6459V55.9688H66.0922V65.6247ZM66.0922 54.1043H55.6459V44.196H66.0922V54.1043ZM66.0922 42.3316H55.6459V32.4249H66.0922V42.3316ZM66.0922 30.5588H55.6459V20.707H66.0922V30.5588Z" fill="#404040"/>
<path d="M21.2475 28.5455C21.4341 28.7281 21.6768 28.8195 21.9211 28.8195C22.1655 28.8195 22.4099 28.7281 22.5965 28.5455L24.229 26.9484L25.8614 28.5455C26.0481 28.7281 26.2907 28.8195 26.5368 28.8195C26.7828 28.8195 27.0255 28.7281 27.2105 28.5455C27.5821 28.1819 27.5821 27.5909 27.2105 27.2256L25.578 25.6285L27.2105 24.0313C27.5821 23.6661 27.5821 23.0767 27.2105 22.7114C26.8371 22.3462 26.2347 22.3462 25.8614 22.7114L24.229 24.3086L22.5965 22.7114C22.2232 22.3462 21.6208 22.3462 21.2475 22.7114C20.8758 23.0767 20.8758 23.6661 21.2475 24.0313L22.8799 25.6285L21.2475 27.2256C20.8758 27.5909 20.8758 28.1803 21.2475 28.5455Z" fill="#FABF2A"/>
<path d="M21.2475 40.2982C21.4341 40.4808 21.6768 40.5705 21.9211 40.5705C22.1655 40.5705 22.4099 40.4791 22.5965 40.2982L24.229 38.701L25.8614 40.2982C26.0481 40.4808 26.2907 40.5705 26.5368 40.5705C26.7828 40.5705 27.0255 40.4791 27.2105 40.2982C27.5821 39.9329 27.5821 39.3435 27.2105 38.9783L25.578 37.3811L27.2105 35.784C27.5821 35.4187 27.5821 34.8294 27.2105 34.4641C26.8371 34.1005 26.2347 34.1005 25.8614 34.4641L24.229 36.0613L22.5965 34.4641C22.2232 34.1005 21.6208 34.1005 21.2475 34.4641C20.8758 34.8277 20.8758 35.4187 21.2475 35.784L22.8799 37.3811L21.2475 38.9783C20.8758 39.3419 20.8758 39.9329 21.2475 40.2982Z" fill="#FABF2A"/>
<path d="M8.89591 40.2982C9.08257 40.4808 9.32693 40.5705 9.56959 40.5705C9.81225 40.5705 10.0583 40.4791 10.245 40.2982L11.8774 38.701L13.5098 40.2982C13.6965 40.4808 13.9392 40.5705 14.1835 40.5705C14.4279 40.5705 14.6722 40.4791 14.8572 40.2982C15.2305 39.9329 15.2305 39.3435 14.8572 38.9783L13.2248 37.3811L14.8572 35.784C15.2305 35.4187 15.2305 34.8294 14.8572 34.4641C14.4839 34.1005 13.8815 34.1005 13.5098 34.4641L11.8774 36.0613L10.245 34.4641C9.87164 34.1005 9.26923 34.1005 8.89591 34.4641C8.52428 34.8277 8.52428 35.4187 8.89591 35.784L10.5283 37.3811L8.89591 38.9783C8.52428 39.3419 8.52428 39.9329 8.89591 40.2982Z" fill="#FABF2A"/>
<path d="M33.4362 28.5455C33.6229 28.7281 33.8656 28.8195 34.1099 28.8195C34.3543 28.8195 34.5986 28.7281 34.7836 28.5455L36.416 26.9484L38.0485 28.5455C38.2351 28.7281 38.4795 28.8195 38.7222 28.8195C38.9648 28.8195 39.2109 28.7281 39.3958 28.5455C39.7692 28.1819 39.7692 27.5909 39.3958 27.2256L37.7634 25.6285L39.3958 24.0313C39.7692 23.6661 39.7692 23.0767 39.3958 22.7114C39.0242 22.3462 38.4201 22.3462 38.0485 22.7114L36.416 24.3086L34.7836 22.7114C34.4103 22.3462 33.8079 22.3462 33.4362 22.7114C33.0629 23.0767 33.0629 23.6661 33.4362 24.0313L35.0687 25.6285L33.4362 27.2256C33.0629 27.5909 33.0629 28.1803 33.4362 28.5455Z" fill="#FABF2A"/>
<path d="M45.6176 28.5455C45.8026 28.7281 46.047 28.8195 46.2913 28.8195C46.5357 28.8195 46.7783 28.7281 46.965 28.5455L48.5974 26.9484L50.2299 28.5455C50.4165 28.7281 50.6609 28.8195 50.9035 28.8195C51.1462 28.8195 51.3923 28.7281 51.5772 28.5455C51.9506 28.1819 51.9506 27.5909 51.5772 27.2256L49.9448 25.6285L51.5772 24.0313C51.9506 23.6661 51.9506 23.0767 51.5772 22.7114C51.2039 22.3462 50.6015 22.3462 50.2282 22.7114L48.5957 24.3086L46.9633 22.7114C46.59 22.3462 45.9876 22.3462 45.6159 22.7114C45.2426 23.0767 45.2426 23.6661 45.6159 24.0313L47.2484 25.6285L45.6159 27.2256C45.2426 27.5909 45.2426 28.1803 45.6159 28.5455H45.6176Z" fill="#FABF2A"/>
<path d="M57.8894 28.5455C58.076 28.7281 58.3204 28.8195 58.563 28.8195C58.8057 28.8195 59.0501 28.7281 59.2367 28.5455L60.8692 26.9484L62.5016 28.5455C62.6883 28.7281 62.9326 28.8195 63.1753 28.8195C63.4179 28.8195 63.664 28.7281 63.8507 28.5455C64.2223 28.1819 64.2223 27.5909 63.8507 27.2256L62.2165 25.6285L63.8507 24.0313C64.2223 23.6661 64.2223 23.0767 63.8507 22.7114C63.4773 22.3462 62.8749 22.3462 62.5016 22.7114L60.8692 24.3086L59.2367 22.7114C58.8651 22.3462 58.261 22.3462 57.8894 22.7114C57.516 23.0767 57.516 23.6661 57.8894 24.0313L59.5218 25.6285L57.8894 27.2256C57.516 27.5909 57.516 28.1803 57.8894 28.5455Z" fill="#FABF2A"/>
<path d="M35.0765 40.4345C35.2581 40.6586 35.5347 40.7915 35.8266 40.7915C35.8367 40.7915 35.8452 40.7915 35.8554 40.7915C36.1592 40.7815 36.4375 40.6337 36.6105 40.3897L40.0231 35.57C40.3234 35.1466 40.2148 34.5656 39.7821 34.2717C39.3494 33.9778 38.7555 34.0841 38.4551 34.5075L35.779 38.2878L34.3367 36.4914C34.0108 36.0863 33.4118 36.0166 32.9978 36.3354C32.5837 36.6541 32.5108 37.2402 32.8366 37.6453L35.0765 40.4345Z" fill="#EA5903"/>
<rect x="4.82812" y="11.0312" width="1.90904" height="5.6033" fill="#404040"/>
<rect x="51.7891" y="54.1133" width="1.86777" height="5.72712" transform="rotate(90 51.7891 54.1133)" fill="#404040"/>
</g>
</svg>
