<svg width="312" height="280" viewBox="0 0 312 280" fill="none" xmlns="http://www.w3.org/2000/svg">
<mask id="mask0_1721_15564" style="mask-type:alpha" maskUnits="userSpaceOnUse" x="0" y="0" width="312" height="280">
<rect width="312" height="280" fill="#D9D9D9"/>
</mask>
<g mask="url(#mask0_1721_15564)">
<path d="M6.99999 139.009L81 8.23071L229 8.2307L303 139.009L229 269.788L81 269.788L6.99999 139.009Z" fill="white"/>
<path d="M620.41 130.112L550.789 9.72132C547.336 3.7479 540.87 0.0195312 533.962 0.0195312H394.701C387.773 0.0195312 381.327 3.72786 377.873 9.72132L230.7 264.173C229.395 266.438 226.925 267.861 224.294 267.861H86.0772L85.0129 267.44C83.0249 266.658 81.4184 265.917 80.2136 265.235L78.7879 264.433L77.9645 263.01L28.0434 176.696L21.0352 188.683L68.1851 270.166C70.2736 273.774 74.5709 276.48 82.9848 279.507C83.6474 279.748 84.3302 279.868 85.033 279.868H224.294C231.222 279.868 237.668 276.16 241.122 270.166L388.295 15.7348C389.6 13.4497 392.07 12.0465 394.701 12.0465H533.962C536.592 12.0465 539.042 13.4697 540.367 15.7348L609.988 136.125C611.293 138.39 611.313 141.217 609.988 143.502L540.367 263.892C539.062 266.157 536.592 267.58 533.962 267.58H395.745L394.681 267.159C392.693 266.378 391.066 265.636 389.861 264.954L388.435 264.153L387.612 262.75L337.45 176.015L330.642 188.282L377.853 269.906C379.941 273.514 384.238 276.22 392.652 279.247C393.315 279.487 393.998 279.607 394.701 279.607H533.962C540.89 279.607 547.336 275.899 550.789 269.906L620.41 149.515C623.864 143.522 623.864 136.085 620.41 130.112Z" fill="url(#paint0_linear_1721_15564)"/>
<path d="M84.993 12.0465H224.254C226.885 12.0465 229.335 13.4697 230.66 15.7348L280.902 102.59L287.951 90.7232L241.102 9.72132C237.648 3.7479 231.182 0.0195312 224.274 0.0195312H85.0131C78.0851 0.0195312 71.6393 3.72786 68.1853 9.72132L-78.9876 264.173C-80.2929 266.438 -82.7628 267.861 -85.3934 267.861H-223.61L-224.675 267.44C-226.663 266.658 -228.269 265.917 -229.474 265.235L-230.9 264.433L-231.723 263.01L-281.644 176.696L-288.652 188.683L-241.502 270.166C-239.414 273.774 -235.117 276.48 -226.703 279.507C-226.04 279.748 -225.357 279.868 -224.655 279.868H-85.3934C-78.4655 279.868 -72.0196 276.16 -68.5656 270.166L78.5872 15.7348C79.8925 13.4497 82.3624 12.0465 84.993 12.0465Z" fill="url(#paint1_linear_1721_15564)"/>
</g>
<defs>
<linearGradient id="paint0_linear_1721_15564" x1="15.7209" y1="141.427" x2="630.988" y2="143.209" gradientUnits="userSpaceOnUse">
<stop stop-color="#04B091"/>
<stop offset="1" stop-color="#00A0E9"/>
</linearGradient>
<linearGradient id="paint1_linear_1721_15564" x1="-293.743" y1="141.427" x2="295.602" y2="143.062" gradientUnits="userSpaceOnUse">
<stop stop-color="#04B091"/>
<stop offset="1" stop-color="#00A0E9"/>
</linearGradient>
</defs>
</svg>
