<svg width="1379" height="524" viewBox="0 0 1379 524" fill="none" xmlns="http://www.w3.org/2000/svg">
<path fill-rule="evenodd" clip-rule="evenodd" d="M177.051 524H0C90.1445 221.695 378.812 0 720.098 0H1378.77C1377.33 9.84375 1354.4 148.465 1205.7 162.484H720.098C472.559 162.484 260.707 312.82 177.051 524ZM328.266 524H225.055C306.316 337.102 497.602 205.543 720.098 205.543H1181.02V206.141C1170.52 237.363 1141.94 289.57 1068.51 295.836H720.098C550.418 295.836 402.766 388.375 328.266 524ZM471.867 524H380.137C450.18 413.352 576.352 339.387 720.094 339.387H1051.44V339.586C1040.84 366.238 1016.57 403.031 963.305 411.582H720.094C620.516 411.582 531.285 455.348 471.867 524Z" fill="#E1E1E1"/>
</svg>
