<svg width="180" height="53" viewBox="0 0 180 53" fill="none" xmlns="http://www.w3.org/2000/svg">
<g clip-path="url(#clip0_1661_15935)">
<path d="M75.6899 4.37426C75.6899 3.58131 75.0445 2.9375 74.2497 2.9375H73.4365V12.6747H75.6899V8.54267H77.8522V6.39663H75.6899V4.3779V4.37426Z" fill="#0058AA"/>
<path d="M74.9391 13.8613C74.5744 13.5484 74.1332 13.3011 73.6264 13.1338C73.1269 12.9665 72.569 12.8828 71.9783 12.8828H66.9901C66.3958 12.8828 65.8415 12.9665 65.342 13.1338C64.8388 13.3011 64.3976 13.5448 64.0293 13.8613C63.6647 14.1814 63.373 14.5669 63.1651 15.007C62.9573 15.4508 62.8516 15.9564 62.8516 16.5056C62.8516 17.0549 62.9573 17.5605 63.1651 18.0042C63.3693 18.448 63.661 18.8335 64.0293 19.15C64.3976 19.4664 64.8388 19.7101 65.342 19.8775C65.8415 20.0411 66.3958 20.1284 66.9901 20.1284H71.9783C72.5726 20.1284 73.1269 20.0448 73.6264 19.8775C74.1296 19.7101 74.5708 19.4664 74.9391 19.15C75.3074 18.8335 75.5991 18.448 75.8033 18.0042C76.0111 17.5605 76.1132 17.0549 76.1132 16.5056C76.1132 15.9564 76.0111 15.4508 75.8033 15.007C75.5991 14.5633 75.3074 14.1777 74.9391 13.8576V13.8613ZM73.8598 16.5093C73.8598 17.0076 73.6884 17.375 73.3311 17.6296C72.9628 17.8915 72.4669 18.0224 71.8652 18.0224H67.0995C66.4979 18.0224 66.0056 17.8878 65.6337 17.6296C65.2764 17.3786 65.1013 17.0112 65.1013 16.5093C65.1013 16.0073 65.28 15.6363 65.6337 15.389C66.002 15.1271 66.4942 14.9961 67.0995 14.9961H71.8652C72.4669 14.9961 72.9591 15.1271 73.3311 15.389C73.6811 15.6363 73.8598 16.0146 73.8598 16.5093Z" fill="#0058AA"/>
<path d="M69.1813 9.80276C69.4875 9.66817 69.7464 9.51904 69.9543 9.35536C70.1658 9.19168 70.3408 9.00254 70.472 8.79157C70.6033 8.58424 70.7018 8.3369 70.7601 8.06046C70.8184 7.7913 70.8476 7.47848 70.8476 7.13657V3.38281H61.9834V5.48884H68.5978V6.80921C68.5978 7.17658 68.5504 7.44575 68.4556 7.60215C68.3608 7.75856 68.1858 7.90405 67.9306 8.03136C67.4602 8.26415 66.957 8.50058 66.4319 8.73337C65.9178 8.96253 65.3599 9.20259 64.7729 9.44629C64.2004 9.68636 63.6206 9.92279 63.0372 10.1629L62.6507 10.3193C62.1986 10.5048 61.7501 10.6866 61.3089 10.8685L61.1484 10.934L62.0272 12.7745L62.1694 12.7199C63.3362 12.2725 64.5359 11.7888 65.7391 11.2904C66.9461 10.7848 68.1056 10.2865 69.1776 9.80276H69.1813Z" fill="#0058AA"/>
<path d="M83.1357 15.2806H85.3891V12.3053H90.3372V10.1992H78.7383V12.3053H83.1357V15.2806Z" fill="#0058AA"/>
<path d="M87.2373 15.1842H91.2993V16.5555H93.5527V4.37763C93.5527 3.58104 92.9037 2.93359 92.1051 2.93359H91.2993V13.1509H87.2373V15.1806V15.1842Z" fill="#0058AA"/>
<path d="M80.769 8.80928C81.2029 9.10754 81.7426 9.34397 82.3734 9.51129C83.0005 9.67497 83.7444 9.75863 84.594 9.75863C85.4436 9.75863 86.1728 9.67497 86.8036 9.51129C87.4417 9.34761 87.985 9.11118 88.4189 8.80928C88.8601 8.50738 89.1883 8.14364 89.3962 7.73626C89.6149 7.31432 89.728 6.85238 89.728 6.36497C89.728 5.87756 89.6186 5.41926 89.4071 5.0046C89.192 4.58994 88.8601 4.2262 88.4189 3.92066C87.9887 3.6224 87.4454 3.38233 86.8073 3.21138C86.1728 3.04042 85.429 2.95312 84.594 2.95312C83.759 2.95312 83.0005 3.04042 82.3734 3.21138C81.7389 3.38233 81.1992 3.6224 80.769 3.92066C80.3278 4.22256 79.996 4.58994 79.7845 5.0046C79.5693 5.41926 79.46 5.87756 79.46 6.36497C79.46 6.85238 79.5693 7.31068 79.7845 7.72534C79.9996 8.14 80.3314 8.50738 80.769 8.80928ZM81.7134 6.36497C81.7134 6.01578 81.9395 5.70297 82.3879 5.43381C82.8656 5.14645 83.6058 5.0046 84.594 5.0046C85.5821 5.0046 86.3223 5.15009 86.8 5.43381C87.2521 5.70297 87.4782 6.01578 87.4782 6.36497C87.4782 6.71416 87.2521 7.02333 86.8036 7.28522C86.326 7.5653 85.5858 7.70716 84.5976 7.70716C83.6095 7.70716 82.8693 7.5653 82.3916 7.28522C81.9431 7.02333 81.717 6.71416 81.717 6.36497H81.7134Z" fill="#0058AA"/>
<path d="M82.8403 17.9979V14.8516H80.5869V20.0093H93.9397V17.9979H82.8403Z" fill="#0058AA"/>
<path d="M71.3731 33.4252C70.6365 32.4395 69.9692 31.4683 69.3858 30.5408C69.2217 30.2753 69.1087 29.9552 69.0358 29.5842C68.9629 29.2022 68.9264 28.8167 68.9264 28.4457V26.1178H72.6967V24.0117H62.6693V26.1178H66.6402V28.5039C66.6402 28.8785 66.6001 29.2641 66.5235 29.6496C66.4469 30.0279 66.3266 30.3553 66.1661 30.6208C65.8781 31.0864 65.5572 31.5774 65.2108 32.083C64.8717 32.5741 64.5071 33.0833 64.1242 33.5925C63.7231 34.1236 63.3293 34.6292 62.9537 35.0948C62.5855 35.5494 62.2026 36.0186 61.7796 36.5315L61.6885 36.6406L63.096 38.1574L63.1725 38.2374L63.2929 38.0919C64.1971 36.9935 65.003 36.0077 65.7578 35.0766C66.5162 34.149 67.2017 33.2252 67.8033 32.334C68.4013 33.2142 69.0504 34.0872 69.7322 34.9311C70.4651 35.8404 71.2491 36.8152 72.0877 37.8555L72.2081 38.0047L73.6885 36.4078L73.5973 36.2951C72.8608 35.3857 72.1096 34.4182 71.3658 33.4216L71.3731 33.4252Z" fill="#0058AA"/>
<path d="M75.4638 23.1641H74.6543V40.3942H76.9077V24.6081C76.9077 23.8115 76.2587 23.1677 75.4601 23.1677L75.4638 23.1641Z" fill="#0058AA"/>
<path d="M80.8828 35.8521H91.5227V40.4316H93.7762V33.7461H80.8828V35.8521Z" fill="#0058AA"/>
<path d="M92.3279 23.245H91.5221V24.8455H88.1639C87.7263 24.3144 87.1757 23.8961 86.5267 23.5942C85.8557 23.2814 85.0937 23.125 84.2587 23.125C83.5403 23.125 82.8658 23.245 82.2568 23.4851C81.6479 23.7252 81.1155 24.0671 80.678 24.4963C80.2404 24.9291 79.8904 25.4456 79.6424 26.0276C79.3945 26.6132 79.2705 27.2498 79.2705 27.9263C79.2705 28.6029 79.3945 29.2394 79.6424 29.825C79.8904 30.4106 80.2404 30.9271 80.678 31.3563C81.1192 31.7892 81.6479 32.1311 82.2568 32.3675C82.8658 32.6076 83.5367 32.7276 84.2587 32.7276C85.0426 32.7276 85.7646 32.5858 86.4027 32.3093C87.0189 32.0438 87.5549 31.6692 87.9888 31.2036H91.5185V33.1314H93.7682V24.6891C93.7682 23.8925 93.1192 23.2487 92.3206 23.2487L92.3279 23.245ZM89.2468 27.9263C89.2468 27.5953 89.2103 27.2607 89.1411 26.9333H91.5221V29.1157H89.1119C89.1484 28.9593 89.1812 28.8029 89.2031 28.6465C89.2322 28.421 89.2505 28.1809 89.2505 27.93L89.2468 27.9263ZM86.9934 27.9263C86.9934 28.3301 86.9314 28.7047 86.8001 29.0357C86.6725 29.3667 86.4902 29.6577 86.2423 29.8978C86.0162 30.1378 85.7318 30.3233 85.3963 30.4579C85.0608 30.5925 84.6743 30.658 84.2587 30.658C83.843 30.658 83.4565 30.5925 83.121 30.4579C82.7892 30.327 82.4975 30.1378 82.2641 29.8978C82.0271 29.6577 81.8484 29.3667 81.7208 29.0357C81.5932 28.7047 81.5276 28.3301 81.5276 27.9263C81.5276 27.5226 81.5932 27.1479 81.7208 26.8169C81.8448 26.4859 82.0271 26.1986 82.2641 25.9549C82.5011 25.7148 82.7892 25.5257 83.121 25.3947C83.4601 25.2638 83.843 25.1947 84.2587 25.1947C84.6743 25.1947 85.0608 25.2638 85.3963 25.3947C85.7281 25.5257 86.0198 25.7148 86.2532 25.9549C86.4902 26.1949 86.6689 26.4859 86.7965 26.8169C86.9241 27.1479 86.9897 27.5226 86.9897 27.9263H86.9934Z" fill="#0058AA"/>
<path d="M97.8965 36.531H108.518V40.4302H110.768V34.5195H97.8965V36.531Z" fill="#0058AA"/>
<path d="M102.713 33.6708C103.792 33.6708 104.675 33.3907 105.324 32.8378C105.98 32.2813 106.312 31.4629 106.312 30.4153C106.312 29.3678 105.98 28.5494 105.324 27.9892C104.671 27.4363 103.792 27.1562 102.713 27.1562H100.219C99.1395 27.1562 98.2607 27.4363 97.608 27.9892C96.9517 28.5457 96.6162 29.3641 96.6162 30.4117C96.6162 31.4592 96.9517 32.2777 97.608 32.8342C98.2571 33.387 99.1358 33.6671 100.219 33.6671H102.713V33.6708ZM103.949 29.8297C104.022 29.9861 104.062 30.1825 104.062 30.4153C104.062 30.6481 104.022 30.8445 103.949 31.0009C103.872 31.1573 103.774 31.2774 103.643 31.372C103.508 31.4702 103.347 31.5356 103.169 31.5756C102.979 31.6193 102.771 31.6411 102.549 31.6411H100.39C100.168 31.6411 99.9599 31.6193 99.7703 31.5756C99.5916 31.5356 99.4312 31.4702 99.2926 31.372C99.1613 31.281 99.0592 31.1573 98.9863 31.0009C98.9097 30.8445 98.8769 30.6481 98.8769 30.4153C98.8769 29.9643 99.0155 29.6442 99.2853 29.4732C99.5843 29.2841 99.9526 29.1895 100.39 29.1895H102.549C102.771 29.1895 102.979 29.2114 103.169 29.2514C103.347 29.2914 103.508 29.3605 103.643 29.4587C103.77 29.5496 103.876 29.6769 103.949 29.8297Z" fill="#0058AA"/>
<path d="M106.815 24.4764H102.64V24.2763C102.64 23.4798 101.991 22.8359 101.196 22.8359H100.386V24.4764H96.1748V26.5824H106.815V24.4764Z" fill="#0058AA"/>
<path d="M109.324 23.1641H108.518V27.0269H106.728V29.0748H108.518V30.3879H106.728V32.4357H108.518V33.9961H110.768V24.6045C110.768 23.8079 110.119 23.1641 109.324 23.1641Z" fill="#0058AA"/>
<path d="M127.759 24.5654C127.759 23.7725 127.114 23.125 126.315 23.125H125.506V35.7757H127.759V24.5654Z" fill="#0058AA"/>
<path d="M116.522 31.5037C116.949 31.1254 117.364 30.7508 117.751 30.3907C118.09 30.0778 118.4 29.7723 118.677 29.4922C118.958 29.7723 119.271 30.0633 119.607 30.3652C120 30.7217 120.405 31.0745 120.81 31.42C121.233 31.7874 121.645 32.1329 122.028 32.453C122.429 32.7877 122.805 33.0932 123.151 33.366L123.282 33.4679L124.569 31.7583L124.442 31.6565C123.702 31.0745 122.95 30.4416 122.207 29.7796C121.466 29.1212 120.795 28.4774 120.212 27.8663C120.055 27.7063 119.953 27.5353 119.898 27.3607C119.84 27.1789 119.815 26.9643 119.815 26.7242V23.4688H117.525V26.7242C117.525 26.9643 117.495 27.1752 117.441 27.3498C117.386 27.5171 117.28 27.6917 117.124 27.8663C116.85 28.1682 116.533 28.4992 116.179 28.8448C115.84 29.183 115.472 29.5322 115.085 29.8814C114.735 30.2015 114.349 30.5471 113.933 30.9144C113.55 31.2527 113.167 31.5801 112.799 31.8892L112.679 31.9911L113.908 33.5806L113.97 33.6606L114.101 33.5515C114.447 33.2678 114.834 32.9477 115.249 32.5949C115.661 32.2493 116.088 31.8783 116.518 31.5037H116.522Z" fill="#0058AA"/>
<path d="M117.305 34.1133H115.056V40.1986H128.15V38.0926H117.305V34.1133Z" fill="#0058AA"/>
<path d="M144.85 28.5043C144.85 27.7113 144.201 27.0639 143.402 27.0639H142.37V25.0961H144.478V24.5068C144.478 23.7102 143.829 23.0664 143.034 23.0664H131.293V25.0961H133.36V27.0639H130.921V29.0935H144.85V28.5043ZM140.121 25.0961V27.0639H135.614V25.0961H140.121Z" fill="#0058AA"/>
<path d="M146.013 29.9414H129.758V31.9347H146.013V29.9414Z" fill="#0058AA"/>
<path d="M133.58 37.5873H144.442V32.7969H131.312V34.7902H142.188V35.6377H131.33V40.4281H144.81V38.4384H133.58V37.5873Z" fill="#0058AA"/>
<path d="M158.48 29.1699H160.27V34.4804H162.523V24.6123C162.523 23.8157 161.874 23.1719 161.079 23.1719H160.274V27.0639H158.483V24.8087C158.483 24.0157 157.834 23.3683 157.036 23.3683H156.248V33.171H158.483V29.1735L158.48 29.1699Z" fill="#0058AA"/>
<path d="M162.177 38.0838C161.733 37.8947 161.277 37.691 160.814 37.4873C160.373 37.2909 159.92 37.0835 159.468 36.8689C159.027 36.6616 158.644 36.4725 158.298 36.2906C158.079 36.1815 157.9 36.0651 157.773 35.9487C157.645 35.8323 157.543 35.7086 157.474 35.585C157.404 35.4613 157.357 35.3267 157.335 35.1848C157.313 35.0394 157.302 34.8611 157.302 34.6611V33.9336H154.976V34.6611C154.976 35.043 154.91 35.3594 154.79 35.5995C154.67 35.8323 154.396 36.0651 153.973 36.2906C153.623 36.4688 153.237 36.658 152.796 36.8689C152.343 37.0835 151.895 37.2909 151.461 37.4837C150.98 37.6983 150.52 37.8983 150.086 38.0802C149.634 38.273 149.211 38.4476 148.832 38.6003L148.653 38.6731L149.769 40.5027L149.9 40.4517C150.699 40.1353 151.581 39.7679 152.518 39.3569C153.445 38.9532 154.327 38.5458 155.14 38.1457C155.355 38.0402 155.552 37.9238 155.727 37.8037C155.858 37.7128 155.997 37.611 156.139 37.5091C156.274 37.611 156.413 37.7092 156.551 37.8037C156.726 37.9238 156.923 38.0402 157.138 38.1457C157.955 38.5458 158.837 38.9532 159.756 39.3569C160.675 39.7606 161.558 40.128 162.378 40.4517L162.506 40.5027L163.625 38.6694L163.443 38.5967C163.027 38.433 162.604 38.2584 162.181 38.0765L162.177 38.0838Z" fill="#0058AA"/>
<path d="M147.471 27.2969V33.1494H155.471V31.0797H149.707V29.3265H154.804V23.4922H147.453V25.5618H152.569V27.2969H147.471Z" fill="#0058AA"/>
<path d="M173.018 31.334V30.1773H178.834V29.5517C178.834 28.7587 178.185 28.1113 177.39 28.1113H176.358V25.2923H178.466V24.6667C178.466 23.8701 177.816 23.2227 177.022 23.2227H165.277V25.2923H167.348V28.1113H164.912V30.1809H170.728V31.3376H163.749V33.4436H180.004V31.3376H173.022L173.018 31.334ZM169.601 28.1076V25.2887H174.108V28.1076H169.601Z" fill="#0058AA"/>
<path d="M165.316 40.2382H178.429V34.2656H165.316V40.2382ZM176.179 36.3353V38.1285H167.57V36.3353H176.179Z" fill="#0058AA"/>
<path d="M65.8887 48.0305C65.7137 48.256 65.473 48.427 65.1667 48.5434C64.8568 48.6598 64.5068 48.718 64.1166 48.718C63.7265 48.718 63.3582 48.627 63.0482 48.4452C62.7383 48.2633 62.4976 48.0014 62.3299 47.6631C62.1622 47.3248 62.0747 46.9284 62.0674 46.4773V46.1027C62.0674 45.3789 62.2424 44.8114 62.5888 44.404C62.9352 43.9967 63.4238 43.793 64.0437 43.793C64.5797 43.793 65.0027 43.9239 65.3199 44.1894C65.6335 44.455 65.8231 44.8333 65.8887 45.3316H65.0683C64.9771 44.7532 64.6417 44.4659 64.0619 44.4659C63.6863 44.4659 63.4019 44.6005 63.2087 44.8696C63.0154 45.1388 62.9133 45.5316 62.906 46.0518V46.4191C62.906 46.9356 63.0154 47.3394 63.2342 47.6267C63.453 47.9141 63.7593 48.056 64.1458 48.056C64.5724 48.056 64.875 47.9614 65.0574 47.765V46.8265H64.0656V46.1936H65.8887V48.0305Z" fill="#898989"/>
<path d="M68.8643 48.6535C68.8278 48.5844 68.7987 48.4753 68.7731 48.3189C68.5179 48.5844 68.2043 48.719 67.836 48.719C67.4678 48.719 67.1833 48.6172 66.9573 48.4135C66.7312 48.2098 66.6182 47.9552 66.6182 47.6569C66.6182 47.2786 66.7604 46.984 67.0411 46.7839C67.3255 46.5802 67.7303 46.4784 68.2554 46.4784H68.7476V46.2456C68.7476 46.0601 68.6966 45.9146 68.5908 45.8018C68.4887 45.6927 68.3283 45.6345 68.1204 45.6345C67.9381 45.6345 67.7886 45.6782 67.6719 45.7727C67.5553 45.8637 67.4969 45.9801 67.4969 46.1183H66.6947C66.6947 45.9219 66.7604 45.74 66.888 45.569C67.0193 45.3981 67.1943 45.2635 67.4167 45.1689C67.6391 45.0744 67.8907 45.0234 68.1642 45.0234C68.5835 45.0234 68.9153 45.1289 69.1633 45.3399C69.4112 45.5509 69.5389 45.8455 69.5461 46.2238V47.8315C69.5461 48.1516 69.5899 48.4098 69.6811 48.599V48.6535H68.8606H68.8643ZM67.9819 48.0788C68.1387 48.0788 68.2882 48.0388 68.4304 47.9624C68.5689 47.886 68.6747 47.7806 68.744 47.6533V46.9803H68.3101C68.0111 46.9803 67.7886 47.0313 67.6391 47.1331C67.4896 47.235 67.4131 47.3841 67.4131 47.5696C67.4131 47.7224 67.4641 47.846 67.5662 47.937C67.6683 48.0279 67.8069 48.0752 67.9782 48.0752L67.9819 48.0788Z" fill="#898989"/>
<path d="M71.1317 45.0889L71.1536 45.4999C71.4162 45.1798 71.7662 45.0234 72.1928 45.0234C72.9367 45.0234 73.3159 45.449 73.3305 46.3002V48.6572H72.5283V46.3474C72.5283 46.1219 72.4809 45.9546 72.3824 45.8455C72.284 45.7364 72.1235 45.6818 71.9011 45.6818C71.5766 45.6818 71.3359 45.8273 71.1791 46.1183V48.6535H70.377V45.0889H71.1317Z" fill="#898989"/>
<path d="M74.0095 46.8458C74.0095 46.2929 74.1408 45.8491 74.3997 45.5181C74.6622 45.1871 75.0049 45.0234 75.4389 45.0234C75.8472 45.0234 76.1681 45.1653 76.4015 45.449L76.4379 45.0889H77.1599V48.5444C77.1599 49.0136 77.0141 49.381 76.7224 49.6502C76.4307 49.9193 76.0368 50.0539 75.541 50.0539C75.2784 50.0539 75.0232 49.9993 74.7716 49.8902C74.5236 49.7811 74.3304 49.6392 74.2028 49.4647L74.582 48.9845C74.8299 49.2755 75.1326 49.421 75.4935 49.421C75.7597 49.421 75.9712 49.3483 76.1244 49.2064C76.2775 49.0645 76.3541 48.8499 76.3541 48.5735V48.3334C76.1244 48.5917 75.8144 48.719 75.4279 48.719C75.0086 48.719 74.6695 48.5517 74.4033 48.2207C74.1371 47.8897 74.0059 47.4314 74.0059 46.8421L74.0095 46.8458ZM74.808 46.9149C74.808 47.2713 74.881 47.555 75.0268 47.7587C75.1727 47.9624 75.3769 48.0679 75.6358 48.0679C75.9603 48.0679 76.2009 47.9297 76.3541 47.6533V46.0855C76.2009 45.8164 75.9639 45.6818 75.6394 45.6818C75.3732 45.6818 75.169 45.7873 75.0232 45.9946C74.8773 46.2019 74.8044 46.5111 74.8044 46.9185L74.808 46.9149Z" fill="#898989"/>
<path d="M81.1233 47.5484L81.6921 45.0859H82.4761L81.5025 48.6506H80.8425L80.0768 46.2026L79.3257 48.6506H78.6657L77.6885 45.0859H78.4724L79.0485 47.5193L79.7815 45.0859H80.3867L81.1306 47.5484H81.1233Z" fill="#898989"/>
<path d="M82.8591 46.8385C82.8591 46.4893 82.9284 46.1765 83.067 45.8964C83.2055 45.6163 83.4024 45.4017 83.6504 45.249C83.902 45.0998 84.19 45.0234 84.5145 45.0234C84.9959 45.0234 85.3897 45.1798 85.6887 45.489C85.9876 45.7982 86.1517 46.2092 86.1736 46.7221V46.9112C86.1736 47.2641 86.108 47.5769 85.9731 47.8533C85.8382 48.1297 85.6449 48.3444 85.3933 48.4971C85.1417 48.6499 84.85 48.7226 84.5218 48.7226C84.0186 48.7226 83.6139 48.5553 83.3113 48.2207C83.0086 47.886 82.8555 47.4386 82.8555 46.8821V46.8421L82.8591 46.8385ZM83.6613 46.9076C83.6613 47.275 83.7379 47.5623 83.891 47.7696C84.0405 47.977 84.252 48.0788 84.5255 48.0788C84.799 48.0788 85.0068 47.9733 85.1563 47.7624C85.3058 47.5514 85.3824 47.2422 85.3824 46.8348C85.3824 46.4747 85.3058 46.191 85.149 45.9801C84.9922 45.7691 84.7844 45.6636 84.5182 45.6636C84.252 45.6636 84.0478 45.7691 83.8947 45.9764C83.7415 46.1838 83.6649 46.4929 83.6649 46.9076H83.6613Z" fill="#898989"/>
<path d="M87.6024 45.0889L87.6243 45.4999C87.8869 45.1798 88.2333 45.0234 88.6635 45.0234C89.4074 45.0234 89.7866 45.449 89.8012 46.3002V48.6572H88.999V46.3474C88.999 46.1219 88.9516 45.9546 88.8531 45.8455C88.7547 45.7364 88.5942 45.6818 88.3718 45.6818C88.0473 45.6818 87.8066 45.8273 87.6498 46.1183V48.6535H86.8477V45.0889H87.6024Z" fill="#898989"/>
<path d="M94.1476 46.809H93.2178V48.6531H92.3828V43.8555H94.0747C94.6289 43.8555 95.0592 43.9791 95.3582 44.2265C95.6608 44.4738 95.8103 44.8339 95.8103 45.3031C95.8103 45.6232 95.7338 45.8924 95.577 46.1106C95.4202 46.3252 95.2051 46.4926 94.9279 46.609L96.0072 48.6059V48.6495H95.1102L94.1476 46.8054V46.809ZM93.2178 46.1361H94.0747C94.3555 46.1361 94.5779 46.067 94.7347 45.9251C94.8951 45.7833 94.9717 45.5905 94.9717 45.3432C94.9717 45.0958 94.8988 44.8885 94.7529 44.7466C94.6071 44.6048 94.3883 44.532 94.0966 44.5284H93.2142V46.1361H93.2178Z" fill="#898989"/>
<path d="M98.0998 48.719C97.5929 48.719 97.1772 48.559 96.8637 48.2389C96.5464 47.9188 96.3896 47.4932 96.3896 46.9622V46.8639C96.3896 46.5075 96.4589 46.191 96.5975 45.911C96.7361 45.6309 96.9293 45.4126 97.1773 45.2562C97.4252 45.0998 97.7023 45.0234 98.0086 45.0234C98.4936 45.0234 98.8728 45.1798 99.1353 45.489C99.4015 45.7982 99.5328 46.2383 99.5328 46.8021V47.1258H97.1991C97.2247 47.4205 97.3231 47.6533 97.4945 47.8242C97.6659 47.9952 97.8846 48.0825 98.1472 48.0825C98.5154 48.0825 98.8144 47.9333 99.0442 47.6387L99.4781 48.0497C99.3359 48.2643 99.1426 48.428 98.9056 48.5444C98.6649 48.6608 98.3988 48.719 98.0998 48.719ZM98.005 45.6636C97.7862 45.6636 97.6075 45.74 97.4726 45.8928C97.3377 46.0455 97.2502 46.2601 97.2137 46.5366H98.7415V46.4784C98.7233 46.2092 98.654 46.0092 98.5264 45.8709C98.4024 45.7327 98.2274 45.6636 98.005 45.6636Z" fill="#898989"/>
<path d="M100.014 46.8458C100.014 46.2929 100.146 45.8491 100.405 45.5181C100.667 45.1871 101.01 45.0234 101.444 45.0234C101.852 45.0234 102.173 45.1653 102.406 45.449L102.443 45.0889H103.165V48.5444C103.165 49.0136 103.019 49.381 102.727 49.6502C102.436 49.9193 102.042 50.0539 101.546 50.0539C101.283 50.0539 101.028 49.9993 100.776 49.8902C100.529 49.7811 100.335 49.6392 100.208 49.4647L100.587 48.9845C100.835 49.2755 101.137 49.421 101.498 49.421C101.765 49.421 101.976 49.3483 102.129 49.2064C102.282 49.0645 102.359 48.8499 102.359 48.5735V48.3334C102.129 48.5917 101.819 48.719 101.433 48.719C101.013 48.719 100.674 48.5517 100.408 48.2207C100.142 47.8897 100.011 47.4314 100.011 46.8421L100.014 46.8458ZM100.813 46.9149C100.813 47.2713 100.886 47.555 101.032 47.7587C101.178 47.9624 101.382 48.0679 101.641 48.0679C101.965 48.0679 102.206 47.9297 102.359 47.6533V46.0855C102.206 45.8164 101.969 45.6818 101.644 45.6818C101.382 45.6818 101.174 45.7873 101.028 45.9946C100.882 46.2019 100.809 46.5111 100.809 46.9185L100.813 46.9149Z" fill="#898989"/>
<path d="M103.989 44.1639C103.989 44.0402 104.029 43.9383 104.106 43.8583C104.183 43.7783 104.296 43.7383 104.441 43.7383C104.587 43.7383 104.7 43.7783 104.777 43.8583C104.857 43.9383 104.897 44.0402 104.897 44.1639C104.897 44.2875 104.857 44.3857 104.777 44.4658C104.697 44.5458 104.587 44.5858 104.441 44.5858C104.296 44.5858 104.183 44.5458 104.106 44.4658C104.029 44.3857 103.989 44.2839 103.989 44.1639ZM104.842 48.6524H104.04V45.0877H104.842V48.6524Z" fill="#898989"/>
<path d="M105.564 46.8385C105.564 46.4893 105.634 46.1765 105.772 45.8964C105.911 45.6163 106.108 45.4017 106.356 45.249C106.607 45.0998 106.895 45.0234 107.22 45.0234C107.701 45.0234 108.095 45.1798 108.394 45.489C108.693 45.7982 108.857 46.2092 108.883 46.7221V46.9112C108.883 47.2641 108.817 47.5769 108.682 47.8533C108.547 48.1297 108.354 48.3444 108.102 48.4971C107.851 48.6499 107.559 48.7226 107.231 48.7226C106.728 48.7226 106.323 48.5553 106.02 48.2207C105.718 47.886 105.564 47.4386 105.564 46.8821V46.8421V46.8385ZM106.367 46.9076C106.367 47.275 106.443 47.5623 106.593 47.7696C106.746 47.977 106.957 48.0788 107.227 48.0788C107.497 48.0788 107.708 47.9733 107.858 47.7624C108.007 47.5514 108.084 47.2422 108.084 46.8348C108.084 46.4747 108.007 46.191 107.851 45.9801C107.694 45.7691 107.486 45.6636 107.216 45.6636C106.946 45.6636 106.746 45.7691 106.593 45.9764C106.44 46.1838 106.363 46.4929 106.363 46.9076H106.367Z" fill="#898989"/>
<path d="M110.311 45.0889L110.333 45.4999C110.596 45.1798 110.942 45.0234 111.373 45.0234C112.116 45.0234 112.496 45.449 112.51 46.3002V48.6572H111.708V46.3474C111.708 46.1219 111.661 45.9546 111.562 45.8455C111.464 45.7364 111.303 45.6818 111.081 45.6818C110.756 45.6818 110.516 45.8273 110.359 46.1183V48.6535H109.557V45.0889H110.311Z" fill="#898989"/>
<path d="M115.464 48.6535C115.427 48.5844 115.398 48.4753 115.373 48.3189C115.118 48.5844 114.804 48.719 114.436 48.719C114.067 48.719 113.783 48.6172 113.557 48.4135C113.331 48.2098 113.218 47.9552 113.218 47.6569C113.218 47.2786 113.36 46.984 113.641 46.7839C113.925 46.5802 114.33 46.4784 114.855 46.4784H115.347V46.2456C115.347 46.0601 115.296 45.9146 115.19 45.8018C115.088 45.6927 114.932 45.6345 114.72 45.6345C114.538 45.6345 114.388 45.6782 114.272 45.7727C114.155 45.8637 114.097 45.9801 114.097 46.1183H113.294C113.294 45.9219 113.36 45.74 113.491 45.569C113.623 45.3981 113.798 45.2635 114.02 45.1689C114.242 45.0744 114.494 45.0234 114.767 45.0234C115.187 45.0234 115.519 45.1289 115.77 45.3399C116.018 45.5509 116.146 45.8455 116.153 46.2238V47.8315C116.153 48.1516 116.197 48.4098 116.288 48.599V48.6535H115.468H115.464ZM114.581 48.0788C114.738 48.0788 114.888 48.0388 115.03 47.9624C115.169 47.886 115.274 47.7806 115.347 47.6533V46.9803H114.913C114.618 46.9803 114.392 47.0313 114.242 47.1331C114.093 47.235 114.016 47.3841 114.016 47.5696C114.016 47.7224 114.067 47.846 114.169 47.937C114.272 48.0279 114.41 48.0752 114.581 48.0752V48.0788Z" fill="#898989"/>
<path d="M117.841 48.6533H117.039V43.5938H117.841V48.6533Z" fill="#898989"/>
<path d="M121.357 48.6531H120.525V43.8555H121.357V48.6531Z" fill="#898989"/>
<path d="M123.052 45.0889L123.074 45.4999C123.336 45.1798 123.682 45.0234 124.113 45.0234C124.857 45.0234 125.236 45.449 125.25 46.3002V48.6572H124.448V46.3474C124.448 46.1219 124.401 45.9546 124.302 45.8455C124.204 45.7364 124.043 45.6818 123.821 45.6818C123.497 45.6818 123.256 45.8273 123.099 46.1183V48.6535H122.297V45.0889H123.052Z" fill="#898989"/>
<path d="M126.811 45.0889L126.833 45.4999C127.096 45.1798 127.442 45.0234 127.873 45.0234C128.616 45.0234 128.996 45.449 129.01 46.3002V48.6572H128.208V46.3474C128.208 46.1219 128.161 45.9546 128.062 45.8455C127.964 45.7364 127.803 45.6818 127.581 45.6818C127.256 45.6818 127.016 45.8273 126.859 46.1183V48.6535H126.057V45.0889H126.811Z" fill="#898989"/>
<path d="M129.68 46.8385C129.68 46.4893 129.75 46.1765 129.888 45.8964C130.027 45.6163 130.22 45.4017 130.472 45.249C130.723 45.0998 131.011 45.0234 131.336 45.0234C131.817 45.0234 132.211 45.1798 132.51 45.489C132.809 45.7982 132.973 46.2092 132.999 46.7221V46.9112C132.999 47.2641 132.933 47.5769 132.798 47.8533C132.663 48.1297 132.47 48.3444 132.218 48.4971C131.967 48.6499 131.675 48.7226 131.343 48.7226C130.84 48.7226 130.435 48.5553 130.133 48.2207C129.83 47.886 129.677 47.4386 129.677 46.8821V46.8421L129.68 46.8385ZM130.483 46.9076C130.483 47.275 130.559 47.5623 130.709 47.7696C130.858 47.977 131.073 48.0788 131.343 48.0788C131.613 48.0788 131.824 47.9733 131.974 47.7624C132.123 47.5514 132.2 47.2422 132.2 46.8348C132.2 46.4747 132.123 46.191 131.967 45.9801C131.81 45.7691 131.602 45.6636 131.332 45.6636C131.062 45.6636 130.862 45.7691 130.709 45.9764C130.556 46.1838 130.479 46.4929 130.479 46.9076H130.483Z" fill="#898989"/>
<path d="M134.891 47.6357L135.649 45.0859H136.477L135.237 48.6506H134.541L133.294 45.0859H134.125L134.891 47.6357Z" fill="#898989"/>
<path d="M139.06 48.6535C139.023 48.5844 138.994 48.4753 138.968 48.3189C138.713 48.5844 138.4 48.719 138.031 48.719C137.663 48.719 137.379 48.6172 137.153 48.4135C136.927 48.2098 136.813 47.9552 136.813 47.6569C136.813 47.2786 136.956 46.984 137.236 46.7839C137.521 46.5802 137.926 46.4784 138.451 46.4784H138.943V46.2456C138.943 46.0601 138.892 45.9146 138.786 45.8018C138.684 45.6927 138.527 45.6345 138.316 45.6345C138.133 45.6345 137.984 45.6782 137.867 45.7727C137.751 45.8637 137.692 45.9801 137.692 46.1183H136.89C136.89 45.9219 136.956 45.74 137.087 45.569C137.218 45.3981 137.393 45.2635 137.616 45.1689C137.838 45.0744 138.09 45.0234 138.363 45.0234C138.782 45.0234 139.114 45.1289 139.366 45.3399C139.614 45.5509 139.741 45.8455 139.749 46.2238V47.8315C139.749 48.1516 139.793 48.4098 139.884 48.599V48.6535H139.063H139.06ZM138.177 48.0788C138.334 48.0788 138.483 48.0388 138.626 47.9624C138.764 47.886 138.87 47.7806 138.943 47.6533V46.9803H138.509C138.214 46.9803 137.988 47.0313 137.838 47.1331C137.689 47.235 137.612 47.3841 137.612 47.5696C137.612 47.7224 137.663 47.846 137.765 47.937C137.867 48.0279 138.006 48.0752 138.177 48.0752V48.0788Z" fill="#898989"/>
<path d="M141.59 44.2227V45.0883H142.221V45.6812H141.59V47.6709C141.59 47.8091 141.616 47.9037 141.67 47.9655C141.725 48.0273 141.82 48.0564 141.958 48.0564C142.05 48.0564 142.144 48.0455 142.239 48.0237V48.6421C142.057 48.693 141.882 48.7184 141.71 48.7184C141.094 48.7184 140.784 48.3802 140.784 47.7V45.6812H140.197V45.0883H140.784V44.2227H141.587H141.59Z" fill="#898989"/>
<path d="M142.837 44.1639C142.837 44.0402 142.877 43.9383 142.954 43.8583C143.03 43.7783 143.143 43.7383 143.289 43.7383C143.435 43.7383 143.548 43.7783 143.625 43.8583C143.705 43.9383 143.745 44.0402 143.745 44.1639C143.745 44.2875 143.705 44.3857 143.625 44.4658C143.544 44.5458 143.435 44.5858 143.289 44.5858C143.143 44.5858 143.034 44.5458 142.954 44.4658C142.877 44.3857 142.837 44.2839 142.837 44.1639ZM143.69 48.6524H142.888V45.0877H143.69V48.6524Z" fill="#898989"/>
<path d="M144.412 46.8385C144.412 46.4893 144.481 46.1765 144.62 45.8964C144.758 45.6163 144.952 45.4017 145.203 45.249C145.455 45.0998 145.743 45.0234 146.067 45.0234C146.549 45.0234 146.942 45.1798 147.241 45.489C147.54 45.7982 147.704 46.2092 147.73 46.7221V46.9112C147.73 47.2641 147.664 47.5769 147.529 47.8533C147.395 48.1297 147.201 48.3444 146.95 48.4971C146.698 48.6499 146.406 48.7226 146.075 48.7226C145.571 48.7226 145.167 48.5553 144.864 48.2207C144.561 47.886 144.408 47.4386 144.408 46.8821V46.8421L144.412 46.8385ZM145.214 46.9076C145.214 47.275 145.291 47.5623 145.44 47.7696C145.593 47.977 145.805 48.0788 146.075 48.0788C146.344 48.0788 146.556 47.9733 146.705 47.7624C146.855 47.5514 146.931 47.2422 146.931 46.8348C146.931 46.4747 146.855 46.191 146.698 45.9801C146.541 45.7691 146.333 45.6636 146.064 45.6636C145.794 45.6636 145.593 45.7691 145.44 45.9764C145.287 46.1838 145.21 46.4929 145.21 46.9076H145.214Z" fill="#898989"/>
<path d="M149.156 45.0889L149.178 45.4999C149.441 45.1798 149.787 45.0234 150.217 45.0234C150.961 45.0234 151.34 45.449 151.355 46.3002V48.6572H150.553V46.3474C150.553 46.1219 150.505 45.9546 150.407 45.8455C150.308 45.7364 150.148 45.6818 149.926 45.6818C149.601 45.6818 149.36 45.8273 149.204 46.1183V48.6535H148.401V45.0889H149.156Z" fill="#898989"/>
<path d="M154.772 46.8745V48.6531H153.937V43.8555H155.774C156.31 43.8555 156.737 43.9937 157.054 44.2738C157.371 44.5538 157.528 44.9212 157.528 45.3832C157.528 45.8451 157.375 46.2198 157.065 46.4816C156.755 46.7435 156.321 46.8745 155.767 46.8745H154.772ZM154.772 46.2016H155.774C156.073 46.2016 156.299 46.1325 156.456 45.9906C156.613 45.8524 156.689 45.6487 156.689 45.3868C156.689 45.1249 156.609 44.9212 156.452 44.7648C156.292 44.612 156.077 44.532 155.8 44.5247H154.772V46.1979V46.2016Z" fill="#898989"/>
<path d="M159.034 48.6533H158.231V43.5938H159.034V48.6533Z" fill="#898989"/>
<path d="M162.042 48.6535C162.006 48.5844 161.976 48.4753 161.951 48.3189C161.696 48.5844 161.382 48.719 161.014 48.719C160.645 48.719 160.361 48.6172 160.135 48.4135C159.909 48.2098 159.796 47.9552 159.796 47.6569C159.796 47.2786 159.938 46.984 160.219 46.7839C160.503 46.5802 160.908 46.4784 161.433 46.4784H161.925V46.2456C161.925 46.0601 161.874 45.9146 161.769 45.8018C161.666 45.6927 161.506 45.6345 161.298 45.6345C161.116 45.6345 160.966 45.6782 160.85 45.7727C160.733 45.8637 160.675 45.9801 160.675 46.1183H159.872C159.872 45.9219 159.938 45.74 160.069 45.569C160.201 45.3981 160.376 45.2635 160.598 45.1689C160.821 45.0744 161.072 45.0234 161.346 45.0234C161.765 45.0234 162.097 45.1289 162.348 45.3399C162.596 45.5509 162.724 45.8455 162.731 46.2238V47.8315C162.731 48.1516 162.775 48.4098 162.866 48.599V48.6535H162.046H162.042ZM161.16 48.0788C161.316 48.0788 161.466 48.0388 161.608 47.9624C161.747 47.886 161.852 47.7806 161.925 47.6533V46.9803H161.491C161.196 46.9803 160.97 47.0313 160.821 47.1331C160.671 47.235 160.594 47.3841 160.594 47.5696C160.594 47.7224 160.645 47.846 160.748 47.937C160.85 48.0279 160.988 48.0752 161.16 48.0752V48.0788Z" fill="#898989"/>
<path d="M164.573 44.2227V45.0883H165.203V45.6812H164.573V47.6709C164.573 47.8091 164.602 47.9037 164.653 47.9655C164.707 48.0273 164.802 48.0564 164.941 48.0564C165.032 48.0564 165.127 48.0455 165.222 48.0237V48.6421C165.039 48.693 164.864 48.7184 164.693 48.7184C164.077 48.7184 163.767 48.3802 163.767 47.7V45.6812H163.18V45.0883H163.767V44.2227H164.569H164.573Z" fill="#898989"/>
<path d="M166.097 48.6518V45.6801H165.554V45.0872H166.097V44.7599C166.097 44.3634 166.206 44.0579 166.429 43.8433C166.648 43.6287 166.958 43.5195 167.355 43.5195C167.497 43.5195 167.647 43.5414 167.803 43.5777L167.785 44.2034C167.698 44.1852 167.596 44.1779 167.479 44.1779C167.096 44.1779 166.903 44.3743 166.903 44.7671V45.0836H167.628V45.6765H166.903V48.6482H166.101L166.097 48.6518Z" fill="#898989"/>
<path d="M168.062 46.8385C168.062 46.4893 168.132 46.1765 168.27 45.8964C168.409 45.6163 168.602 45.4017 168.853 45.249C169.105 45.0998 169.393 45.0234 169.718 45.0234C170.199 45.0234 170.593 45.1798 170.892 45.489C171.191 45.7982 171.355 46.2092 171.38 46.7221V46.9112C171.38 47.2641 171.315 47.5769 171.18 47.8533C171.045 48.1297 170.852 48.3444 170.6 48.4971C170.348 48.6499 170.057 48.7226 169.725 48.7226C169.222 48.7226 168.817 48.5553 168.514 48.2207C168.212 47.886 168.059 47.4386 168.059 46.8821V46.8421L168.062 46.8385ZM168.864 46.9076C168.864 47.275 168.941 47.5623 169.091 47.7696C169.244 47.977 169.455 48.0788 169.725 48.0788C169.995 48.0788 170.206 47.9733 170.356 47.7624C170.505 47.5514 170.582 47.2422 170.582 46.8348C170.582 46.4747 170.505 46.191 170.348 45.9801C170.192 45.7691 169.984 45.6636 169.714 45.6636C169.444 45.6636 169.244 45.7691 169.091 45.9764C168.937 46.1838 168.861 46.4929 168.861 46.9076H168.864Z" fill="#898989"/>
<path d="M173.933 45.82C173.827 45.8018 173.718 45.7946 173.605 45.7946C173.236 45.7946 172.988 45.9364 172.861 46.2165V48.6535H172.059V45.0889H172.824L172.843 45.489C173.036 45.1798 173.306 45.0234 173.648 45.0234C173.761 45.0234 173.856 45.038 173.933 45.0707V45.82Z" fill="#898989"/>
<path d="M175.194 45.0886L175.216 45.4597C175.468 45.1687 175.81 45.0195 176.248 45.0195C176.726 45.0195 177.054 45.2014 177.229 45.5651C177.488 45.2014 177.852 45.0195 178.326 45.0195C178.72 45.0195 179.016 45.1287 179.209 45.3469C179.402 45.5651 179.501 45.8852 179.504 46.3072V48.6496H178.702V46.329C178.702 46.1035 178.651 45.9361 178.552 45.8307C178.454 45.7252 178.29 45.6706 178.06 45.6706C177.878 45.6706 177.728 45.7179 177.612 45.8161C177.495 45.9143 177.415 46.0416 177.367 46.2017V48.646H176.569V46.2999C176.558 45.8816 176.343 45.6706 175.927 45.6706C175.606 45.6706 175.377 45.8016 175.242 46.0635V48.646H174.439V45.0814H175.194V45.0886Z" fill="#898989"/>
<path d="M26.567 47.0565C15.2051 47.0565 5.95807 37.8322 5.95807 26.4982C5.95807 15.1642 15.2015 5.94345 26.567 5.94345H43.7849C49.0574 5.43058 49.8706 0.360099 49.9216 0H26.567C11.9161 0 0 11.8869 0 26.5018C0 41.1167 11.9161 53.0036 26.567 53.0036C40.2662 53.0036 51.5734 42.6081 52.9809 29.3099H46.9754C45.5971 39.3199 36.9736 47.0602 26.5634 47.0602L26.567 47.0565Z" fill="url(#paint0_linear_1661_15935)"/>
<path d="M26.5672 42.18C17.8999 42.18 10.848 35.1453 10.848 26.4993C10.848 17.8533 17.8963 10.8223 26.5672 10.8223H38.9209C41.5243 10.5931 42.538 8.68349 42.9099 7.54136V7.51953H26.5672C16.0731 7.51953 7.53711 16.0346 7.53711 26.5029C7.53711 36.9713 16.0731 45.4863 26.5672 45.4863C36.1059 45.4863 44.0221 38.4517 45.3858 29.311H42.0275C40.6966 36.6221 34.2718 42.1836 26.5672 42.1836V42.18Z" fill="url(#paint1_linear_1661_15935)"/>
<path d="M37.6887 29.306C36.4307 34.2637 31.9202 37.9447 26.5675 37.9447C20.2411 37.9447 15.0925 32.8088 15.0925 26.5016C15.0925 20.1944 20.2411 15.0548 26.5675 15.0548H35.191C37.0798 14.742 37.9403 13.3962 38.3159 12.4213V12.4141H26.5675C18.7789 12.4141 12.4453 18.7322 12.4453 26.5016C12.4453 34.271 18.7789 40.5891 26.5675 40.5891C33.3897 40.5891 39.0998 35.7368 40.4089 29.3096H37.6924L37.6887 29.306Z" fill="url(#paint2_linear_1661_15935)"/>
<path d="M42.4798 23.8434H29.4224C28.726 23.1232 27.7524 22.6758 26.6694 22.6758C24.5582 22.6758 22.8408 24.3853 22.8408 26.495C22.8408 28.6047 24.5546 30.3142 26.6694 30.3142C27.6649 30.3142 28.5692 29.9323 29.251 29.3103H52.9848C53.0833 28.3828 53.138 27.4444 53.138 26.4877C53.138 25.5966 53.0906 24.7127 53.0067 23.8434H42.4798Z" fill="url(#paint3_linear_1661_15935)"/>
<path d="M26.5703 47.055V52.9985C40.2658 52.9948 51.5694 42.5992 52.9805 29.3047H46.9751C45.5967 39.3147 36.9769 47.0514 26.5703 47.055Z" fill="url(#paint4_linear_1661_15935)"/>
<path d="M26.5703 42.1773V45.48C36.1054 45.48 44.0215 38.4417 45.3853 29.3047H42.027C40.6961 36.6121 34.275 42.1737 26.5703 42.1773Z" fill="url(#paint5_linear_1661_15935)"/>
<path d="M37.6879 29.3047C36.4299 34.2588 31.9231 37.9398 26.5703 37.9434V40.5878C33.3926 40.5878 39.0954 35.7319 40.4044 29.3083H37.6879V29.3047Z" fill="url(#paint6_linear_1661_15935)"/>
</g>
<defs>
<linearGradient id="paint0_linear_1661_15935" x1="31.8104" y1="-3.18633" x2="21.9976" y2="52.6081" gradientUnits="userSpaceOnUse">
<stop offset="0.02" stop-color="#37BEF0"/>
<stop offset="0.2" stop-color="#29ADE5"/>
<stop offset="0.8" stop-color="#007DC6"/>
</linearGradient>
<linearGradient id="paint1_linear_1661_15935" x1="30.312" y1="5.30438" x2="23.2935" y2="45.2049" gradientUnits="userSpaceOnUse">
<stop stop-color="#89C122"/>
<stop offset="0.8" stop-color="#00AF97"/>
</linearGradient>
<linearGradient id="paint2_linear_1661_15935" x1="29.3314" y1="10.8354" x2="24.1347" y2="40.3788" gradientUnits="userSpaceOnUse">
<stop stop-color="#FAC02C"/>
<stop offset="0.8" stop-color="#F18700"/>
</linearGradient>
<linearGradient id="paint3_linear_1661_15935" x1="22.8408" y1="26.495" x2="53.138" y2="26.495" gradientUnits="userSpaceOnUse">
<stop offset="0.02" stop-color="#37BEF0"/>
<stop offset="0.17" stop-color="#32B5E9"/>
<stop offset="0.43" stop-color="#259CD9"/>
<stop offset="0.75" stop-color="#0F75BE"/>
<stop offset="0.96" stop-color="#0058AA"/>
</linearGradient>
<linearGradient id="paint4_linear_1661_15935" x1="26.5703" y1="41.1516" x2="53.13" y2="41.1516" gradientUnits="userSpaceOnUse">
<stop offset="0.11" stop-color="#007DC6"/>
<stop offset="1" stop-color="#0057A9"/>
</linearGradient>
<linearGradient id="paint5_linear_1661_15935" x1="26.5703" y1="37.3942" x2="45.5931" y2="37.3942" gradientUnits="userSpaceOnUse">
<stop offset="0.11" stop-color="#00AF97"/>
<stop offset="1" stop-color="#00A0E9"/>
</linearGradient>
<linearGradient id="paint6_linear_1661_15935" x1="26.5703" y1="34.9462" x2="40.6888" y2="34.9462" gradientUnits="userSpaceOnUse">
<stop offset="0.11" stop-color="#F18700"/>
<stop offset="1" stop-color="#EB5902"/>
</linearGradient>
<clipPath id="clip0_1661_15935">
<rect width="180" height="53" fill="white"/>
</clipPath>
</defs>
</svg>
