<svg id="레이어_1" data-name="레이어 1" xmlns="http://www.w3.org/2000/svg" viewBox="0 0 19.35 2.89"><defs><style>.cls-1{fill:#ed6c00;}.cls-2{fill:#fff;}</style></defs><rect class="cls-1" x="8.71" y="9.13" width="0.65" height="0.65" transform="translate(-12.41 -1.91) rotate(-35.88)"/><polygon class="cls-2" points="4.83 2.05 4.09 0.91 3.47 0.91 3.47 2.85 4.07 2.85 4.07 1.75 4.8 2.85 5.42 2.85 5.42 0.91 4.83 0.91 4.83 2.05"/><path class="cls-2" d="M15.59,9.91V11c0,.15,0,.37-.27.37s-.27-.22-.27-.37V9.91h-.62v1.16c0,.68.48.82.89.82s.9-.14.9-.82V9.91Z" transform="translate(-8.59 -9)"/><polygon class="cls-2" points="1.19 0.91 1.79 1.75 1.79 0.91 1.19 0.91 1.19 0.91"/><polygon class="cls-2" points="2.57 1.86 3.22 0.91 2.52 0.91 1.88 1.86 2.59 2.85 3.29 2.85 2.57 1.86"/><polygon class="cls-2" points="1.19 2.85 1.79 2.85 1.19 2.02 1.19 2.85"/><path class="cls-2" d="M17.38,10.08v.15h.8c-.07.34-.39.53-.89.53h0l.07.13h0c.69,0,1.11-.27,1.13-.74v-.08Z" transform="translate(-8.59 -9)"/><path class="cls-2" d="M19.07,10.54h.21v-.15h-.21V10H18.8v1.06h0a1.2,1.2,0,0,0-.49-.08c-.49,0-.78.17-.78.45s.29.45.78.45.78-.17.78-.45Zm-.77,1.21c-.31,0-.5-.12-.5-.31s.19-.31.5-.31.49.12.49.31S18.61,11.75,18.3,11.75Z" transform="translate(-8.59 -9)"/><path class="cls-2" d="M20.27,10c-.31,0-.62.11-.62.37s.31.38.62.38.61-.12.61-.38S20.57,10,20.27,10Zm0,.6c-.17,0-.34-.06-.34-.23s.17-.23.34-.23.33.06.33.23S20.43,10.61,20.27,10.61Z" transform="translate(-8.59 -9)"/><path class="cls-2" d="M19.89,11.84h1.5V10h-.27v.84H19.58V11h.53v.28h.28V11h.73v.16h-.47v.15h.47v.38H20v-.37h-.28v.37A.14.14,0,0,0,19.89,11.84Z" transform="translate(-8.59 -9)"/><path class="cls-2" d="M25,10.3l0,0h.2v-.15h-.48V10h-.28v.18H24v.15h.21l0,0a.43.43,0,0,0-.11.28.48.48,0,0,0,.54.45.49.49,0,0,0,.54-.45A.43.43,0,0,0,25,10.3Zm-.43.59a.31.31,0,0,1,0-.62.29.29,0,0,1,.27.31A.29.29,0,0,1,24.59,10.89Z" transform="translate(-8.59 -9)"/><polygon class="cls-2" points="17.32 1.39 17.12 1.39 17.12 1.01 16.84 1.01 16.84 2.17 15.53 2.17 15.53 2.31 16.84 2.31 16.84 2.85 17.12 2.85 17.12 1.54 17.32 1.54 17.32 1.39"/><polygon class="cls-2" points="19.24 1.1 17.67 1.1 17.67 1.25 18.96 1.25 18.96 2.61 18.7 2.61 18.7 1.88 18.43 1.88 18.43 2.61 18.16 2.61 18.16 1.88 17.88 1.88 17.88 2.61 17.57 2.61 17.57 2.76 19.35 2.76 19.35 2.61 19.24 2.61 19.24 1.1"/><path class="cls-2" d="M23.58,11.85V10h-.26v.55h-.14V10h-.27v1.16h-.75v-.94h.52v-.15h-.8v1.08a.14.14,0,0,0,.13.15h.9v.54h.27V10.72h.14v1.13Z" transform="translate(-8.59 -9)"/></svg>