<svg width="70" height="70" viewBox="0 0 70 70" fill="none" xmlns="http://www.w3.org/2000/svg">
<mask id="mask0_1799_15851" style="mask-type:alpha" maskUnits="userSpaceOnUse" x="0" y="0" width="70" height="70">
<rect width="70" height="70" fill="#D9D9D9"/>
</mask>
<g mask="url(#mask0_1799_15851)">
<path d="M16.4455 18.4375H8.5625V26.4862H16.4455V18.4375Z" fill="#EA5903"/>
<path d="M29.5861 18.4375H21.7031V26.4862H29.5861V18.4375Z" fill="#EA5903"/>
<path d="M42.7267 18.4375H34.8438V26.4862H42.7267V18.4375Z" fill="#EA5903"/>
<path d="M16.4455 31.8516H8.5625V39.9003H16.4455V31.8516Z" fill="#EA5903"/>
<path d="M29.5861 31.8516H21.7031V39.9003H29.5861V31.8516Z" fill="#EA5903"/>
<path d="M42.7267 31.8516H34.8438V39.9003H42.7267V31.8516Z" fill="#EA5903"/>
<path d="M29.5861 50.6328H21.7031V68.0735H29.5861V50.6328Z" fill="#EA5903"/>
<path d="M67.6914 21.1236H49.2908V13.0695C49.2908 12.332 48.7063 11.7334 47.9822 11.7334H44.0355V7.7037C44.0355 6.96617 43.4493 6.36759 42.7269 6.36759H26.954V2.33611C26.954 1.59858 26.3678 1 25.6454 1C24.9231 1 24.3368 1.59858 24.3368 2.33611V6.36581H8.56391C7.84156 6.36581 7.25531 6.96439 7.25531 7.70192V11.7316H3.30859C2.58625 11.7316 2 12.3302 2 13.0677V68.0708C2 68.8084 2.58625 69.407 3.30859 69.407H67.6914C68.4137 69.407 69 68.8084 69 68.0708V22.4597C69 21.7221 68.4137 21.1236 67.6914 21.1236ZM9.8725 9.03803H41.4183V11.7316H9.8725V9.03803ZM4.61719 14.4038H46.6736V66.7347H36.1526V45.2644C36.1526 44.5268 35.5681 43.9283 34.844 43.9283H16.4486C15.7263 43.9283 15.14 44.5268 15.14 45.2644V66.7347H4.61719V14.4056V14.4038ZM17.7555 66.7347V46.6005H33.5336V66.7347H17.7555ZM54.5461 66.7347V55.9924H61.1258V66.7347H54.5461ZM66.3828 66.7347H63.7447V54.6563C63.7447 53.9188 63.1584 53.3202 62.4361 53.3202H53.2393C52.517 53.3202 51.9307 53.9188 51.9307 54.6563V66.7347H49.2908V23.7958H66.3828V66.7365V66.7347Z" fill="#404040"/>
<path d="M53.2383 29.1611H62.4351C63.1574 29.1611 63.7437 28.5624 63.7437 27.8247C63.7437 27.087 63.1574 26.4883 62.4351 26.4883H53.2383C52.5159 26.4883 51.9297 27.087 51.9297 27.8247C51.9297 28.5624 52.5159 29.1611 53.2383 29.1611Z" fill="#FABF2A"/>
<path d="M53.2383 34.5282H62.4351C63.1574 34.5282 63.7437 33.9313 63.7437 33.1919C63.7437 32.4524 63.1574 31.8555 62.4351 31.8555H53.2383C52.5159 31.8555 51.9297 32.4542 51.9297 33.1919C51.9297 33.9295 52.5159 34.5282 53.2383 34.5282Z" fill="#FABF2A"/>
<path d="M53.2383 39.8954H62.4351C63.1574 39.8954 63.7437 39.2967 63.7437 38.559C63.7437 37.8214 63.1574 37.2227 62.4351 37.2227H53.2383C52.5159 37.2227 51.9297 37.8214 51.9297 38.559C51.9297 39.2967 52.5159 39.8954 53.2383 39.8954Z" fill="#FABF2A"/>
<path d="M53.2383 45.2626H62.4351C63.1574 45.2626 63.7437 44.6639 63.7437 43.9262C63.7437 43.1885 63.1574 42.5898 62.4351 42.5898H53.2383C52.5159 42.5898 51.9297 43.1885 51.9297 43.9262C51.9297 44.6639 52.5159 45.2626 53.2383 45.2626Z" fill="#FABF2A"/>
<path d="M53.2383 50.6259H62.4351C63.1574 50.6259 63.7437 50.0272 63.7437 49.2895C63.7437 48.5518 63.1574 47.9531 62.4351 47.9531H53.2383C52.5159 47.9531 51.9297 48.5518 51.9297 49.2895C51.9297 50.0272 52.5159 50.6259 53.2383 50.6259Z" fill="#FABF2A"/>
</g>
</svg>
