<svg width="42" height="42" viewBox="0 0 42 42" fill="none" xmlns="http://www.w3.org/2000/svg">
<path d="M6.49744 18.9983C6.52755 18.9983 6.55658 18.9983 6.58453 18.9961C7.5469 18.947 8.38991 18.1413 8.95765 16.7286C9.96195 14.2369 9.85013 10.5578 8.70496 8.35394C7.89959 6.80063 6.91894 6.61317 6.40604 6.63883C5.44367 6.68793 4.60066 7.4936 4.03292 8.90518C3.0297 11.3958 3.14045 15.076 4.28346 17.2821C5.0469 18.7495 5.96518 18.9961 6.49636 18.9961L6.49744 18.9983ZM5.15013 9.39059C5.51679 8.47669 6.00927 7.91763 6.46625 7.8942C6.47593 7.8942 6.48561 7.8942 6.49421 7.8942C6.87486 7.8942 7.28991 8.27694 7.63937 8.95093C8.59851 10.7966 8.69099 14.1364 7.84152 16.2466C7.47378 17.1605 6.98131 17.7195 6.52432 17.7429C6.13722 17.7619 5.70819 17.3781 5.35013 16.6896C4.39314 14.8428 4.30174 11.5007 5.15013 9.39171V9.39059Z" fill="#0057A8"/>
<path d="M7.38389 31.0664H4.98711C4.65378 31.0664 4.38281 31.3474 4.38281 31.6931C4.38281 32.0389 4.65378 32.3199 4.98711 32.3199H7.38389C7.7183 32.3199 7.98819 32.0389 7.98819 31.6931C7.98819 31.3474 7.71722 31.0664 7.38389 31.0664Z" fill="#0057A8"/>
<path d="M7.38389 34.8555H4.98711C4.65378 34.8555 4.38281 35.1365 4.38281 35.4822C4.38281 35.8279 4.65378 36.1089 4.98711 36.1089H7.38389C7.7183 36.1089 7.98819 35.8279 7.98819 35.4822C7.98819 35.1365 7.71722 34.8555 7.38389 34.8555Z" fill="#0057A8"/>
<path d="M18.0466 18.9983C18.0767 18.9983 18.1057 18.9983 18.1337 18.9961C19.096 18.947 19.9391 18.1413 20.5068 16.7286C21.51 14.2402 21.3993 10.5611 20.2541 8.35393C19.4487 6.80174 18.4692 6.61316 17.9563 6.63882C16.9928 6.68792 16.1498 7.49247 15.581 8.90517C14.581 11.398 14.6917 15.0771 15.8348 17.2821C16.5982 18.7495 17.5165 18.9961 18.0477 18.9961L18.0466 18.9983ZM16.6971 9.39058C17.0649 8.47668 17.5573 7.91762 18.0154 7.89419C18.4057 7.8741 18.8315 8.25908 19.1896 8.94981C20.1477 10.7966 20.2412 14.1387 19.3917 16.2454C19.024 17.1593 18.5315 17.7184 18.0745 17.7418C17.6885 17.7608 17.2584 17.3769 16.9003 16.6884C15.9434 14.8417 15.8509 11.4996 16.6982 9.39058H16.6971Z" fill="#0057A8"/>
<path d="M18.9297 31.0664H16.534C16.1996 31.0664 15.9297 31.3474 15.9297 31.6931C15.9297 32.0389 16.2007 32.3199 16.534 32.3199H18.9297C19.2641 32.3199 19.534 32.0389 19.534 31.6931C19.534 31.3474 19.263 31.0664 18.9297 31.0664Z" fill="#0057A8"/>
<path d="M18.9297 34.8555H16.534C16.1996 34.8555 15.9297 35.1365 15.9297 35.4822C15.9297 35.8279 16.2007 36.1089 16.534 36.1089H18.9297C19.2641 36.1089 19.534 35.8279 19.534 35.4822C19.534 35.1365 19.263 34.8555 18.9297 34.8555Z" fill="#0057A8"/>
<path d="M41.2753 38.2925L39.3032 25.1307C39.3032 25.1307 39.3032 25.1207 39.3022 25.1162L38.6376 20.6784C38.6376 20.6728 38.6355 20.6672 38.6344 20.6605L37.8505 15.4349C37.7989 15.0923 37.4914 14.858 37.1602 14.9104C36.8301 14.964 36.6043 15.2842 36.6559 15.6268L37.3484 20.251L27.1344 21.898L24.3011 2.99058V2.91358C24.3086 2.90019 24.3194 2.89015 24.3323 2.88792L34.4581 1.2565C34.4817 1.25204 34.5065 1.27101 34.5097 1.29556L36.2204 12.7188C36.272 13.0614 36.5817 13.2957 36.9108 13.2422C37.2409 13.1886 37.4667 12.8672 37.4161 12.5258L35.7054 1.10139C35.5989 0.391693 34.957 -0.0948304 34.272 0.0156416L24.3 1.62251C24.2892 0.913925 23.7323 0.339247 23.0473 0.339247H12.8C12.5624 0.339247 12.3409 0.409547 12.1516 0.530062C11.9613 0.410663 11.7398 0.339247 11.5011 0.339247H1.25376C0.562366 0.340363 0 0.925083 0 1.64259V10.9613C0 11.3083 0.270968 11.5884 0.604301 11.5884C0.937634 11.5884 1.2086 11.3072 1.2086 10.9613V1.64259C1.2086 1.61916 1.23011 1.59461 1.25269 1.59461H11.5C11.5226 1.59461 11.5462 1.61916 11.5462 1.64259V22.5084H1.20968V13.8737C1.20968 13.5267 0.93871 13.2466 0.605376 13.2466C0.272043 13.2466 0.00107527 13.5278 0.00107527 13.8737V39.2779C0.00107527 39.9965 0.563441 40.5812 1.25484 40.5812H11.5022C11.7409 40.5812 11.9624 40.5109 12.1527 40.3904C12.343 40.5098 12.5645 40.5812 12.8022 40.5812H23.0495C23.7409 40.5812 24.3032 39.9965 24.3032 39.2779V11.161L28.6731 40.3257C28.7688 40.9673 29.3054 41.4282 29.9129 41.4282C29.9763 41.4282 30.0409 41.4226 30.1065 41.4125L40.2333 39.7811C40.9161 39.6695 41.3849 39.0022 41.2774 38.2937L41.2753 38.2925ZM12.8 1.59573H23.0473C23.0699 1.59573 23.0914 1.61916 23.0914 1.64371V2.81985C23.0839 2.89907 23.0839 2.97942 23.0914 3.05976V22.5095H12.757V1.64259C12.757 1.61916 12.7785 1.59461 12.8011 1.59461L12.8 1.59573ZM23.0914 26.9998H12.757V23.7649H23.0914V26.9998ZM11.5473 23.7649V26.9998H1.20968V23.7649H11.5473ZM11.5011 39.327H1.25376C1.23118 39.327 1.20968 39.3046 1.20968 39.279V28.2541H11.5473V39.279C11.5473 39.3035 11.5247 39.327 11.5011 39.327ZM23.0484 39.327H12.8011C12.7785 39.327 12.757 39.3046 12.757 39.279V28.2541H23.0914V39.279C23.0914 39.3035 23.071 39.327 23.0473 39.327H23.0484ZM37.5344 21.4919L38.014 24.6889L27.8011 26.3359L27.3226 23.1389L37.5355 21.493L37.5344 21.4919ZM40.0441 38.5391L29.9183 40.1706C29.8946 40.175 29.8699 40.1561 29.8667 40.1315L27.9849 27.5756L38.1989 25.9286L40.0796 38.4856C40.0828 38.509 40.0656 38.5358 40.0441 38.5391V38.5391Z" fill="black"/>
<path d="M29.924 5.38681C28.9799 5.58878 28.2659 6.51831 27.9132 8.00355C27.2928 10.6292 27.9487 14.2469 29.4057 16.241C30.2218 17.3591 31.0186 17.6057 31.5637 17.6057C31.7035 17.6057 31.8272 17.589 31.9293 17.5678C32.8734 17.3658 33.5874 16.4362 33.9401 14.9499C34.5627 12.3287 33.9078 8.71102 32.4508 6.71248C31.424 5.30758 30.4272 5.27857 29.924 5.38569V5.38681ZM32.7659 14.6508C32.5379 15.6116 32.1336 16.2432 31.6853 16.3392C31.3057 16.4206 30.825 16.1082 30.3702 15.4833C29.1498 13.8139 28.5627 10.5266 29.0885 8.30372C29.3164 7.34295 29.7207 6.71136 30.1691 6.61651C30.5498 6.53505 31.0304 6.84638 31.4874 7.47127C32.7078 9.14398 33.2939 12.4325 32.767 14.6508H32.7659Z" fill="#0057A8"/>
<path d="M35.3023 30.6256C35.2507 30.283 34.9421 30.0486 34.612 30.1011L32.2432 30.4827C31.9131 30.5363 31.6862 30.8565 31.7378 31.1991C31.784 31.5093 32.041 31.7303 32.3346 31.7303C32.3657 31.7303 32.3969 31.728 32.4281 31.7225L34.7969 31.3408C35.127 31.2873 35.3528 30.967 35.3023 30.6244V30.6256Z" fill="#0057A8"/>
<path d="M35.3344 34.9384L32.9656 35.32C32.6355 35.3736 32.4097 35.6938 32.4602 36.0364C32.5064 36.3466 32.7645 36.5676 33.057 36.5676C33.0882 36.5676 33.1183 36.5653 33.1505 36.5598L35.5193 36.1781C35.8494 36.1246 36.0752 35.8032 36.0247 35.4617C35.9731 35.1192 35.6645 34.8837 35.3344 34.9373V34.9384Z" fill="#0057A8"/>
</svg>
