<svg width="67" height="69" viewBox="0 0 67 69" fill="none" xmlns="http://www.w3.org/2000/svg">
<path d="M14.4455 17.4375H6.5625V25.4862H14.4455V17.4375Z" fill="#38BEEF"/>
<path d="M27.5861 17.4375H19.7031V25.4862H27.5861V17.4375Z" fill="#38BEEF"/>
<path d="M40.7267 17.4375H32.8438V25.4862H40.7267V17.4375Z" fill="#38BEEF"/>
<path d="M14.4455 30.8516H6.5625V38.9003H14.4455V30.8516Z" fill="#38BEEF"/>
<path d="M27.5861 30.8516H19.7031V38.9003H27.5861V30.8516Z" fill="#38BEEF"/>
<path d="M40.7267 30.8516H32.8438V38.9003H40.7267V30.8516Z" fill="#38BEEF"/>
<path d="M27.5861 49.6328H19.7031V67.0735H27.5861V49.6328Z" fill="#38BEEF"/>
<path d="M65.6914 20.1236H47.2908V12.0695C47.2908 11.332 46.7063 10.7334 45.9822 10.7334H42.0355V6.7037C42.0355 5.96617 41.4493 5.36759 40.7269 5.36759H24.954V1.33611C24.954 0.598576 24.3678 0 23.6454 0C22.9231 0 22.3368 0.598576 22.3368 1.33611V5.36581H6.56391C5.84156 5.36581 5.25531 5.96439 5.25531 6.70192V10.7316H1.30859C0.58625 10.7316 0 11.3302 0 12.0677V67.0708C0 67.8084 0.58625 68.407 1.30859 68.407H65.6914C66.4137 68.407 67 67.8084 67 67.0708V21.4597C67 20.7221 66.4137 20.1236 65.6914 20.1236ZM7.8725 8.03803H39.4183V10.7316H7.8725V8.03803ZM2.61719 13.4038H44.6736V65.7347H34.1526V44.2644C34.1526 43.5268 33.5681 42.9283 32.844 42.9283H14.4486C13.7263 42.9283 13.14 43.5268 13.14 44.2644V65.7347H2.61719V13.4056V13.4038ZM15.7555 65.7347V45.6005H31.5336V65.7347H15.7555ZM52.5461 65.7347V54.9924H59.1258V65.7347H52.5461ZM64.3828 65.7347H61.7447V53.6563C61.7447 52.9188 61.1584 52.3202 60.4361 52.3202H51.2393C50.517 52.3202 49.9307 52.9188 49.9307 53.6563V65.7347H47.2908V22.7958H64.3828V65.7365V65.7347Z" fill="#404040"/>
<path d="M51.2383 28.1611H60.4351C61.1574 28.1611 61.7437 27.5624 61.7437 26.8247C61.7437 26.087 61.1574 25.4883 60.4351 25.4883H51.2383C50.5159 25.4883 49.9297 26.087 49.9297 26.8247C49.9297 27.5624 50.5159 28.1611 51.2383 28.1611Z" fill="#B2F0FB"/>
<path d="M51.2383 33.5282H60.4351C61.1574 33.5282 61.7437 32.9313 61.7437 32.1919C61.7437 31.4524 61.1574 30.8555 60.4351 30.8555H51.2383C50.5159 30.8555 49.9297 31.4542 49.9297 32.1919C49.9297 32.9295 50.5159 33.5282 51.2383 33.5282Z" fill="#B2F0FB"/>
<path d="M51.2383 38.8954H60.4351C61.1574 38.8954 61.7437 38.2967 61.7437 37.559C61.7437 36.8214 61.1574 36.2227 60.4351 36.2227H51.2383C50.5159 36.2227 49.9297 36.8214 49.9297 37.559C49.9297 38.2967 50.5159 38.8954 51.2383 38.8954Z" fill="#B2F0FB"/>
<path d="M51.2383 44.2626H60.4351C61.1574 44.2626 61.7437 43.6639 61.7437 42.9262C61.7437 42.1885 61.1574 41.5898 60.4351 41.5898H51.2383C50.5159 41.5898 49.9297 42.1885 49.9297 42.9262C49.9297 43.6639 50.5159 44.2626 51.2383 44.2626Z" fill="#B2F0FB"/>
<path d="M51.2383 49.6259H60.4351C61.1574 49.6259 61.7437 49.0272 61.7437 48.2895C61.7437 47.5518 61.1574 46.9531 60.4351 46.9531H51.2383C50.5159 46.9531 49.9297 47.5518 49.9297 48.2895C49.9297 49.0272 50.5159 49.6259 51.2383 49.6259Z" fill="#B2F0FB"/>
</svg>
