<svg width="311" height="280" viewBox="0 0 311 280" fill="none" xmlns="http://www.w3.org/2000/svg">
<mask id="mask0_1721_15531" style="mask-type:alpha" maskUnits="userSpaceOnUse" x="0" y="0" width="311" height="280">
<rect width="311" height="280" fill="#D9D9D9"/>
</mask>
<g mask="url(#mask0_1721_15531)">
<path d="M11 140.52L84.75 10.1827L232.25 10.1827L306 140.52L232.25 270.856L84.75 270.856L11 140.52Z" fill="url(#paint0_linear_1721_15531)"/>
<path d="M398.726 12.046H536.943L538.008 12.467C539.996 13.2487 541.602 13.9904 542.807 14.6719L544.233 15.4737L545.056 16.8969L594.977 103.211L601.985 91.2238L554.835 9.74085C552.747 6.13275 548.45 3.42667 540.036 0.399873C539.373 0.159333 538.69 0.0390625 537.988 0.0390625H398.726C391.799 0.0390625 385.353 3.74739 381.899 9.74085L234.726 264.192C233.42 266.477 230.95 267.881 228.32 267.881H89.0588C86.4282 267.881 83.9783 266.457 82.653 264.192L13.0325 143.782C11.7272 141.517 11.7072 138.69 13.0325 136.405L82.653 16.0149C83.9583 13.7499 86.4282 12.3267 89.0588 12.3267H227.276L228.34 12.7476C230.328 13.5294 231.955 14.271 233.159 14.9526L234.585 15.7544L235.408 17.1575L285.571 103.892L292.378 91.6247L245.148 10.0014C243.059 6.39333 238.762 3.68726 230.348 0.660458C229.685 0.419918 229.003 0.299648 228.3 0.299648H89.0588C82.1309 0.299648 75.6849 4.00797 72.231 10.0014L2.59044 130.392C-0.863479 136.385 -0.863479 143.822 2.59044 149.795L72.2109 270.186C75.6648 276.159 82.1309 279.888 89.0387 279.888H228.3C235.228 279.888 241.674 276.179 245.128 270.186L392.321 15.7343C393.626 13.4692 396.096 12.046 398.726 12.046Z" fill="url(#paint1_linear_1721_15531)"/>
<path d="M11 140.52L84.75 10.1827L232.25 10.1827L306 140.52L232.25 270.856L84.75 270.856L11 140.52Z" fill="url(#paint2_linear_1721_15531)"/>
<path d="M398.726 12.046H536.943L538.008 12.467C539.996 13.2487 541.602 13.9904 542.807 14.6719L544.233 15.4737L545.056 16.8969L594.977 103.211L601.985 91.2238L554.835 9.74085C552.747 6.13275 548.45 3.42667 540.036 0.399873C539.373 0.159333 538.69 0.0390625 537.988 0.0390625H398.726C391.799 0.0390625 385.353 3.74739 381.899 9.74085L234.726 264.192C233.42 266.477 230.95 267.881 228.32 267.881H89.0588C86.4282 267.881 83.9783 266.457 82.653 264.192L13.0325 143.782C11.7272 141.517 11.7072 138.69 13.0325 136.405L82.653 16.0149C83.9583 13.7499 86.4282 12.3267 89.0588 12.3267H227.276L228.34 12.7476C230.328 13.5294 231.955 14.271 233.159 14.9526L234.585 15.7544L235.408 17.1575L285.571 103.892L292.378 91.6247L245.148 10.0014C243.059 6.39333 238.762 3.68726 230.348 0.660458C229.685 0.419918 229.003 0.299648 228.3 0.299648H89.0588C82.1309 0.299648 75.6849 4.00797 72.231 10.0014L2.59044 130.392C-0.863479 136.385 -0.863479 143.822 2.59044 149.795L72.2109 270.186C75.6648 276.159 82.1309 279.888 89.0387 279.888H228.3C235.228 279.888 241.674 276.179 245.128 270.186L392.321 15.7343C393.626 13.4692 396.096 12.046 398.726 12.046Z" fill="url(#paint3_linear_1721_15531)"/>
<path d="M11 140.52L84.75 10.1827L232.25 10.1827L306 140.52L232.25 270.856L84.75 270.856L11 140.52Z" fill="url(#paint4_linear_1721_15531)"/>
<path d="M398.726 12.046H536.943L538.008 12.467C539.996 13.2487 541.602 13.9904 542.807 14.6719L544.233 15.4737L545.056 16.8969L594.977 103.211L601.985 91.2238L554.835 9.74085C552.747 6.13275 548.45 3.42667 540.036 0.399873C539.373 0.159333 538.69 0.0390625 537.988 0.0390625H398.726C391.799 0.0390625 385.353 3.74739 381.899 9.74085L234.726 264.192C233.42 266.477 230.95 267.881 228.32 267.881H89.0588C86.4282 267.881 83.9783 266.457 82.653 264.192L13.0325 143.782C11.7272 141.517 11.7072 138.69 13.0325 136.405L82.653 16.0149C83.9583 13.7499 86.4282 12.3267 89.0588 12.3267H227.276L228.34 12.7476C230.328 13.5294 231.955 14.271 233.159 14.9526L234.585 15.7544L235.408 17.1575L285.571 103.892L292.378 91.6247L245.148 10.0014C243.059 6.39333 238.762 3.68726 230.348 0.660458C229.685 0.419918 229.003 0.299648 228.3 0.299648H89.0588C82.1309 0.299648 75.6849 4.00797 72.231 10.0014L2.59044 130.392C-0.863479 136.385 -0.863479 143.822 2.59044 149.795L72.2109 270.186C75.6648 276.159 82.1309 279.888 89.0387 279.888H228.3C235.228 279.888 241.674 276.179 245.128 270.186L392.321 15.7343C393.626 13.4692 396.096 12.046 398.726 12.046Z" fill="url(#paint5_linear_1721_15531)"/>
</g>
<defs>
<linearGradient id="paint0_linear_1721_15531" x1="165" y1="10.0195" x2="165" y2="269.52" gradientUnits="userSpaceOnUse">
<stop stop-color="#03ACA9"/>
<stop offset="1" stop-color="#03ACA9"/>
</linearGradient>
<linearGradient id="paint1_linear_1721_15531" x1="-5.31448" y1="141.446" x2="609.973" y2="143.229" gradientUnits="userSpaceOnUse">
<stop stop-color="#04B091"/>
<stop offset="1" stop-color="#00A0E9"/>
</linearGradient>
<linearGradient id="paint2_linear_1721_15531" x1="165" y1="10.0195" x2="165" y2="269.52" gradientUnits="userSpaceOnUse">
<stop stop-color="#03ACA9"/>
<stop offset="1" stop-color="#03ACA9"/>
</linearGradient>
<linearGradient id="paint3_linear_1721_15531" x1="-5.31448" y1="141.446" x2="609.973" y2="143.229" gradientUnits="userSpaceOnUse">
<stop stop-color="#04B091"/>
<stop offset="1" stop-color="#00A0E9"/>
</linearGradient>
<linearGradient id="paint4_linear_1721_15531" x1="165" y1="10.0195" x2="165" y2="269.52" gradientUnits="userSpaceOnUse">
<stop stop-color="#03ACA9"/>
<stop offset="1" stop-color="#03ACA9"/>
</linearGradient>
<linearGradient id="paint5_linear_1721_15531" x1="-5.31448" y1="141.446" x2="609.973" y2="143.229" gradientUnits="userSpaceOnUse">
<stop stop-color="#04B091"/>
<stop offset="1" stop-color="#00A0E9"/>
</linearGradient>
</defs>
</svg>
