<svg width="36" height="42" viewBox="0 0 36 42" fill="none" xmlns="http://www.w3.org/2000/svg">
<path d="M10.437 11.9604H26.3682C26.6922 11.9604 26.9536 11.6882 26.9536 11.3532C26.9536 11.0183 26.6911 10.7461 26.3682 10.7461H10.437C10.1141 10.7461 9.85156 11.0183 9.85156 11.3532C9.85156 11.6882 10.1141 11.9604 10.437 11.9604Z" fill="#0057A8"/>
<path d="M10.437 7.66743H15.9318C16.2557 7.66743 16.5172 7.39519 16.5172 7.06028C16.5172 6.72537 16.2547 6.45312 15.9318 6.45312H10.437C10.1141 6.45312 9.85156 6.72537 9.85156 7.06028C9.85156 7.39519 10.1141 7.66743 10.437 7.66743Z" fill="#0057A8"/>
<path d="M13.4467 30.8053C13.854 31.2301 14.3478 31.6604 14.9499 31.6604C14.9759 31.6604 15.002 31.6604 15.028 31.6582C15.4676 31.6312 15.8749 31.3728 16.2384 30.8885C16.5082 30.5286 16.6999 30.1718 16.853 29.8854C16.9238 29.7524 17.0113 29.5892 17.0874 29.4724C17.0947 29.4886 17.102 29.5038 17.1082 29.5178C17.3457 30.027 17.7874 30.9761 19.2176 31.0561C19.5395 31.0745 19.8165 30.8172 19.8342 30.4821C19.852 30.147 19.604 29.8605 19.2811 29.8421C18.5415 29.8 18.3749 29.4422 18.1634 28.9881C18.002 28.6411 17.6999 27.9947 16.9655 28.1428C16.3822 28.2595 16.1009 28.7849 15.829 29.293C15.6884 29.5557 15.528 29.854 15.3145 30.1394C15.1759 30.3243 15.0426 30.4378 14.9582 30.4421C14.8853 30.4475 14.7009 30.388 14.278 29.9459C13.1822 28.8033 12.3259 29.5848 11.9155 29.961C11.7395 30.1221 11.5572 30.2886 11.4165 30.3156C11.228 30.3513 10.9478 30.1124 10.7978 29.9675C10.5603 29.7394 10.1895 29.7524 9.96966 29.9989C9.74883 30.2443 9.76237 30.6302 9.99987 30.8583C11.3165 32.1295 12.2103 31.3123 12.6895 30.8734C12.8301 30.7448 13.0051 30.5848 13.0999 30.5653C13.1478 30.5545 13.2759 30.6259 13.4467 30.8042V30.8053Z" fill="#0057A8"/>
<path d="M17.7911 23.63H10.437C10.1141 23.63 9.85156 23.9022 9.85156 24.2371C9.85156 24.572 10.1141 24.8443 10.437 24.8443H18.4026C18.5005 24.8443 18.5922 24.8173 18.6734 24.773C18.3391 24.4284 18.0432 24.0438 17.7901 23.6289L17.7911 23.63Z" fill="#0057A8"/>
<path d="M19.1776 15.0362H10.437C10.1141 15.0362 9.85156 15.3085 9.85156 15.6434C9.85156 15.9783 10.1141 16.2505 10.437 16.2505H18.0495C18.3734 15.7968 18.7526 15.3884 19.1766 15.0352L19.1776 15.0362Z" fill="#0057A8"/>
<path d="M16.8672 19.332H10.437C10.1141 19.332 9.85156 19.6043 9.85156 19.9403C9.85156 20.2763 10.1141 20.5474 10.437 20.5474H16.8307C16.8224 20.4113 16.8172 20.2752 16.8172 20.1369C16.8172 19.8636 16.8349 19.5956 16.8661 19.332H16.8672Z" fill="#0057A8"/>
<path d="M35.7341 29.4748C35.6966 28.851 35.4279 28.2824 34.9789 27.8727L32.657 25.7496V6.35633C32.657 6.33471 32.657 6.31309 32.6549 6.29255C32.6549 6.2785 32.657 6.26444 32.657 6.24931C32.657 6.05905 32.5727 5.88825 32.4393 5.77691C32.3956 5.72718 32.3508 5.68286 32.3081 5.64178C32.281 5.61584 32.2497 5.58557 32.2102 5.54557L27.082 0.466996L27.0091 0.394568C26.8956 0.281062 26.7904 0.177285 26.6612 0.103777C26.6508 0.0983717 26.6404 0.0918857 26.6289 0.0864807C26.5247 0.0335113 26.4049 0 26.2529 0H4.99557C4.41328 0 3.94036 0.489697 3.94036 1.0929V4.25485H1.32266C0.742448 4.25485 0.269531 4.74563 0.269531 5.34991V13.7677C0.269531 14.1039 0.532031 14.3752 0.854948 14.3752C1.17786 14.3752 1.44036 14.1028 1.44036 13.7677V5.47314H3.93932V36.1619C3.93932 36.764 4.41224 37.2548 4.99453 37.2548H11.0914C11.4154 37.2548 11.6768 36.9824 11.6768 36.6473C11.6768 36.3121 11.4143 36.0397 11.0914 36.0397H5.1112V1.21722H25.7872L25.7852 4.2916C25.7831 4.97372 26.0404 5.61692 26.507 6.10337C26.9747 6.58983 27.5956 6.85792 28.2529 6.85792H31.4841V24.7518C30.7529 24.3324 29.8508 24.3735 29.1581 24.8481L28.2143 23.9854C27.9831 24.314 27.7237 24.6189 27.4393 24.8978L28.3841 25.7615C27.9487 26.6814 28.1383 27.8295 28.9133 28.5408L31.4841 30.8898V36.0376H13.8247C13.5008 36.0376 13.2393 36.31 13.2393 36.6451C13.2393 36.9802 13.5018 37.2526 13.8247 37.2526H27.8133V40.2946H1.44141V16.7297C1.44141 16.3935 1.17891 16.1222 0.85599 16.1222C0.533073 16.1222 0.270573 16.3946 0.270573 16.7297V40.4157C0.270573 41.0199 0.74349 41.5107 1.3237 41.5107H27.932C28.5143 41.5107 28.9872 41.0189 28.9872 40.4157V37.2537H31.6018C32.1841 37.2537 32.657 36.764 32.657 36.1608V31.7827C32.9195 31.8919 33.2008 31.9492 33.4904 31.9492C33.5393 31.9492 33.5893 31.9481 33.6383 31.9449C34.2383 31.9049 34.7862 31.626 35.1789 31.1611C35.5747 30.6974 35.7727 30.0974 35.7341 29.4748ZM28.2539 5.6407C27.9091 5.6407 27.5841 5.50017 27.3372 5.24397C27.0914 4.98777 26.956 4.65158 26.957 4.29268L26.9591 2.02581L30.6091 5.6407H28.2539ZM34.2997 30.3569C34.1122 30.5785 33.8497 30.7114 33.5633 30.7309C33.2758 30.7504 32.9997 30.6531 32.7872 30.4585L32.4685 30.1677C32.4591 30.159 32.4497 30.1493 32.4393 30.1407L29.6904 27.6284C29.2466 27.2209 29.2039 26.515 29.5935 26.0534C29.9852 25.594 30.6654 25.5496 31.1091 25.9539L31.6758 26.4728C31.6852 26.4815 31.6945 26.4901 31.7039 26.4977L34.2049 28.7851C34.4185 28.9797 34.5466 29.2521 34.5654 29.5515C34.5831 29.8488 34.4893 30.1353 34.3008 30.3569H34.2997Z" fill="black"/>
<path d="M28.1781 23.9974L28.1552 23.9768C30.0365 21.2938 29.675 17.5037 27.2292 15.265C25.9719 14.1159 24.3583 13.5429 22.6865 13.6543C21.3927 13.7397 20.1844 14.2272 19.1906 15.0477H19.1406C18.7167 15.4012 18.3375 15.8098 18.0135 16.2638H18.0552C17.3885 17.1913 16.9927 18.254 16.8635 19.3425H16.8302C16.799 19.6063 16.7812 19.8755 16.7812 20.1479C16.7812 20.2863 16.7865 20.4225 16.7948 20.5587H16.8281C16.8938 21.6386 17.2167 22.7001 17.7896 23.6385H17.7552C18.0083 24.0536 18.3042 24.4384 18.6385 24.7833C18.6479 24.7778 18.6573 24.7746 18.6656 24.7692C18.7542 24.86 18.8448 24.9497 18.9396 25.0362C20.1292 26.1226 21.6073 26.6566 23.0802 26.6566C24.6375 26.6566 26.1865 26.0588 27.3813 24.8892L27.4042 24.9097C27.6885 24.6319 27.949 24.326 28.1792 23.9974H28.1781ZM26.9104 23.6493C25.0521 25.8383 21.824 26.0513 19.7135 24.1238C17.6031 22.1953 17.399 18.8431 19.2583 16.653C20.1583 15.5914 21.4021 14.958 22.7615 14.8682C22.8729 14.8607 22.9823 14.8574 23.0927 14.8574C24.3333 14.8574 25.5167 15.3201 26.4552 16.1784C28.5646 18.1091 28.7688 21.4602 26.9115 23.6493H26.9104Z" fill="black"/>
</svg>
