<svg width="70" height="70" viewBox="0 0 70 70" fill="none" xmlns="http://www.w3.org/2000/svg">
<mask id="mask0_1799_15868" style="mask-type:alpha" maskUnits="userSpaceOnUse" x="0" y="0" width="70" height="70">
<rect width="70" height="70" fill="#D9D9D9"/>
</mask>
<g mask="url(#mask0_1799_15868)">
<path d="M43.1445 21.2883C47.8302 26.0725 47.8302 33.831 43.1445 38.6152C38.4589 43.3994 30.8601 43.3994 26.1744 38.6152C21.4887 33.831 21.4887 26.0725 26.1744 21.2883C28.4252 18.9902 31.4781 17.6992 34.6604 17.6992C37.8426 17.6992 40.8956 18.9902 43.1445 21.2883Z" fill="#EA5903"/>
<path d="M10.662 6.80204H54.6642V0H4V63.9847H10.662V6.80204Z" fill="#FABF2A"/>
<path d="M39.8412 25.2861L36.5066 26.6476C36.1436 26.7958 35.8638 27.0996 35.7399 27.4775L34.9571 29.8768L32.4036 28.1393C31.7926 27.7234 30.9692 27.8934 30.5619 28.5153L27.895 32.5998C27.4877 33.2218 27.6541 34.0644 28.2633 34.4802C28.8707 34.8943 29.6959 34.7297 30.105 34.1041L32.0352 31.1479L34.9306 33.1187C35.6549 33.6123 36.6501 33.2706 36.9281 32.419L38.0668 28.9312L40.8293 27.8029C41.5093 27.5245 41.8422 26.7344 41.5695 26.0401C41.2968 25.3439 40.5247 25.0076 39.8429 25.2843L39.8412 25.2861Z" fill="white"/>
<path d="M66.3253 52.6058L59.998 46.395V6.80138C59.998 6.05283 59.4048 5.44531 58.6699 5.44531H10.6602C9.92704 5.44531 9.33203 6.05283 9.33203 6.80138V68.074C9.33203 68.8225 9.92704 69.43 10.6602 69.43H58.6699C59.403 69.43 59.998 68.8225 59.998 68.074V61.234C61.992 62.364 64.6005 62.1 66.343 60.3191C68.4751 58.1439 68.3813 54.6597 66.3253 52.6058ZM11.9883 66.7179V8.15745H57.3417V43.7895L51.5404 38.0958C52.7127 35.5645 53.329 32.7692 53.329 29.9504C53.329 19.4417 44.9564 10.8931 34.6641 10.8931C24.3719 10.8931 16.0011 19.4417 16.0011 29.9504C16.0011 40.459 24.3737 49.0058 34.6641 49.0058C38.1368 49.0058 41.4819 48.0367 44.4092 46.2015L57.34 58.8816V66.7179H11.9883ZM34.6641 46.2937C25.8382 46.2937 18.6574 38.9619 18.6574 29.9504C18.6574 20.9388 25.8382 13.6052 34.6641 13.6052C43.4901 13.6052 50.6727 20.937 50.6727 29.9504C50.6727 38.9637 43.4741 46.2937 34.6641 46.2937ZM64.4641 58.4007C63.4211 59.4675 61.7299 59.4675 60.6851 58.4007C60.6586 58.3736 61.3297 59.0317 46.605 44.5941C47.981 43.4225 49.1905 42.0483 50.1875 40.5295L64.473 54.5513C65.5072 55.6162 65.5072 57.3357 64.4641 58.4007Z" fill="#404040"/>
<path d="M33.3314 53.1016H17.3281C16.595 53.1016 16 53.7092 16 54.4579C16 55.2066 16.595 55.8143 17.3281 55.8143H33.3314C34.0663 55.8143 34.6595 55.2066 34.6595 54.4579C34.6595 53.7092 34.0645 53.1016 33.3314 53.1016Z" fill="#FABF2A"/>
<path d="M33.3314 59.9102H17.3281C16.595 59.9102 16 60.5178 16 61.2665C16 62.0152 16.595 62.6229 17.3281 62.6229H33.3314C34.0663 62.6229 34.6595 62.0152 34.6595 61.2665C34.6595 60.5178 34.0645 59.9102 33.3314 59.9102Z" fill="#FABF2A"/>
<path d="M46.6673 53.1016H40C39.2669 53.1016 38.6719 53.7092 38.6719 54.4579C38.6719 55.2066 39.2669 55.8143 40 55.8143H46.6673C47.4004 55.8143 47.9954 55.2066 47.9954 54.4579C47.9954 53.7092 47.4004 53.1016 46.6673 53.1016Z" fill="#FABF2A"/>
<path d="M46.6673 59.9102H40C39.2669 59.9102 38.6719 60.5178 38.6719 61.2665C38.6719 62.0152 39.2669 62.6229 40 62.6229H46.6673C47.4004 62.6229 47.9954 62.0152 47.9954 61.2665C47.9954 60.5178 47.4004 59.9102 46.6673 59.9102Z" fill="#FABF2A"/>
</g>
</svg>
