<svg width="70" height="70" viewBox="0 0 70 70" fill="none" xmlns="http://www.w3.org/2000/svg">
<mask id="mask0_1721_15269" style="mask-type:alpha" maskUnits="userSpaceOnUse" x="0" y="0" width="70" height="70">
<rect width="70" height="70" fill="#D9D9D9"/>
</mask>
<g mask="url(#mask0_1721_15269)">
<path d="M17.4203 15.6639C16.9948 15.3672 16.4131 15.4745 16.1206 15.902L13.9499 19.0617L12.8329 17.6285C12.5138 17.2195 11.9271 17.1474 11.5215 17.4692C11.116 17.7911 11.0445 18.3828 11.3636 18.7918L13.2618 21.229C13.4396 21.457 13.7105 21.5894 13.9964 21.5894C14.0064 21.5894 14.0147 21.5894 14.0247 21.5894C14.3222 21.5811 14.5964 21.4302 14.7643 21.1838L17.6547 16.9747C17.9489 16.5473 17.8442 15.9606 17.4187 15.6639H17.4203Z" fill="#EA5903"/>
<path d="M20.8986 20.1215H48.4608C48.9754 20.1215 49.3906 19.6975 49.3906 19.176C49.3906 18.6544 48.9737 18.2305 48.4608 18.2305H20.8986C20.384 18.2305 19.9688 18.6544 19.9688 19.176C19.9688 19.6975 20.3857 20.1215 20.8986 20.1215Z" fill="#FABF2A"/>
<path d="M17.4203 23.4417C16.9948 23.145 16.4131 23.2506 16.1206 23.6797L13.9499 26.8392L12.8329 25.4061C12.5138 24.9971 11.9271 24.9251 11.5215 25.2469C11.116 25.5687 11.0445 26.162 11.3636 26.571L13.2618 29.0064C13.4396 29.2344 13.7105 29.3668 13.9964 29.3668C14.0064 29.3668 14.0147 29.3668 14.0247 29.3668C14.3222 29.3584 14.5964 29.2075 14.7643 28.9612L17.6547 24.7524C17.9489 24.325 17.8442 23.7367 17.4187 23.4417H17.4203Z" fill="#EA5903"/>
<path d="M20.8986 27.8949H48.4608C48.9754 27.8949 49.3906 27.471 49.3906 26.9494C49.3906 26.4279 48.9737 26.0039 48.4608 26.0039H20.8986C20.384 26.0039 19.9688 26.4279 19.9688 26.9494C19.9688 27.471 20.3857 27.8949 20.8986 27.8949Z" fill="#FABF2A"/>
<path d="M17.422 31.2147C16.9965 30.918 16.4148 31.0253 16.1222 31.4527L13.9515 34.6108L12.8346 33.1776C12.5155 32.7686 11.9288 32.6982 11.5215 33.02C11.116 33.3419 11.0445 33.9336 11.3636 34.3442L13.2618 36.7798C13.4396 37.0078 13.7105 37.1402 13.9964 37.1402H14.0247C14.3205 37.1302 14.5964 36.981 14.7643 36.7346L17.6547 32.5255C17.9489 32.0981 17.8442 31.5097 17.4187 31.213L17.422 31.2147Z" fill="#EA5903"/>
<path d="M20.8986 35.6723H48.4608C48.9754 35.6723 49.3906 35.2483 49.3906 34.7268C49.3906 34.2052 48.9737 33.7812 48.4608 33.7812H20.8986C20.384 33.7812 19.9688 34.2035 19.9688 34.7268C19.9688 35.25 20.3857 35.6723 20.8986 35.6723Z" fill="#FABF2A"/>
<path d="M17.422 38.9824C16.9965 38.6959 16.4148 38.7995 16.1222 39.2122L13.9515 42.2629L12.8346 40.8792C12.5155 40.4843 11.9288 40.4147 11.5215 40.7254C11.116 41.0362 11.0445 41.6075 11.3636 42.0024L13.2618 44.3556C13.4396 44.5757 13.7105 44.7035 13.9964 44.7035C14.0064 44.7035 14.0147 44.7035 14.0247 44.7035C14.3205 44.6954 14.5964 44.5498 14.7643 44.3119L17.6547 40.248C17.9489 39.8353 17.8442 39.2688 17.4187 38.9824H17.422Z" fill="#EA5903"/>
<path d="M20.8986 43.4457H48.4608C48.9754 43.4457 49.3906 43.0218 49.3906 42.5002C49.3906 41.9787 48.9737 41.5547 48.4608 41.5547H20.8986C20.384 41.5547 19.9688 41.9787 19.9688 42.5002C19.9688 43.0218 20.3857 43.4457 20.8986 43.4457Z" fill="#FABF2A"/>
<path d="M20.8986 51.2192H48.4608C48.9754 51.2192 49.3906 50.7956 49.3906 50.2745C49.3906 49.7534 48.9737 49.3281 48.4608 49.3281H20.8986C20.384 49.3281 19.9688 49.7517 19.9688 50.2745C19.9688 50.7973 20.3857 51.2192 20.8986 51.2192Z" fill="#FABF2A"/>
<path d="M20.8986 58.9926H48.4608C48.9754 58.9926 49.3906 58.5686 49.3906 58.0471C49.3906 57.5255 48.9737 57.1016 48.4608 57.1016H20.8986C20.384 57.1016 19.9688 57.5255 19.9688 58.0471C19.9688 58.5686 20.3857 58.9926 20.8986 58.9926Z" fill="#FABF2A"/>
<path d="M67.0364 1L61.8753 1C60.243 1 58.9141 2.29907 58.9141 3.89724V33.842C58.9141 33.842 58.9141 33.8442 58.9141 33.8464C58.9141 34.0462 58.9637 34.2371 59.0494 34.4027L63.3227 42.6805C63.792 43.5888 65.1197 43.5877 65.5879 42.6805L69.8611 34.4027C69.948 34.2349 69.9965 34.0417 69.9965 33.8464V3.89724C69.9965 2.29907 68.6687 1 67.0352 1H67.0364ZM64.4553 39.366L62.2453 35.0848H66.6652L64.4553 39.366ZM67.4583 32.6003H61.4523V9.50518H67.4594V32.6003H67.4583ZM67.4583 7.02184H61.4523V3.89724C61.4523 3.66877 61.6418 3.48335 61.8753 3.48335H67.0364C67.2699 3.48335 67.4594 3.66877 67.4594 3.89724V7.02184H67.4583Z" fill="#404040"/>
<path d="M6.63619 8.10657H50.4682V1.62891H0V62.5623H6.63619V8.10657Z" fill="#FABF2A"/>
<path d="M54.305 6.88281H6.68456C5.95561 6.88281 5.36719 7.46136 5.36719 8.17421V66.5248C5.36719 67.2377 5.95561 67.8162 6.68456 67.8162H54.3032C55.0304 67.8162 55.6206 67.2377 55.6206 66.5248V8.17421C55.6206 7.46136 55.0304 6.88281 54.3032 6.88281H54.305ZM8.00194 65.2334V9.46561H52.9859V65.2334H8.00194Z" fill="#404040"/>
</g>
</svg>
