<svg width="71" height="67" viewBox="0 0 71 67" fill="none" xmlns="http://www.w3.org/2000/svg">
<path d="M17.4242 14.6679C16.9988 14.3711 16.417 14.4784 16.1245 14.9059L13.9538 18.0662L12.8368 16.6327C12.5177 16.2237 11.931 16.1516 11.5255 16.4735C11.1199 16.7954 11.0484 17.3872 11.3676 17.7962L13.2657 20.2339C13.4435 20.4619 13.7144 20.5943 14.0003 20.5943C14.0103 20.5943 14.0186 20.5943 14.0286 20.5943C14.3261 20.586 14.6003 20.4351 14.7682 20.1886L17.6586 15.9789C17.9528 15.5514 17.8481 14.9646 17.4226 14.6679H17.4242Z" fill="#38BEEF"/>
<path d="M20.9025 19.1218H48.4647C48.9793 19.1218 49.3945 18.6978 49.3945 18.1761C49.3945 17.6545 48.9776 17.2305 48.4647 17.2305H20.9025C20.3879 17.2305 19.9727 17.6545 19.9727 18.1761C19.9727 18.6978 20.3896 19.1218 20.9025 19.1218Z" fill="#B2F0FB"/>
<path d="M17.4242 22.4456C16.9988 22.1489 16.417 22.2545 16.1245 22.6837L13.9538 25.8437L12.8368 24.4104C12.5177 24.0013 11.931 23.9293 11.5255 24.2511C11.1199 24.573 11.0484 25.1664 11.3676 25.5755L13.2657 28.0113C13.4435 28.2392 13.7144 28.3717 14.0003 28.3717C14.0103 28.3717 14.0186 28.3717 14.0286 28.3717C14.3261 28.3633 14.6003 28.2124 14.7682 27.966L17.6586 23.7566C17.9528 23.3291 17.8481 22.7407 17.4226 22.4456H17.4242Z" fill="#38BEEF"/>
<path d="M20.9025 26.8992H48.4647C48.9793 26.8992 49.3945 26.4751 49.3945 25.9535C49.3945 25.4319 48.9776 25.0078 48.4647 25.0078H20.9025C20.3879 25.0078 19.9727 25.4319 19.9727 25.9535C19.9727 26.4751 20.3896 26.8992 20.9025 26.8992Z" fill="#B2F0FB"/>
<path d="M17.4259 30.2186C17.0004 29.9219 16.4187 30.0292 16.1261 30.4567L13.9554 33.6153L12.8385 32.1818C12.5194 31.7728 11.9327 31.7024 11.5255 32.0242C11.1199 32.3461 11.0484 32.938 11.3676 33.3487L13.2657 35.7847C13.4435 36.0127 13.7144 36.1451 14.0003 36.1451H14.0286C14.3244 36.1351 14.6003 35.9859 14.7682 35.7394L17.6586 31.5297C17.9528 31.1022 17.8481 30.5137 17.4226 30.217L17.4259 30.2186Z" fill="#38BEEF"/>
<path d="M20.9025 34.6765H48.4647C48.9793 34.6765 49.3945 34.2525 49.3945 33.7308C49.3945 33.2092 48.9776 32.7852 48.4647 32.7852H20.9025C20.3879 32.7852 19.9727 33.2075 19.9727 33.7308C19.9727 34.2541 20.3896 34.6765 20.9025 34.6765Z" fill="#B2F0FB"/>
<path d="M17.4259 37.9902C17.0004 37.7037 16.4187 37.8073 16.1261 38.2201L13.9554 41.2713L12.8385 39.8873C12.5194 39.4924 11.9327 39.4228 11.5255 39.7335C11.1199 40.0443 11.0484 40.6157 11.3676 41.0107L13.2657 43.3643C13.4435 43.5844 13.7144 43.7123 14.0003 43.7123C14.0103 43.7123 14.0186 43.7123 14.0286 43.7123C14.3244 43.7042 14.6003 43.5585 14.7682 43.3206L17.6586 39.256C17.9528 38.8433 17.8481 38.2767 17.4226 37.9902H17.4259Z" fill="#38BEEF"/>
<path d="M20.9025 42.4499H48.4647C48.9793 42.4499 49.3945 42.0259 49.3945 41.5043C49.3945 40.9826 48.9776 40.5586 48.4647 40.5586H20.9025C20.3879 40.5586 19.9727 40.9826 19.9727 41.5043C19.9727 42.0259 20.3896 42.4499 20.9025 42.4499Z" fill="#B2F0FB"/>
<path d="M20.9025 50.2273H48.4647C48.9793 50.2273 49.3945 49.8036 49.3945 49.2825C49.3945 48.7613 48.9776 48.3359 48.4647 48.3359H20.9025C20.3879 48.3359 19.9727 48.7596 19.9727 49.2825C19.9727 49.8053 20.3896 50.2273 20.9025 50.2273Z" fill="#B2F0FB"/>
<path d="M20.9025 58.0007H48.4647C48.9793 58.0007 49.3945 57.5767 49.3945 57.055C49.3945 56.5334 48.9776 56.1094 48.4647 56.1094H20.9025C20.3879 56.1094 19.9727 56.5334 19.9727 57.055C19.9727 57.5767 20.3896 58.0007 20.9025 58.0007Z" fill="#B2F0FB"/>
<path d="M68.0403 0L62.8792 0C61.2469 0 59.918 1.29928 59.918 2.89771V32.8474C59.918 32.8474 59.918 32.8496 59.918 32.8518C59.918 33.0516 59.9676 33.2426 60.0533 33.4081L64.3266 41.6873C64.7959 42.5958 66.1236 42.5947 66.5918 41.6873L70.865 33.4081C70.9519 33.2403 71.0004 33.0472 71.0004 32.8518V2.89771C71.0004 1.29928 69.6726 0 68.0392 0L68.0403 0ZM65.4592 38.3723L63.2492 34.0903H67.6691L65.4592 38.3723ZM68.4622 31.6055H62.4562V8.50658H68.4633V31.6055H68.4622ZM68.4622 6.02283H62.4562V2.89771C62.4562 2.66921 62.6457 2.48375 62.8792 2.48375H68.0403C68.2738 2.48375 68.4633 2.66921 68.4633 2.89771V6.02283H68.4622Z" fill="#404040"/>
<path d="M6.63619 7.10763H50.4682V0.628906H0V61.5723H6.63619V7.10763Z" fill="#B2F0FB"/>
<path d="M54.305 5.88281H6.68456C5.95561 5.88281 5.36719 6.46145 5.36719 7.17442V65.5346C5.36719 66.2476 5.95561 66.8262 6.68456 66.8262H54.3032C55.0304 66.8262 55.6206 66.2476 55.6206 65.5346V7.17442C55.6206 6.46145 55.0304 5.88281 54.3032 5.88281H54.305ZM8.00194 64.243V8.46604H52.9859V64.243H8.00194Z" fill="#404040"/>
</svg>
