<svg width="70" height="70" viewBox="0 0 70 70" fill="none" xmlns="http://www.w3.org/2000/svg">
<mask id="mask0_1721_15263" style="mask-type:alpha" maskUnits="userSpaceOnUse" x="0" y="0" width="70" height="70">
<rect width="70" height="70" fill="#D9D9D9"/>
</mask>
<g mask="url(#mask0_1721_15263)">
<path d="M39.7996 25.3516H31.5742V48.3414H39.7996V25.3516Z" fill="#FABF2A"/>
<path d="M50.784 21.3008H42.5586V48.3493H50.784V21.3008Z" fill="#FABF2A"/>
<path d="M61.7645 17.2344H53.5391V48.3415H61.7645V17.2344Z" fill="#FABF2A"/>
<path d="M68.6364 6.41149H36.3691V2.34748C36.3691 1.60367 35.7565 1 35.0018 1C34.2471 1 33.6346 1.60367 33.6346 2.34748V6.41149H1.36726C0.612532 6.41149 0 7.01516 0 7.75897V13.1705C0 13.9143 0.612532 14.5179 1.36726 14.5179H2.74546V52.4074C2.74546 53.1512 3.35799 53.7549 4.11271 53.7549H33.6346V59.8275L22.5434 67.5423C21.9272 67.9717 21.7795 68.8125 22.2152 69.4198C22.6509 70.0271 23.5041 70.1726 24.1203 69.7432L33.6327 63.1244V68.6418C33.6327 69.3857 34.2453 69.9893 35 69.9893C35.7547 69.9893 36.3673 69.3857 36.3673 68.6418V63.1244L45.8797 69.7432C46.4977 70.1726 47.3491 70.0289 47.7848 69.4198C48.2205 68.8125 48.0728 67.9717 47.4566 67.5423L36.3654 59.8275V53.7549H65.8873C66.642 53.7549 67.2545 53.1512 67.2545 52.4074V14.5197H68.6327C69.3875 14.5197 70 13.9161 70 13.1723V7.76077C70 7.01696 69.3875 6.41329 68.6327 6.41329L68.6364 6.41149ZM64.5237 51.0599H5.47997V14.5197H64.5237V51.0617V51.0599ZM67.2691 11.823H2.73452V9.10646H67.2691V11.823Z" fill="#404040"/>
<path d="M17.4117 37.5206C22.0057 37.5206 25.8212 34.1752 26.4848 29.8256H27.451C28.2057 29.8256 28.8183 29.2219 28.8183 28.4781V28.4386C28.8183 22.2617 23.7193 17.2383 17.4536 17.2383H17.4135C16.6588 17.2383 16.0462 17.842 16.0462 18.5858V19.538C11.6327 20.1902 8.23828 23.9505 8.23828 28.4799C8.23828 33.4656 12.3546 37.5224 17.4135 37.5224L17.4117 37.5206ZM18.7789 20.0321C22.4778 20.5962 25.4074 23.4852 25.9817 27.1306H18.7789V20.0321ZM16.0444 22.2761V28.4781C16.0444 29.2219 16.6569 29.8256 17.4117 29.8256H23.7047C23.0758 32.6804 20.4944 34.8256 17.4117 34.8256C13.8586 34.8256 10.971 31.9779 10.971 28.4781C10.971 25.44 13.1477 22.8959 16.0444 22.2761Z" fill="#EA5903"/>
<path d="M9.60163 42.9338H26.0762C26.8309 42.9338 27.4434 42.33 27.4434 41.586C27.4434 40.8421 26.8309 40.2383 26.0762 40.2383H9.60163C8.84691 40.2383 8.23438 40.8421 8.23438 41.586C8.23438 42.33 8.84691 42.9338 9.60163 42.9338Z" fill="#EA5903"/>
<path d="M9.60163 48.344H26.0762C26.8309 48.344 27.4434 47.7402 27.4434 46.9962C27.4434 46.2522 26.8309 45.6484 26.0762 45.6484H9.60163C8.84691 45.6484 8.23438 46.2522 8.23438 46.9962C8.23438 47.7402 8.84691 48.344 9.60163 48.344Z" fill="#EA5903"/>
</g>
</svg>
