<svg width="70" height="70" viewBox="0 0 70 70" fill="none" xmlns="http://www.w3.org/2000/svg">
<mask id="mask0_1721_15266" style="mask-type:alpha" maskUnits="userSpaceOnUse" x="0" y="0" width="70" height="70">
<rect width="70" height="70" fill="#D9D9D9"/>
</mask>
<g mask="url(#mask0_1721_15266)">
<path d="M35.8518 52.6406H27.7188V67.2448H35.8518V52.6406Z" fill="#EA5903"/>
<path d="M24.9925 57.9492H16.8594V67.2468H24.9925V57.9492Z" fill="#EA5903"/>
<path d="M46.7112 49.9805H38.5781V67.2459H46.7112V49.9805Z" fill="#EA5903"/>
<path d="M57.5706 44.6719H49.4375V67.2439H57.5706V44.6719Z" fill="#EA5903"/>
<path d="M12.7812 7.48223H57.5709V0.847656H6V63.2571H12.7812V7.48223Z" fill="#FABF2A"/>
<path d="M20.7992 51.6244L51.5506 39.4469L51.2568 40.0942C50.954 40.7626 51.2604 41.5421 51.9418 41.8401C52.6213 42.1364 53.4217 41.8401 53.7263 41.17C54.0526 40.4522 55.336 37.6322 55.3882 37.5141C55.646 36.9268 55.4369 36.2372 54.8817 35.8845C54.7177 35.7805 54.9142 35.8845 50.9756 34.165C50.2924 33.8687 49.4939 34.1686 49.1911 34.8352C48.8883 35.5036 49.1947 36.2848 49.8761 36.5811L50.689 36.9356L19.7825 49.1748C19.0904 49.4482 18.7569 50.2206 19.0363 50.8978C19.3175 51.5751 20.1052 51.9013 20.7974 51.628L20.7992 51.6244Z" fill="#404040"/>
<path d="M35.9398 34.0355C41.1383 34.0355 45.4446 30.2314 46.108 25.3199H47.3932C48.1412 25.3199 48.7451 24.7273 48.7451 23.9972V23.9513C48.7451 17.0681 43.022 11.4688 35.9867 11.4688H35.9398C35.1935 11.4688 34.5879 12.0613 34.5879 12.7914V14.0489C29.5678 14.6979 25.6797 18.911 25.6797 23.9972C25.6797 29.5331 30.2816 34.0355 35.9398 34.0355ZM37.2917 14.197C41.7945 14.7702 45.3707 18.2691 45.9565 22.6745H37.2917V14.197ZM34.5879 16.726V23.9972C34.5879 24.7273 35.1935 25.3199 35.9398 25.3199H43.3717C42.7318 28.7677 39.644 31.3901 35.9398 31.3901C31.7741 31.3901 28.3835 28.0728 28.3835 23.9972C28.3835 20.373 31.0639 17.3503 34.5879 16.726Z" fill="#404040"/>
<path d="M61.6505 6.16406H12.7816C12.0335 6.16406 11.4297 6.75662 11.4297 7.48674V67.2508C11.4297 67.9809 12.0335 68.5735 12.7816 68.5735H61.6487C62.3949 68.5735 63.0006 67.9809 63.0006 67.2508V7.48674C63.0006 6.75662 62.3949 6.16406 61.6487 6.16406H61.6505ZM14.1335 65.9281V8.80943H60.2967V65.9281H14.1335Z" fill="#404040"/>
</g>
</svg>
