<svg width="64" height="70" viewBox="0 0 64 70" fill="none" xmlns="http://www.w3.org/2000/svg">
<path d="M39.1445 21.2883C43.8302 26.0725 43.8302 33.831 39.1445 38.6152C34.4589 43.3994 26.8601 43.3994 22.1744 38.6152C17.4887 33.831 17.4887 26.0725 22.1744 21.2883C24.4252 18.9902 27.4781 17.6992 30.6604 17.6992C33.8426 17.6992 36.8956 18.9902 39.1445 21.2883Z" fill="#38BEEF"/>
<path d="M6.66196 6.80204H50.6642V0H0V63.9847H6.66196V6.80204Z" fill="#B2F0FB"/>
<path d="M35.8412 25.2861L32.5066 26.6476C32.1436 26.7958 31.8638 27.0996 31.7399 27.4775L30.9571 29.8768L28.4036 28.1393C27.7926 27.7234 26.9692 27.8934 26.5619 28.5153L23.895 32.5998C23.4877 33.2218 23.6541 34.0644 24.2633 34.4802C24.8707 34.8943 25.6959 34.7297 26.105 34.1041L28.0352 31.1479L30.9306 33.1187C31.6549 33.6123 32.6501 33.2706 32.9281 32.419L34.0668 28.9312L36.8293 27.8029C37.5093 27.5245 37.8422 26.7344 37.5695 26.0401C37.2968 25.3439 36.5247 25.0076 35.8429 25.2843L35.8412 25.2861Z" fill="#404040"/>
<path d="M62.3253 52.6058L55.998 46.395V6.80138C55.998 6.05283 55.4048 5.44531 54.6699 5.44531H6.66017C5.92704 5.44531 5.33203 6.05283 5.33203 6.80138V68.074C5.33203 68.8225 5.92704 69.43 6.66017 69.43H54.6699C55.403 69.43 55.998 68.8225 55.998 68.074V61.234C57.992 62.364 60.6005 62.1 62.343 60.3191C64.4751 58.1439 64.3813 54.6597 62.3253 52.6058ZM7.98832 66.7179V8.15745H53.3417V43.7895L47.5404 38.0958C48.7127 35.5645 49.329 32.7692 49.329 29.9504C49.329 19.4417 40.9564 10.8931 30.6641 10.8931C20.3719 10.8931 12.0011 19.4417 12.0011 29.9504C12.0011 40.459 20.3737 49.0058 30.6641 49.0058C34.1368 49.0058 37.4819 48.0367 40.4092 46.2015L53.34 58.8816V66.7179H7.98832ZM30.6641 46.2937C21.8382 46.2937 14.6574 38.9619 14.6574 29.9504C14.6574 20.9388 21.8382 13.6052 30.6641 13.6052C39.4901 13.6052 46.6727 20.937 46.6727 29.9504C46.6727 38.9637 39.4741 46.2937 30.6641 46.2937ZM60.4641 58.4007C59.4211 59.4675 57.7299 59.4675 56.6851 58.4007C56.6586 58.3736 57.3297 59.0317 42.605 44.5941C43.981 43.4225 45.1905 42.0483 46.1875 40.5295L60.473 54.5513C61.5072 55.6162 61.5072 57.3357 60.4641 58.4007Z" fill="#404040"/>
<path d="M29.3314 53.1016H13.3281C12.595 53.1016 12 53.7092 12 54.4579C12 55.2066 12.595 55.8143 13.3281 55.8143H29.3314C30.0663 55.8143 30.6595 55.2066 30.6595 54.4579C30.6595 53.7092 30.0645 53.1016 29.3314 53.1016Z" fill="#38BEEF"/>
<path d="M29.3314 59.9102H13.3281C12.595 59.9102 12 60.5178 12 61.2665C12 62.0152 12.595 62.6229 13.3281 62.6229H29.3314C30.0663 62.6229 30.6595 62.0152 30.6595 61.2665C30.6595 60.5178 30.0645 59.9102 29.3314 59.9102Z" fill="#38BEEF"/>
<path d="M42.6673 53.1016H36C35.2669 53.1016 34.6719 53.7092 34.6719 54.4579C34.6719 55.2066 35.2669 55.8143 36 55.8143H42.6673C43.4004 55.8143 43.9954 55.2066 43.9954 54.4579C43.9954 53.7092 43.4004 53.1016 42.6673 53.1016Z" fill="#38BEEF"/>
<path d="M42.6673 59.9102H36C35.2669 59.9102 34.6719 60.5178 34.6719 61.2665C34.6719 62.0152 35.2669 62.6229 36 62.6229H42.6673C43.4004 62.6229 43.9954 62.0152 43.9954 61.2665C43.9954 60.5178 43.4004 59.9102 42.6673 59.9102Z" fill="#38BEEF"/>
</svg>
