<svg width="70" height="70" viewBox="0 0 70 70" fill="none" xmlns="http://www.w3.org/2000/svg">
<mask id="mask0_1923_21805" style="mask-type:alpha" maskUnits="userSpaceOnUse" x="0" y="0" width="70" height="70">
<rect width="70" height="70" fill="#D9D9D9"/>
</mask>
<g mask="url(#mask0_1923_21805)">
<path d="M39.6623 24.5078H31.6719V47.645H39.6623V24.5078Z" fill="#B2F0FB"/>
<path d="M50.3342 20.4258H42.3438V47.6476H50.3342V20.4258Z" fill="#B2F0FB"/>
<path d="M61.0021 16.3398H53.0117V47.6463H61.0021V16.3398Z" fill="#B2F0FB"/>
<path d="M67.6753 5.44618H36.33V1.35612C36.33 0.607542 35.7349 0 35.0018 0C34.2686 0 33.6736 0.607542 33.6736 1.35612V5.44618H2.32819C1.59503 5.44618 1 6.05372 1 6.8023V12.2485C1 12.9971 1.59503 13.6046 2.32819 13.6046H3.66701V51.7369C3.66701 52.4855 4.26204 53.093 4.99521 53.093H33.6736V59.2046L22.8993 66.9689C22.3007 67.401 22.1572 68.2472 22.5805 68.8584C23.0037 69.4695 23.8325 69.616 24.4311 69.1839L33.6718 62.5226V68.0755C33.6718 68.824 34.2668 69.4316 35 69.4316C35.7332 69.4316 36.3282 68.824 36.3282 68.0755V62.5226L45.5689 69.1839C46.1692 69.616 46.9962 69.4714 47.4195 68.8584C47.8428 68.2472 47.6993 67.401 47.1007 66.9689L36.3264 59.2046V53.093H65.0048C65.738 53.093 66.333 52.4855 66.333 51.7369V13.6064H67.6718C68.405 13.6064 69 12.9989 69 12.2503V6.80411C69 6.05553 68.405 5.44799 67.6718 5.44799L67.6753 5.44618ZM63.6801 50.3808H6.3234V13.6064H63.6801V50.3826V50.3808ZM66.3472 10.8924H3.65639V8.15842H66.3472V10.8924Z" fill="#404040"/>
<path d="M17.9152 36.7522C22.3779 36.7522 26.0845 33.3854 26.7291 29.0078H27.6677C28.4009 29.0078 28.9959 28.4003 28.9959 27.6517V27.6119C28.9959 21.3955 24.0426 16.3398 17.9559 16.3398H17.917C17.1838 16.3398 16.5888 16.9474 16.5888 17.696V18.6543C12.3014 19.3107 9.00391 23.0951 9.00391 27.6535C9.00391 32.6712 13.0027 36.754 17.917 36.754L17.9152 36.7522ZM19.2434 19.1515C22.8366 19.7193 25.6825 22.6268 26.2403 26.2956H19.2434V19.1515ZM16.587 21.4099V27.6517C16.587 28.4003 17.182 29.0078 17.9152 29.0078H24.0284C23.4175 31.881 20.9098 34.0399 17.9152 34.0399C14.4637 34.0399 11.6585 31.174 11.6585 27.6517C11.6585 24.5941 13.773 22.0337 16.587 21.4099Z" fill="#38BEEF"/>
<path d="M10.3282 42.2011H26.332C27.0652 42.2011 27.6602 41.5934 27.6602 40.8447C27.6602 40.096 27.0652 39.4883 26.332 39.4883H10.3282C9.59503 39.4883 9 40.096 9 40.8447C9 41.5934 9.59503 42.2011 10.3282 42.2011Z" fill="#38BEEF"/>
<path d="M10.3282 47.6464H26.332C27.0652 47.6464 27.6602 47.0387 27.6602 46.29C27.6602 45.5413 27.0652 44.9336 26.332 44.9336H10.3282C9.59503 44.9336 9 45.5413 9 46.29C9 47.0387 9.59503 47.6464 10.3282 47.6464Z" fill="#38BEEF"/>
</g>
</svg>
