<svg width="40" height="44" viewBox="0 0 40 44" fill="none" xmlns="http://www.w3.org/2000/svg">
<path d="M14.3353 12.8127H18.1429C18.4733 12.8127 18.74 12.535 18.74 12.1934C18.74 11.8519 18.4722 11.5742 18.1429 11.5742H14.3353C14.006 11.5742 13.7383 11.8519 13.7383 12.1934C13.7383 12.535 14.006 12.8127 14.3353 12.8127Z" fill="#0057A8"/>
<path d="M18.1429 15.7825C18.4733 15.7825 18.74 15.5049 18.74 15.1633C18.74 14.8217 18.4722 14.543 18.1429 14.543H14.3353C14.006 14.543 13.7383 14.8206 13.7383 15.1633C13.7383 15.506 14.006 15.7825 14.3353 15.7825H18.1429Z" fill="#0057A8"/>
<path d="M27.571 18.1172H14.5346C14.2052 18.1172 13.9375 18.3948 13.9375 18.7364C13.9375 19.078 14.2052 19.3556 14.5346 19.3556H27.571C27.9014 19.3556 28.168 19.078 28.168 18.7364C28.168 18.3948 27.9003 18.1172 27.571 18.1172Z" fill="#0057A8"/>
<path d="M14.5346 21.5558C14.2052 21.5558 13.9375 21.8334 13.9375 22.175C13.9375 22.5166 14.2052 22.7942 14.5346 22.7942H30.2822L31.5283 21.5547H14.5346V21.5558Z" fill="#0057A8"/>
<path d="M39.8094 20.1545C39.6628 19.9792 39.4471 19.8778 39.2198 19.8778H36.4385V9.75795C36.4385 9.737 36.4385 9.71826 36.4364 9.69841C36.4364 9.68518 36.4385 9.67085 36.4385 9.65762C36.4385 9.46248 36.3514 9.28938 36.2164 9.17583C36.1761 9.12952 36.1346 9.08983 36.0964 9.05345C36.072 9.02919 36.0433 9.00163 36.0082 8.96635L31.2998 4.30608L31.2275 4.23552C31.1266 4.13409 31.0267 4.03707 30.9046 3.96761C30.8897 3.95879 30.8737 3.94997 30.8578 3.94336C30.7579 3.89374 30.6432 3.86287 30.4977 3.86287H15.7604V3.18704C15.7604 1.91696 14.7639 0.882812 13.54 0.882812C12.3161 0.882812 11.3175 1.91696 11.3175 3.18704V3.86287H9.59752C9.03021 3.86287 8.56914 4.34136 8.56914 4.93009V7.63894H5.66672C5.09941 7.63894 4.63834 8.11742 4.63834 8.70616V22.9913H1.18668C0.532251 22.9913 0 23.5436 0 24.2228V42.3843C0 42.424 0.00318713 42.4625 0.00743664 42.5022C-0.016998 42.6643 0.0201852 42.8308 0.115799 42.9653C0.228411 43.1251 0.407953 43.2188 0.598118 43.2188H17.8331C18.1635 43.2188 18.4301 42.941 18.4301 42.5992C18.4301 42.2575 18.1624 41.9796 17.8331 41.9796H1.4119L5.00911 30.1178C5.01655 30.0947 5.02504 30.0759 5.03354 30.0627H24.1553C24.6387 30.0627 24.9531 30.0318 25.224 29.6019C25.258 29.5478 25.2867 29.5015 25.3621 29.4266L33.6497 21.1578C33.6625 21.1446 33.6742 21.1324 33.6859 21.1203H38.7428L37.4892 30.7606L37.3011 32.1927L36.0284 41.9807H20.6239C20.2935 41.9807 20.0269 42.2586 20.0269 42.6003C20.0269 42.9421 20.2946 43.22 20.6239 43.22H36.0762C36.6318 43.22 37.128 42.7701 37.2076 42.1924L38.4867 32.357L38.6748 30.9249L39.9921 20.7995C40.024 20.5658 39.9581 20.3298 39.8115 20.1534L39.8094 20.1545ZM4.64046 28.8819C4.28669 29.0065 3.99454 29.324 3.86812 29.7485L1.19942 38.5498L1.19517 38.5608V24.2338H4.64046V28.8819ZM31.2084 5.93006L34.3488 9.03801H32.3377C32.036 9.03801 31.7513 8.91453 31.5367 8.69183C31.3231 8.47022 31.2063 8.17696 31.2063 7.86605V5.93116L31.2084 5.93006ZM12.5148 3.18814C12.5148 2.60161 12.9759 2.12423 13.5421 2.12423C14.1084 2.12423 14.5673 2.60161 14.5673 3.18814V3.86398H12.5148V3.18814ZM35.2444 19.8778H33.4681C33.0835 19.8778 32.8859 20.1645 32.82 20.2593C32.8158 20.2648 32.8115 20.2714 32.8073 20.278L32.2878 20.7962L33.0973 21.6716L27.1469 27.5953L26.3438 26.7265L24.5345 28.5313C24.4198 28.646 24.3433 28.7441 24.2902 28.8213C24.2551 28.8213 24.2116 28.8235 24.1553 28.8235H9.76643V21.7576C9.76643 21.4158 9.49872 21.138 9.16938 21.138C8.84004 21.138 8.57232 21.4158 8.57232 21.7576V28.8235H5.8367V8.88035H8.57232V18.8525C8.57232 19.1954 8.84004 19.4721 9.16938 19.4721C9.49872 19.4721 9.76643 19.1943 9.76643 18.8525V5.10429H14.5663V7.43608C14.5663 8.02261 14.1062 8.49889 13.5411 8.49889C12.9759 8.49889 12.5137 8.02151 12.5137 7.43608C12.5137 7.0932 12.246 6.81647 11.9167 6.81647C11.5873 6.81647 11.3196 7.0943 11.3196 7.43608C11.3196 8.70616 12.3161 9.7392 13.5421 9.7392C14.7681 9.7392 15.7625 8.70506 15.7625 7.43608V5.10429H30.0143L30.0122 7.86385C30.01 8.5055 30.2512 9.11078 30.691 9.56832C31.1308 10.027 31.7162 10.2794 32.3377 10.2794H35.2444V19.8789V19.8778Z" fill="black"/>
<path d="M14.5346 24.9738C14.2052 24.9738 13.9375 25.2514 13.9375 25.593C13.9375 25.9345 14.2052 26.2122 14.5346 26.2122H26.8411L28.0873 24.9727H14.5356L14.5346 24.9738Z" fill="#0057A8"/>
<path d="M26.8374 26.2188L26.3359 26.7179L26.3434 26.7267L26.8544 26.2188H26.8374Z" fill="black"/>
<path d="M30.2914 22.7891H30.2819L28.0859 24.9753H28.0997L30.2914 22.7891Z" fill="black"/>
<path d="M31.5234 21.5538H31.5287L32.2852 20.7991L32.283 20.7969L31.5234 21.5538Z" fill="black"/>
<path d="M31.5172 21.551L30.271 22.7913H30.2805L28.0889 24.9787H28.075L26.8299 26.219H26.8459L26.3359 26.7272L27.1391 27.596L33.0884 21.6723L32.2789 20.7969L31.5235 21.551H31.5172Z" fill="black"/>
</svg>
