<svg width="42" height="42" viewBox="0 0 42 42" fill="none" xmlns="http://www.w3.org/2000/svg">
<mask id="mask0_1721_15765" style="mask-type:alpha" maskUnits="userSpaceOnUse" x="0" y="0" width="42" height="42">
<rect width="42" height="42" fill="#D9D9D9"/>
</mask>
<g mask="url(#mask0_1721_15765)">
<path d="M14.0386 12.8037H29.7591C30.0787 12.8037 30.3367 12.5351 30.3367 12.2046C30.3367 11.8741 30.0777 11.6055 29.7591 11.6055H14.0386C13.72 11.6055 13.4609 11.8741 13.4609 12.2046C13.4609 12.5351 13.72 12.8037 14.0386 12.8037Z" fill="white"/>
<path d="M14.0386 8.56543H19.4607C19.7804 8.56543 20.0384 8.29678 20.0384 7.96631C20.0384 7.63583 19.7793 7.36719 19.4607 7.36719H14.0386C13.72 7.36719 13.4609 7.63583 13.4609 7.96631C13.4609 8.29678 13.72 8.56543 14.0386 8.56543Z" fill="white"/>
<path d="M17.008 31.3987C17.4099 31.8179 17.8972 32.2425 18.4913 32.2425C18.517 32.2425 18.5427 32.2425 18.5684 32.2403C19.0021 32.2137 19.404 31.9587 19.7628 31.4808C20.029 31.1256 20.2181 30.7736 20.3692 30.4909C20.4391 30.3597 20.5255 30.1987 20.6005 30.0834C20.6077 30.0994 20.6149 30.1144 20.621 30.1282C20.8554 30.6307 21.2912 31.5672 22.7025 31.6462C23.0201 31.6643 23.2935 31.4104 23.311 31.0798C23.3285 30.7491 23.0839 30.4664 22.7652 30.4483C22.0354 30.4067 21.871 30.0536 21.6623 29.6056C21.503 29.2632 21.2049 28.6253 20.4802 28.7714C19.9046 28.8866 19.6271 29.405 19.3588 29.9064C19.22 30.1656 19.0617 30.46 18.851 30.7416C18.7143 30.924 18.5828 31.036 18.4995 31.0403C18.4275 31.0456 18.2456 30.9869 17.8283 30.5507C16.747 29.4232 15.902 30.1944 15.497 30.5656C15.3233 30.7245 15.1435 30.8888 15.0047 30.9155C14.8186 30.9507 14.5421 30.7149 14.3941 30.572C14.1598 30.3469 13.7938 30.3597 13.577 30.6029C13.359 30.8451 13.3724 31.2259 13.6068 31.451C14.906 32.7054 15.7879 31.899 16.2608 31.4659C16.3995 31.339 16.5722 31.1811 16.6657 31.1619C16.713 31.1512 16.8395 31.2216 17.008 31.3976V31.3987Z" fill="white"/>
<path d="M21.2955 24.3175H14.0386C13.72 24.3175 13.4609 24.5861 13.4609 24.9166C13.4609 25.2471 13.72 25.5157 14.0386 25.5157H21.8988C21.9955 25.5157 22.0859 25.4891 22.1661 25.4454C21.8361 25.1053 21.5442 24.7258 21.2944 24.3164L21.2955 24.3175Z" fill="white"/>
<path d="M22.6636 15.837H14.0386C13.72 15.837 13.4609 16.1056 13.4609 16.4361C13.4609 16.7666 13.72 17.0352 14.0386 17.0352H21.5504C21.8701 16.5875 22.2442 16.1845 22.6626 15.8359L22.6636 15.837Z" fill="white"/>
<path d="M20.3837 20.0781H14.0386C13.72 20.0781 13.4609 20.3468 13.4609 20.6783C13.4609 21.0099 13.72 21.2774 14.0386 21.2774H20.3478C20.3395 21.1431 20.3344 21.0088 20.3344 20.8723C20.3344 20.6026 20.3519 20.3382 20.3827 20.0781H20.3837Z" fill="white"/>
<path d="M38.9953 30.0848C38.9583 29.4693 38.6931 28.9082 38.2501 28.5039L35.959 26.4089V7.27222C35.959 7.25089 35.959 7.22956 35.9569 7.20929C35.9569 7.19542 35.959 7.18155 35.959 7.16662C35.959 6.97888 35.8757 6.81034 35.7441 6.70047C35.701 6.6514 35.6568 6.60767 35.6146 6.56713C35.5879 6.54153 35.5571 6.51166 35.518 6.4722L30.4577 1.46082L30.3858 1.38935C30.2737 1.27734 30.1699 1.17494 30.0425 1.1024C30.0322 1.09707 30.0219 1.09067 30.0106 1.08534C29.9078 1.03307 29.7896 1 29.6395 1H8.66351C8.08892 1 7.62226 1.48322 7.62226 2.07844V5.19855H5.03919C4.46666 5.19855 4 5.68283 4 6.27912V14.5856C4 14.9173 4.25903 15.185 4.57767 15.185C4.89631 15.185 5.15534 14.9162 5.15534 14.5856V6.40073H7.62123V36.6834C7.62123 37.2776 8.08789 37.7618 8.66248 37.7618H14.6787C14.9984 37.7618 15.2564 37.493 15.2564 37.1624C15.2564 36.8317 14.9973 36.5629 14.6787 36.5629H8.7776V2.20111H29.1801L29.178 5.23482C29.176 5.90791 29.4298 6.5426 29.8903 7.02261C30.3519 7.50263 30.9645 7.76717 31.6131 7.76717H34.8016V25.4243C34.08 25.0105 33.1898 25.051 32.5063 25.5193L31.575 24.668C31.3468 24.9923 31.0909 25.2931 30.8103 25.5683L31.7426 26.4206C31.3129 27.3284 31.5 28.4613 32.2647 29.1631L34.8016 31.4811V36.5607H17.3759C17.0562 36.5607 16.7982 36.8295 16.7982 37.1602C16.7982 37.4909 17.0572 37.7597 17.3759 37.7597H31.1793V40.7614H5.15637V17.5083C5.15637 17.1766 4.89734 16.9088 4.5787 16.9088C4.26005 16.9088 4.00103 17.1776 4.00103 17.5083V40.8809C4.00103 41.4772 4.46769 41.9615 5.04022 41.9615H31.2965C31.8711 41.9615 32.3377 41.4761 32.3377 40.8809V37.7608H34.9177C35.4923 37.7608 35.959 37.2776 35.959 36.6823V32.3622C36.218 32.4699 36.4955 32.5265 36.7813 32.5265C36.8296 32.5265 36.8789 32.5254 36.9272 32.5222C37.5193 32.4827 38.06 32.2075 38.4475 31.7488C38.8381 31.2912 39.0334 30.6992 38.9953 30.0848ZM31.6141 6.56607C31.2739 6.56607 30.9532 6.42739 30.7096 6.17458C30.467 5.92178 30.3334 5.59003 30.3344 5.23588L30.3364 2.999L33.9381 6.56607H31.6141ZM37.5799 30.9552C37.3949 31.1739 37.1359 31.3051 36.8532 31.3243C36.5695 31.3435 36.2971 31.2475 36.0874 31.0555L35.7729 30.7685C35.7637 30.76 35.7544 30.7504 35.7441 30.7419L33.0315 28.2628C32.5937 27.8607 32.5515 27.1641 32.936 26.7087C33.3224 26.2553 33.9936 26.2116 34.4315 26.6105L34.9907 27.1225C34.9999 27.1311 35.0092 27.1396 35.0184 27.1471L37.4864 29.4042C37.6971 29.5962 37.8235 29.865 37.842 30.1605C37.8595 30.4539 37.767 30.7365 37.581 30.9552H37.5799Z" fill="white"/>
<path d="M31.539 24.6806L31.5164 24.6604C33.3728 22.0128 33.0161 18.2729 30.6026 16.0638C29.362 14.9299 27.7698 14.3645 26.12 14.4744C24.8434 14.5587 23.6511 15.0398 22.6705 15.8494H22.6211C22.2028 16.1982 21.8286 16.6014 21.509 17.0494H21.5501C20.8922 17.9647 20.5016 19.0132 20.3742 20.0874H20.3413C20.3104 20.3477 20.293 20.6133 20.293 20.8821C20.293 21.0186 20.2981 21.153 20.3063 21.2874H20.3392C20.404 22.3531 20.7226 23.4006 21.288 24.3265H21.254C21.5038 24.7361 21.7957 25.1159 22.1257 25.4561C22.1349 25.4508 22.1442 25.4476 22.1524 25.4423C22.2398 25.5319 22.3292 25.6204 22.4227 25.7057C23.5966 26.7778 25.0552 27.3047 26.5086 27.3047C28.0453 27.3047 29.5737 26.7148 30.7527 25.5607L30.7753 25.5809C31.0559 25.3068 31.3129 25.0049 31.5401 24.6806H31.539ZM30.2881 24.3372C28.4544 26.4972 25.269 26.7074 23.1865 24.8054C21.104 22.9024 20.9025 19.5946 22.7373 17.4334C23.6254 16.3859 24.8527 15.7608 26.1941 15.6723C26.304 15.6648 26.412 15.6616 26.5209 15.6616C27.7451 15.6616 28.9128 16.1182 29.8389 16.9652C31.9204 18.8703 32.1219 22.1771 30.2891 24.3372H30.2881Z" fill="white"/>
</g>
</svg>
