<svg width="312" height="280" viewBox="0 0 312 280" fill="none" xmlns="http://www.w3.org/2000/svg">
<mask id="mask0_1721_15544" style="mask-type:alpha" maskUnits="userSpaceOnUse" x="0" y="0" width="312" height="280">
<rect width="312" height="280" fill="#D9D9D9"/>
</mask>
<g mask="url(#mask0_1721_15544)">
<path d="M8.99999 139.009L83 8.23071L231 8.2307L305 139.009L231 269.788L83 269.788L8.99999 139.009Z" fill="white"/>
<path d="M87.7264 12.046H225.943L227.008 12.467C228.996 13.2487 230.602 13.9904 231.807 14.6719L233.233 15.4737L234.056 16.8969L283.977 103.211L290.985 91.2238L243.835 9.74085C241.747 6.13275 237.45 3.42667 229.036 0.399873C228.373 0.159333 227.69 0.0390625 226.988 0.0390625H87.7264C80.7985 0.0390625 74.3526 3.74739 70.8987 9.74085L-76.2743 264.192C-77.5796 266.477 -80.0495 267.881 -82.6801 267.881H-221.941C-224.572 267.881 -227.022 266.457 -228.347 264.192L-297.967 143.782C-299.273 141.517 -299.293 138.69 -297.967 136.405L-228.347 16.0149C-227.042 13.7499 -224.572 12.3267 -221.941 12.3267H-83.7243L-82.66 12.7476C-80.672 13.5294 -79.0455 14.271 -77.8406 14.9526L-76.4149 15.7544L-75.5915 17.1575L-25.4294 103.892L-18.622 91.6247L-65.8523 10.0014C-67.9407 6.39333 -72.2381 3.68726 -80.6519 0.660458C-81.3146 0.419918 -81.9973 0.299648 -82.7002 0.299648H-221.941C-228.869 0.299648 -235.315 4.00797 -238.769 10.0014L-308.41 130.392C-311.863 136.385 -311.863 143.822 -308.41 149.795L-238.789 270.186C-235.335 276.159 -228.869 279.888 -221.961 279.888H-82.7002C-75.7723 279.888 -69.3263 276.179 -65.8724 270.186L81.3206 15.7343C82.6259 13.4692 85.0959 12.046 87.7264 12.046Z" fill="url(#paint0_linear_1721_15544)"/>
<path d="M396.993 12.0465H536.254C538.885 12.0465 541.335 13.4697 542.66 15.7348L592.902 102.59L599.951 90.7232L553.102 9.72132C549.648 3.7479 543.182 0.0195312 536.274 0.0195312H397.013C390.085 0.0195312 383.639 3.72786 380.185 9.72132L233.012 264.173C231.707 266.438 229.237 267.861 226.607 267.861H88.3897L87.3254 267.44C85.3374 266.658 83.7309 265.917 82.5261 265.235L81.1003 264.433L80.277 263.01L30.3559 176.696L23.3477 188.683L70.4976 270.166C72.586 273.774 76.8834 276.48 85.2973 279.507C85.9599 279.748 86.6427 279.868 87.3455 279.868H226.607C233.534 279.868 239.98 276.16 243.434 270.166L390.587 15.7348C391.892 13.4497 394.362 12.0465 396.993 12.0465Z" fill="url(#paint1_linear_1721_15544)"/>
</g>
<defs>
<linearGradient id="paint0_linear_1721_15544" x1="-316.314" y1="141.446" x2="298.973" y2="143.229" gradientUnits="userSpaceOnUse">
<stop stop-color="#04B091"/>
<stop offset="1" stop-color="#00A0E9"/>
</linearGradient>
<linearGradient id="paint1_linear_1721_15544" x1="18.2573" y1="141.427" x2="607.602" y2="143.062" gradientUnits="userSpaceOnUse">
<stop stop-color="#04B091"/>
<stop offset="1" stop-color="#00A0E9"/>
</linearGradient>
</defs>
</svg>
