<svg width="311" height="280" viewBox="0 0 311 280" fill="none" xmlns="http://www.w3.org/2000/svg">
<mask id="mask0_1721_15543" style="mask-type:alpha" maskUnits="userSpaceOnUse" x="0" y="0" width="311" height="280">
<rect width="311" height="280" fill="#D9D9D9"/>
</mask>
<g mask="url(#mask0_1721_15543)">
<path d="M3.99999 140.029L78 9.25024L226 9.25023L300 140.029L226 270.808L78 270.808L3.99999 140.029Z" fill="url(#paint0_linear_1721_15543)"/>
<path d="M308.41 130.112L238.789 9.72132C235.336 3.7479 228.87 0.0195312 221.962 0.0195312H82.7006C75.7726 0.0195312 69.3267 3.72786 65.8728 9.72132L-81.3001 264.173C-82.6054 266.438 -85.0753 267.861 -87.7059 267.861H-225.923L-226.987 267.44C-228.975 266.658 -230.582 265.917 -231.786 265.235L-233.212 264.433L-234.035 263.01L-283.957 176.696L-290.965 188.683L-243.815 270.166C-241.726 273.774 -237.429 276.48 -229.015 279.507C-228.353 279.748 -227.67 279.868 -226.967 279.868H-87.7059C-80.778 279.868 -74.3321 276.16 -70.8781 270.166L76.2947 15.7348C77.6 13.4497 80.07 12.0465 82.7006 12.0465H221.962C224.592 12.0465 227.042 13.4697 228.367 15.7348L297.988 136.125C299.293 138.39 299.313 141.217 297.988 143.502L228.367 263.892C227.062 266.157 224.592 267.58 221.962 267.58H83.7448L82.6805 267.159C80.6925 266.378 79.066 265.636 77.8611 264.954L76.4353 264.153L75.612 262.75L25.45 176.015L18.6425 188.282L65.8527 269.906C67.9411 273.514 72.2384 276.22 80.6523 279.247C81.315 279.487 81.9977 279.607 82.7006 279.607H221.962C228.89 279.607 235.336 275.899 238.789 269.906L308.41 149.515C311.864 143.522 311.864 136.085 308.41 130.112Z" fill="url(#paint1_linear_1721_15543)"/>
</g>
<defs>
<linearGradient id="paint0_linear_1721_15543" x1="151.498" y1="11.595" x2="151.498" y2="270.47" gradientUnits="userSpaceOnUse">
<stop stop-color="#01A5D2"/>
<stop offset="1" stop-color="#01A5D1"/>
</linearGradient>
<linearGradient id="paint1_linear_1721_15543" x1="-296.279" y1="141.427" x2="318.988" y2="143.209" gradientUnits="userSpaceOnUse">
<stop stop-color="#04B091"/>
<stop offset="1" stop-color="#00A0E9"/>
</linearGradient>
</defs>
</svg>
