<svg width="40" height="37" viewBox="0 0 40 37" fill="none" xmlns="http://www.w3.org/2000/svg">
<path d="M27.1635 6.43696H30.0115C30.3354 6.43696 30.5969 6.16472 30.5969 5.82981C30.5969 5.4949 30.3344 5.22266 30.0115 5.22266H27.1635C26.8406 5.22266 26.5781 5.4949 26.5781 5.82981C26.5781 6.16472 26.8406 6.43696 27.1635 6.43696Z" fill="#0057A8"/>
<path d="M32.8589 6.43696H35.7047C36.0286 6.43696 36.2901 6.16472 36.2901 5.82981C36.2901 5.4949 36.0286 5.22266 35.7047 5.22266H32.8589C32.5349 5.22266 32.2734 5.4949 32.2734 5.82981C32.2734 6.16472 32.5359 6.43696 32.8589 6.43696Z" fill="#0057A8"/>
<path d="M39.0021 27.7149C39.5521 27.7149 40 27.2501 40 26.6804V17.0367C40 16.4951 39.575 16.0541 39.0531 16.0541H38.1865V11.6587H38.776C39.326 11.6587 39.774 11.1949 39.774 10.6252V0.980474C39.774 0.43997 39.349 0 38.8271 0H0.964583C0.44375 0 0.0197917 0.43997 0.0197917 0.980474V10.6263C0.0197917 11.196 0.466667 11.6598 1.01562 11.6598H1.60729V16.0551H1.19062C0.669792 16.0551 0.245833 16.4962 0.245833 17.0378V26.6814C0.245833 27.2522 0.692708 27.716 1.24167 27.716H14.3615V30.1072C13.9302 30.2769 13.5865 30.6282 13.4146 31.0714H2.05C0.919792 31.0714 0 32.0259 0 33.1999C0 34.3739 0.919792 35.3263 2.05 35.3263H13.4156C13.6594 35.9565 14.2531 36.403 14.9479 36.403H18.6656C18.9896 36.403 19.251 36.1305 19.251 35.7954C19.251 35.4603 18.9885 35.1879 18.6656 35.1879H14.9479C14.6875 35.1879 14.4687 34.962 14.4687 34.6939V31.7049C14.4687 31.4368 14.6875 31.2109 14.9479 31.2109H24.8271C25.0896 31.2109 25.3042 31.4325 25.3042 31.7049V34.6939C25.3042 34.9663 25.0896 35.1879 24.8271 35.1879H21.5115C21.1875 35.1879 20.925 35.4603 20.925 35.7954C20.925 36.1305 21.1875 36.403 21.5115 36.403H24.8271C25.5208 36.403 26.1135 35.9565 26.3573 35.3263H37.7229C38.8542 35.3263 39.775 34.3728 39.775 33.1999C39.775 32.027 38.8542 31.0714 37.7229 31.0714H26.3573C26.1865 30.6282 25.8427 30.278 25.4125 30.1072V27.716H39.0021V27.7149ZM13.2958 34.1091H2.05C1.56562 34.1091 1.17188 33.7004 1.17188 33.1988C1.17188 32.6973 1.56562 32.2865 2.05 32.2865H13.2958V34.1091ZM26.475 32.2865H37.7219C38.2073 32.2865 38.6021 32.6962 38.6021 33.1988C38.6021 33.7015 38.2073 34.1091 37.7219 34.1091H26.475V32.2865ZM1.19167 10.4425V1.21613H38.6021V10.4425H21.4542C21.1302 10.4425 20.8687 10.7139 20.8687 11.0501C20.8687 11.3863 21.1313 11.6576 21.4542 11.6576H37.0146V16.053H2.77917V11.6576H18.6406C18.9635 11.6576 19.226 11.3852 19.226 11.0501C19.226 10.715 18.9635 10.4425 18.6406 10.4425H1.19167ZM24.2406 29.9926H15.5333V27.7149H24.2406V29.9926ZM24.826 26.4988H1.41771V17.2702H38.8281V26.4988H24.8271H24.826Z" fill="black"/>
<path d="M30.0115 21.2734H27.1635C26.8406 21.2734 26.5781 21.5457 26.5781 21.8806C26.5781 22.2155 26.8406 22.4888 27.1635 22.4888H30.0115C30.3354 22.4888 30.5969 22.2166 30.5969 21.8806C30.5969 21.5446 30.3344 21.2734 30.0115 21.2734Z" fill="#0057A8"/>
<path d="M35.7047 21.2734H32.8589C32.5349 21.2734 32.2734 21.5457 32.2734 21.8806C32.2734 22.2155 32.5359 22.4888 32.8589 22.4888H35.7047C36.0286 22.4888 36.2901 22.2166 36.2901 21.8806C36.2901 21.5446 36.0276 21.2734 35.7047 21.2734Z" fill="#0057A8"/>
<path d="M23.6896 7.08148V4.5703C23.6896 3.96277 23.2135 3.46875 22.6281 3.46875H17.45C16.8656 3.46875 16.3906 3.96277 16.3906 4.5703V7.08148C16.3906 7.68901 16.8656 8.18411 17.45 8.18411H22.6281C23.2135 8.18411 23.6896 7.69009 23.6896 7.08148ZM22.5177 6.96797H17.5625V4.68597H22.5177V6.96797Z" fill="#0057A8"/>
<path d="M13.1802 3.46875H4.68542C4.10104 3.46875 3.625 3.96385 3.625 4.5703V7.08148C3.625 7.68901 4.1 8.18411 4.68542 8.18411H13.1802C13.7656 8.18411 14.2417 7.69009 14.2417 7.08148V4.5703C14.2417 3.96277 13.7656 3.46875 13.1802 3.46875ZM13.0698 6.96689H4.79688V4.68488H13.0698V6.96689Z" fill="#0057A8"/>
<path d="M22.5443 19.5273H17.3661C16.7807 19.5273 16.3047 20.0214 16.3047 20.6289V23.1401C16.3047 23.7476 16.7807 24.2416 17.3661 24.2416H22.5443C23.1286 24.2416 23.6036 23.7476 23.6036 23.1401V20.6289C23.6036 20.0214 23.1286 19.5273 22.5443 19.5273ZM22.4318 23.0255H17.4766V20.7435H22.4318V23.0255Z" fill="#0057A8"/>
<path d="M13.0964 19.5273H4.60156C4.01615 19.5273 3.53906 20.0214 3.53906 20.6289V23.1401C3.53906 23.7476 4.0151 24.2416 4.60156 24.2416H13.0964C13.6818 24.2416 14.1578 23.7476 14.1578 23.1401V20.6289C14.1578 20.0214 13.6818 19.5273 13.0964 19.5273ZM12.9859 23.0255H4.71094V20.7435H12.9859V23.0255Z" fill="#0057A8"/>
</svg>
