<svg width="57" height="68" viewBox="0 0 57 68" fill="none" xmlns="http://www.w3.org/2000/svg">
<path d="M29.8518 51.8047H21.7188V66.4113H29.8518V51.8047Z" fill="#38BEEF"/>
<path d="M18.9925 57.1094H10.8594V66.4085H18.9925V57.1094Z" fill="#38BEEF"/>
<path d="M40.7112 49.1406H32.5781V66.4089H40.7112V49.1406Z" fill="#38BEEF"/>
<path d="M51.5706 43.832H43.4375V66.4078H51.5706V43.832Z" fill="#38BEEF"/>
<path d="M6.78118 6.63566H51.5709V0H0V62.4197H6.78118V6.63566Z" fill="#B2F0FB"/>
<path d="M14.7953 50.7875L45.5467 38.608L45.2529 39.2553C44.9501 39.9238 45.2565 40.7035 45.9379 41.0015C46.6174 41.2979 47.4178 41.0015 47.7224 40.3313C48.0487 39.6134 49.3321 36.793 49.3843 36.6748C49.6421 36.0874 49.433 35.3977 48.8778 35.045C48.7138 34.9409 48.9103 35.045 44.9717 33.3252C44.2885 33.0289 43.49 33.3287 43.1872 33.9955C42.8844 34.664 43.1908 35.4454 43.8722 35.7417L44.6851 36.0962L13.7786 48.3375C13.0864 48.6109 12.753 49.3834 13.0324 50.0608C13.3136 50.7381 14.1013 51.0644 14.7935 50.791L14.7953 50.7875Z" fill="#404040"/>
<path d="M29.9398 33.1954C35.1383 33.1954 39.4446 29.3908 40.108 24.4784H41.3932C42.1412 24.4784 42.7451 23.8857 42.7451 23.1555V23.1096C42.7451 16.2253 37.022 10.625 29.9867 10.625H29.9398C29.1935 10.625 28.5879 11.2177 28.5879 11.9479V13.2055C23.5678 13.8546 19.6797 18.0685 19.6797 23.1555C19.6797 28.6923 24.2816 33.1954 29.9398 33.1954ZM31.2917 13.3537C35.7945 13.927 39.3707 17.4265 39.9565 21.8326H31.2917V13.3537ZM28.5879 15.8831V23.1555C28.5879 23.8857 29.1935 24.4784 29.9398 24.4784H37.3717C36.7318 27.9268 33.644 30.5496 29.9398 30.5496C25.7741 30.5496 22.3835 27.2318 22.3835 23.1555C22.3835 19.5308 25.0639 16.5075 28.5879 15.8831Z" fill="#404040"/>
<path d="M55.6505 5.31641H6.7816C6.03354 5.31641 5.42969 5.90906 5.42969 6.63931V66.4132C5.42969 67.1434 6.03354 67.7361 6.7816 67.7361H55.6487C56.3949 67.7361 57.0006 67.1434 57.0006 66.4132V6.63931C57.0006 5.90906 56.3949 5.31641 55.6487 5.31641H55.6505ZM8.13351 65.0903V7.96221H54.2967V65.0903H8.13351Z" fill="#404040"/>
</svg>
