<svg width="21" height="18" viewBox="0 0 21 18" fill="none" xmlns="http://www.w3.org/2000/svg">
<g clip-path="url(#clip0_914_24390)">
<path d="M14.875 3.75V12.75C14.875 14.8177 12.9124 16.5 10.5 16.5C8.08763 16.5 6.125 14.8177 6.125 12.75V3.75C6.125 2.5095 7.30275 1.5 8.75 1.5C10.1973 1.5 11.375 2.5095 11.375 3.75V10.5C11.375 10.9132 10.9821 11.25 10.5 11.25C10.0179 11.25 9.625 10.9132 9.625 10.5V4.5H7.875V10.5C7.875 11.7427 9.05013 12.75 10.5 12.75C11.9499 12.75 13.125 11.7427 13.125 10.5V3.75C13.125 1.67925 11.1659 0 8.75 0C6.33413 0 4.375 1.67925 4.375 3.75V12.75C4.375 15.6495 7.11725 18 10.5 18C13.8828 18 16.625 15.6495 16.625 12.75V3.75H14.875Z" fill="#5474B7" stroke="#5474B7"/>
</g>
<defs>
<clipPath id="clip0_914_24390">
<rect width="21" height="18" fill="white"/>
</clipPath>
</defs>
</svg>
